<svg width="690" height="690" viewBox="0 0 690 690" fill="none" xmlns="http://www.w3.org/2000/svg">
<path d="M345 0C535.538 0 690 154.462 690 345C690 535.538 535.538 690 345 690C154.462 690 0 535.538 0 345C0 154.462 154.462 0 345 0ZM344.948 141.667C327.692 141.667 310.766 146.4 296.013 155.352C281.26 164.303 269.244 177.13 261.274 192.437C253.305 207.743 249.687 224.942 250.813 242.161C251.94 259.381 257.769 275.961 267.664 290.099C250.083 284.554 231.262 284.284 213.528 289.322C195.795 294.36 179.927 304.486 167.888 318.446C155.848 332.407 148.164 349.591 145.787 367.872C143.41 386.153 146.444 404.73 154.513 421.306C162.582 437.881 175.332 451.728 191.187 461.134C207.042 470.54 225.306 475.092 243.721 474.228C262.136 473.363 279.893 467.12 294.798 456.271C309.702 445.421 321.099 430.441 327.58 413.183C327.652 475.275 323.669 516.568 264.765 547.755H425.141C366.236 516.559 362.253 475.257 362.325 413.183C370.081 433.881 384.858 451.2 404.079 462.115C423.3 473.031 445.744 476.85 467.493 472.907C489.243 468.964 508.917 457.508 523.082 440.54C537.248 423.572 545.005 402.168 545 380.063C544.993 365.242 541.495 350.631 534.79 337.413C528.085 324.195 518.361 312.742 506.406 303.981C494.451 295.221 480.601 289.399 465.978 286.987C451.354 284.575 436.367 285.641 422.232 290.099C432.128 275.961 437.956 259.381 439.083 242.161C440.21 224.942 436.591 207.743 428.622 192.437C420.653 177.13 408.637 164.303 393.884 155.352C379.131 146.4 362.205 141.667 344.948 141.667Z" fill="#FE4F17"/>
</svg>
