<svg xmlns="http://www.w3.org/2000/svg" viewBox="0 0 1200 630" preserveAspectRatio="xMidYMid slice">
  <defs>
    <symbol id="mark" viewBox="0 0 690 690">
      <path d="M345 0C535.538 0 690 154.462 690 345C690 535.538 535.538 690 345 690C154.462 690 0 535.538 0 345C0 154.462 154.462 0 345 0ZM344.948 141.667C327.692 141.667 310.766 146.4 296.013 155.352C281.26 164.303 269.244 177.13 261.274 192.437C253.305 207.743 249.687 224.942 250.813 242.161C251.94 259.381 257.769 275.961 267.664 290.099C250.083 284.554 231.262 284.284 213.528 289.322C195.795 294.36 179.927 304.486 167.888 318.446C155.848 332.407 148.164 349.591 145.787 367.872C143.41 386.153 146.444 404.73 154.513 421.306C162.582 437.881 175.332 451.728 191.187 461.134C207.042 470.54 225.306 475.092 243.721 474.228C262.136 473.363 279.893 467.12 294.798 456.271C309.702 445.421 321.099 430.441 327.58 413.183C327.652 475.275 323.669 516.568 264.765 547.755H425.141C366.236 516.559 362.253 475.257 362.325 413.183C370.081 433.881 384.858 451.2 404.079 462.115C423.3 473.031 445.744 476.85 467.493 472.907C489.243 468.964 508.917 457.508 523.082 440.54C537.248 423.572 545.005 402.168 545 380.063C544.993 365.242 541.495 350.631 534.79 337.413C528.085 324.195 518.361 312.742 506.406 303.981C494.451 295.221 480.601 289.399 465.978 286.987C451.354 284.575 436.367 285.641 422.232 290.099C432.128 275.961 437.956 259.381 439.083 242.161C440.21 224.942 436.591 207.743 428.622 192.437C420.653 177.13 408.637 164.303 393.884 155.352C379.131 146.4 362.205 141.667 344.948 141.667Z" fill="currentColor"/>
    </symbol>
    <symbol id="wordmark" viewBox="0 0 1819 460">
<path d="M31.2 378.4L30.4 379.2H29.6C25.8667 379.2 22.4 378.667 19.2 377.6C16.5333 376.533 13.8667 375.2 11.2 373.6C9.06667 372 7.2 370.133 5.6 368C4 365.333 2.66667 362.667 1.6 360C0.533333 356.8 0 353.333 0 349.6V348.8L0.8 348H31.2V378.4ZM28 378.4V348H58.4L59.2 348.8V349.6C59.2 353.333 58.6667 356.8 57.6 360C56.5333 362.667 55.2 365.333 53.6 368C52 370.133 49.8667 372 47.2 373.6C45.0667 375.2 42.4 376.533 39.2 377.6C36.5333 378.667 33.3333 379.2 29.6 379.2H28.8L28 378.4ZM28 320.8L28.8 320H29.6C33.3333 320 36.5333 320.533 39.2 321.6C42.4 322.667 45.0667 324 47.2 325.6C49.8667 327.2 52 329.333 53.6 332C55.2 334.133 56.5333 336.8 57.6 340C58.6667 342.667 59.2 345.867 59.2 349.6V350.4L58.4 351.2H28V320.8ZM31.2 320.8V351.2H0.8L0 350.4V349.6C0 345.867 0.533333 342.667 1.6 340C2.66667 336.8 4 334.133 5.6 332C7.2 329.333 9.06667 327.2 11.2 325.6C13.8667 324 16.5333 322.667 19.2 321.6C22.4 320.533 25.8667 320 29.6 320H30.4L31.2 320.8ZM31.2 298.4L30.4 299.2H29.6C25.8667 299.2 22.4 298.667 19.2 297.6C16.5333 296.533 13.8667 295.2 11.2 293.6C9.06667 292 7.2 290.133 5.6 288C4 285.333 2.66667 282.667 1.6 280C0.533333 276.8 0 273.333 0 269.6V268.8L0.8 268H31.2V298.4ZM28 298.4V268H58.4L59.2 268.8V269.6C59.2 273.333 58.6667 276.8 57.6 280C56.5333 282.667 55.2 285.333 53.6 288C52 290.133 49.8667 292 47.2 293.6C45.0667 295.2 42.4 296.533 39.2 297.6C36.5333 298.667 33.3333 299.2 29.6 299.2H28.8L28 298.4ZM28 240.8L28.8 240H29.6C33.3333 240 36.5333 240.533 39.2 241.6C42.4 242.667 45.0667 244 47.2 245.6C49.8667 247.2 52 249.333 53.6 252C55.2 254.133 56.5333 256.8 57.6 260C58.6667 262.667 59.2 265.867 59.2 269.6V270.4L58.4 271.2H28V240.8ZM31.2 240.8V271.2H0.8L0 270.4V269.6C0 265.867 0.533333 262.667 1.6 260C2.66667 256.8 4 254.133 5.6 252C7.2 249.333 9.06667 247.2 11.2 245.6C13.8667 244 16.5333 242.667 19.2 241.6C22.4 240.533 25.8667 240 29.6 240H30.4L31.2 240.8ZM31.2 218.4L30.4 219.2H29.6C25.8667 219.2 22.4 218.667 19.2 217.6C16.5333 216.533 13.8667 215.2 11.2 213.6C9.06667 212 7.2 210.133 5.6 208C4 205.333 2.66667 202.667 1.6 200C0.533333 196.8 0 193.333 0 189.6V188.8L0.8 188H31.2V218.4ZM28 218.4V188H58.4L59.2 188.8V189.6C59.2 193.333 58.6667 196.8 57.6 200C56.5333 202.667 55.2 205.333 53.6 208C52 210.133 49.8667 212 47.2 213.6C45.0667 215.2 42.4 216.533 39.2 217.6C36.5333 218.667 33.3333 219.2 29.6 219.2H28.8L28 218.4ZM28 160.8L28.8 160H29.6C33.3333 160 36.5333 160.533 39.2 161.6C42.4 162.667 45.0667 164 47.2 165.6C49.8667 167.2 52 169.333 53.6 172C55.2 174.133 56.5333 176.8 57.6 180C58.6667 182.667 59.2 185.867 59.2 189.6V190.4L58.4 191.2H28V160.8ZM31.2 160.8V191.2H0.8L0 190.4V189.6C0 185.867 0.533333 182.667 1.6 180C2.66667 176.8 4 174.133 5.6 172C7.2 169.333 9.06667 167.2 11.2 165.6C13.8667 164 16.5333 162.667 19.2 161.6C22.4 160.533 25.8667 160 29.6 160H30.4L31.2 160.8ZM31.2 138.4L30.4 139.2H29.6C25.8667 139.2 22.4 138.667 19.2 137.6C16.5333 136.533 13.8667 135.2 11.2 133.6C9.06667 132 7.2 130.133 5.6 128C4 125.333 2.66667 122.667 1.6 120C0.533333 116.8 0 113.333 0 109.6V108.8L0.8 108H31.2V138.4ZM28 138.4V108H58.4L59.2 108.8V109.6C59.2 113.333 58.6667 116.8 57.6 120C56.5333 122.667 55.2 125.333 53.6 128C52 130.133 49.8667 132 47.2 133.6C45.0667 135.2 42.4 136.533 39.2 137.6C36.5333 138.667 33.3333 139.2 29.6 139.2H28.8L28 138.4ZM28 80.8L28.8 80H29.6C33.3333 80 36.5333 80.5333 39.2 81.6C42.4 82.6667 45.0667 84 47.2 85.6C49.8667 87.2 52 89.3333 53.6 92C55.2 94.1333 56.5333 96.8 57.6 100C58.6667 102.667 59.2 105.867 59.2 109.6V110.4L58.4 111.2H28V80.8ZM31.2 80.8V111.2H0.8L0 110.4V109.6C0 105.867 0.533333 102.667 1.6 100C2.66667 96.8 4 94.1333 5.6 92C7.2 89.3333 9.06667 87.2 11.2 85.6C13.8667 84 16.5333 82.6667 19.2 81.6C22.4 80.5333 25.8667 80 29.6 80H30.4L31.2 80.8ZM111.2 458.4L110.4 459.2H109.6C105.867 459.2 102.4 458.667 99.2 457.6C96.5333 456.533 93.8667 455.2 91.2 453.6C89.0667 452 87.2 450.133 85.6 448C84 445.333 82.6667 442.667 81.6 440C80.5333 436.8 80 433.333 80 429.6V428.8L80.8 428H111.2V458.4ZM108 458.4V428H138.4L139.2 428.8V429.6C139.2 433.333 138.667 436.8 137.6 440C136.533 442.667 135.2 445.333 133.6 448C132 450.133 129.867 452 127.2 453.6C125.067 455.2 122.4 456.533 119.2 457.6C116.533 458.667 113.333 459.2 109.6 459.2H108.8L108 458.4ZM108 400.8L108.8 400H109.6C113.333 400 116.533 400.533 119.2 401.6C122.4 402.667 125.067 404 127.2 405.6C129.867 407.2 132 409.333 133.6 412C135.2 414.133 136.533 416.8 137.6 420C138.667 422.667 139.2 425.867 139.2 429.6V430.4L138.4 431.2H108V400.8ZM111.2 400.8V431.2H80.8L80 430.4V429.6C80 425.867 80.5333 422.667 81.6 420C82.6667 416.8 84 414.133 85.6 412C87.2 409.333 89.0667 407.2 91.2 405.6C93.8667 404 96.5333 402.667 99.2 401.6C102.4 400.533 105.867 400 109.6 400H110.4L111.2 400.8ZM111.2 378.4L110.4 379.2H109.6C105.867 379.2 102.4 378.667 99.2 377.6C96.5333 376.533 93.8667 375.2 91.2 373.6C89.0667 372 87.2 370.133 85.6 368C84 365.333 82.6667 362.667 81.6 360C80.5333 356.8 80 353.333 80 349.6V348.8L80.8 348H111.2V378.4ZM108 378.4V348H138.4L139.2 348.8V349.6C139.2 353.333 138.667 356.8 137.6 360C136.533 362.667 135.2 365.333 133.6 368C132 370.133 129.867 372 127.2 373.6C125.067 375.2 122.4 376.533 119.2 377.6C116.533 378.667 113.333 379.2 109.6 379.2H108.8L108 378.4ZM108 320.8L108.8 320H109.6C113.333 320 116.533 320.533 119.2 321.6C122.4 322.667 125.067 324 127.2 325.6C129.867 327.2 132 329.333 133.6 332C135.2 334.133 136.533 336.8 137.6 340C138.667 342.667 139.2 345.867 139.2 349.6V350.4L138.4 351.2H108V320.8ZM111.2 320.8V351.2H80.8L80 350.4V349.6C80 345.867 80.5333 342.667 81.6 340C82.6667 336.8 84 334.133 85.6 332C87.2 329.333 89.0667 327.2 91.2 325.6C93.8667 324 96.5333 322.667 99.2 321.6C102.4 320.533 105.867 320 109.6 320H110.4L111.2 320.8ZM111.2 298.4L110.4 299.2H109.6C105.867 299.2 102.4 298.667 99.2 297.6C96.5333 296.533 93.8667 295.2 91.2 293.6C89.0667 292 87.2 290.133 85.6 288C84 285.333 82.6667 282.667 81.6 280C80.5333 276.8 80 273.333 80 269.6V268.8L80.8 268H111.2V298.4ZM108 298.4V268H138.4L139.2 268.8V269.6C139.2 273.333 138.667 276.8 137.6 280C136.533 282.667 135.2 285.333 133.6 288C132 290.133 129.867 292 127.2 293.6C125.067 295.2 122.4 296.533 119.2 297.6C116.533 298.667 113.333 299.2 109.6 299.2H108.8L108 298.4ZM108 240.8L108.8 240H109.6C113.333 240 116.533 240.533 119.2 241.6C122.4 242.667 125.067 244 127.2 245.6C129.867 247.2 132 249.333 133.6 252C135.2 254.133 136.533 256.8 137.6 260C138.667 262.667 139.2 265.867 139.2 269.6V270.4L138.4 271.2H108V240.8ZM111.2 240.8V271.2H80.8L80 270.4V269.6C80 265.867 80.5333 262.667 81.6 260C82.6667 256.8 84 254.133 85.6 252C87.2 249.333 89.0667 247.2 91.2 245.6C93.8667 244 96.5333 242.667 99.2 241.6C102.4 240.533 105.867 240 109.6 240H110.4L111.2 240.8ZM111.2 218.4L110.4 219.2H109.6C105.867 219.2 102.4 218.667 99.2 217.6C96.5333 216.533 93.8667 215.2 91.2 213.6C89.0667 212 87.2 210.133 85.6 208C84 205.333 82.6667 202.667 81.6 200C80.5333 196.8 80 193.333 80 189.6V188.8L80.8 188H111.2V218.4ZM108 218.4V188H138.4L139.2 188.8V189.6C139.2 193.333 138.667 196.8 137.6 200C136.533 202.667 135.2 205.333 133.6 208C132 210.133 129.867 212 127.2 213.6C125.067 215.2 122.4 216.533 119.2 217.6C116.533 218.667 113.333 219.2 109.6 219.2H108.8L108 218.4ZM108 160.8L108.8 160H109.6C113.333 160 116.533 160.533 119.2 161.6C122.4 162.667 125.067 164 127.2 165.6C129.867 167.2 132 169.333 133.6 172C135.2 174.133 136.533 176.8 137.6 180C138.667 182.667 139.2 185.867 139.2 189.6V190.4L138.4 191.2H108V160.8ZM111.2 160.8V191.2H80.8L80 190.4V189.6C80 185.867 80.5333 182.667 81.6 180C82.6667 176.8 84 174.133 85.6 172C87.2 169.333 89.0667 167.2 91.2 165.6C93.8667 164 96.5333 162.667 99.2 161.6C102.4 160.533 105.867 160 109.6 160H110.4L111.2 160.8ZM111.2 138.4L110.4 139.2H109.6C105.867 139.2 102.4 138.667 99.2 137.6C96.5333 136.533 93.8667 135.2 91.2 133.6C89.0667 132 87.2 130.133 85.6 128C84 125.333 82.6667 122.667 81.6 120C80.5333 116.8 80 113.333 80 109.6V108.8L80.8 108H111.2V138.4ZM108 138.4V108H138.4L139.2 108.8V109.6C139.2 113.333 138.667 116.8 137.6 120C136.533 122.667 135.2 125.333 133.6 128C132 130.133 129.867 132 127.2 133.6C125.067 135.2 122.4 136.533 119.2 137.6C116.533 138.667 113.333 139.2 109.6 139.2H108.8L108 138.4ZM108 80.8L108.8 80H109.6C113.333 80 116.533 80.5333 119.2 81.6C122.4 82.6667 125.067 84 127.2 85.6C129.867 87.2 132 89.3333 133.6 92C135.2 94.1333 136.533 96.8 137.6 100C138.667 102.667 139.2 105.867 139.2 109.6V110.4L138.4 111.2H108V80.8ZM111.2 80.8V111.2H80.8L80 110.4V109.6C80 105.867 80.5333 102.667 81.6 100C82.6667 96.8 84 94.1333 85.6 92C87.2 89.3333 89.0667 87.2 91.2 85.6C93.8667 84 96.5333 82.6667 99.2 81.6C102.4 80.5333 105.867 80 109.6 80H110.4L111.2 80.8ZM111.2 58.4L110.4 59.2H109.6C105.867 59.2 102.4 58.6667 99.2 57.6C96.5333 56.5333 93.8667 55.2 91.2 53.6C89.0667 52 87.2 50.1333 85.6 48C84 45.3333 82.6667 42.6667 81.6 40C80.5333 36.8 80 33.3333 80 29.6V28.8L80.8 28H111.2V58.4ZM108 58.4V28H138.4L139.2 28.8V29.6C139.2 33.3333 138.667 36.8 137.6 40C136.533 42.6667 135.2 45.3333 133.6 48C132 50.1333 129.867 52 127.2 53.6C125.067 55.2 122.4 56.5333 119.2 57.6C116.533 58.6667 113.333 59.2 109.6 59.2H108.8L108 58.4ZM108 0.79999L108.8 0H109.6C113.333 0 116.533 0.533327 119.2 1.59998C122.4 2.66666 125.067 4 127.2 5.59998C129.867 7.19999 132 9.33332 133.6 12C135.2 14.1333 136.533 16.8 137.6 20C138.667 22.6666 139.2 25.8667 139.2 29.6V30.4L138.4 31.2H108V0.79999ZM111.2 0.79999V31.2H80.8L80 30.4V29.6C80 25.8667 80.5333 22.6666 81.6 20C82.6667 16.8 84 14.1333 85.6 12C87.2 9.33332 89.0667 7.19999 91.2 5.59998C93.8667 4 96.5333 2.66666 99.2 1.59998C102.4 0.533327 105.867 0 109.6 0H110.4L111.2 0.79999ZM191.2 458.4L190.4 459.2H189.6C185.867 459.2 182.4 458.667 179.2 457.6C176.533 456.533 173.867 455.2 171.2 453.6C169.067 452 167.2 450.133 165.6 448C164 445.333 162.667 442.667 161.6 440C160.533 436.8 160 433.333 160 429.6V428.8L160.8 428H191.2V458.4ZM188 458.4V428H218.4L219.2 428.8V429.6C219.2 433.333 218.667 436.8 217.6 440C216.533 442.667 215.2 445.333 213.6 448C212 450.133 209.867 452 207.2 453.6C205.067 455.2 202.4 456.533 199.2 457.6C196.533 458.667 193.333 459.2 189.6 459.2H188.8L188 458.4ZM188 400.8L188.8 400H189.6C193.333 400 196.533 400.533 199.2 401.6C202.4 402.667 205.067 404 207.2 405.6C209.867 407.2 212 409.333 213.6 412C215.2 414.133 216.533 416.8 217.6 420C218.667 422.667 219.2 425.867 219.2 429.6V430.4L218.4 431.2H188V400.8ZM191.2 400.8V431.2H160.8L160 430.4V429.6C160 425.867 160.533 422.667 161.6 420C162.667 416.8 164 414.133 165.6 412C167.2 409.333 169.067 407.2 171.2 405.6C173.867 404 176.533 402.667 179.2 401.6C182.4 400.533 185.867 400 189.6 400H190.4L191.2 400.8ZM191.2 58.4L190.4 59.2H189.6C185.867 59.2 182.4 58.6667 179.2 57.6C176.533 56.5333 173.867 55.2 171.2 53.6C169.067 52 167.2 50.1333 165.6 48C164 45.3333 162.667 42.6667 161.6 40C160.533 36.8 160 33.3333 160 29.6V28.8L160.8 28H191.2V58.4ZM188 58.4V28H218.4L219.2 28.8V29.6C219.2 33.3333 218.667 36.8 217.6 40C216.533 42.6667 215.2 45.3333 213.6 48C212 50.1333 209.867 52 207.2 53.6C205.067 55.2 202.4 56.5333 199.2 57.6C196.533 58.6667 193.333 59.2 189.6 59.2H188.8L188 58.4ZM188 0.79999L188.8 0H189.6C193.333 0 196.533 0.533327 199.2 1.59998C202.4 2.66666 205.067 4 207.2 5.59998C209.867 7.19999 212 9.33332 213.6 12C215.2 14.1333 216.533 16.8 217.6 20C218.667 22.6666 219.2 25.8667 219.2 29.6V30.4L218.4 31.2H188V0.79999ZM191.2 0.79999V31.2H160.8L160 30.4V29.6C160 25.8667 160.533 22.6666 161.6 20C162.667 16.8 164 14.1333 165.6 12C167.2 9.33332 169.067 7.19999 171.2 5.59998C173.867 4 176.533 2.66666 179.2 1.59998C182.4 0.533327 185.867 0 189.6 0H190.4L191.2 0.79999ZM271.2 458.4L270.4 459.2H269.6C265.867 459.2 262.4 458.667 259.2 457.6C256.533 456.533 253.867 455.2 251.2 453.6C249.067 452 247.2 450.133 245.6 448C244 445.333 242.667 442.667 241.6 440C240.533 436.8 240 433.333 240 429.6V428.8L240.8 428H271.2V458.4ZM268 458.4V428H298.4L299.2 428.8V429.6C299.2 433.333 298.667 436.8 297.6 440C296.533 442.667 295.2 445.333 293.6 448C292 450.133 289.867 452 287.2 453.6C285.067 455.2 282.4 456.533 279.2 457.6C276.533 458.667 273.333 459.2 269.6 459.2H268.8L268 458.4ZM268 400.8L268.8 400H269.6C273.333 400 276.533 400.533 279.2 401.6C282.4 402.667 285.067 404 287.2 405.6C289.867 407.2 292 409.333 293.6 412C295.2 414.133 296.533 416.8 297.6 420C298.667 422.667 299.2 425.867 299.2 429.6V430.4L298.4 431.2H268V400.8ZM271.2 400.8V431.2H240.8L240 430.4V429.6C240 425.867 240.533 422.667 241.6 420C242.667 416.8 244 414.133 245.6 412C247.2 409.333 249.067 407.2 251.2 405.6C253.867 404 256.533 402.667 259.2 401.6C262.4 400.533 265.867 400 269.6 400H270.4L271.2 400.8ZM271.2 58.4L270.4 59.2H269.6C265.867 59.2 262.4 58.6667 259.2 57.6C256.533 56.5333 253.867 55.2 251.2 53.6C249.067 52 247.2 50.1333 245.6 48C244 45.3333 242.667 42.6667 241.6 40C240.533 36.8 240 33.3333 240 29.6V28.8L240.8 28H271.2V58.4ZM268 58.4V28H298.4L299.2 28.8V29.6C299.2 33.3333 298.667 36.8 297.6 40C296.533 42.6667 295.2 45.3333 293.6 48C292 50.1333 289.867 52 287.2 53.6C285.067 55.2 282.4 56.5333 279.2 57.6C276.533 58.6667 273.333 59.2 269.6 59.2H268.8L268 58.4ZM268 0.79999L268.8 0H269.6C273.333 0 276.533 0.533327 279.2 1.59998C282.4 2.66666 285.067 4 287.2 5.59998C289.867 7.19999 292 9.33332 293.6 12C295.2 14.1333 296.533 16.8 297.6 20C298.667 22.6666 299.2 25.8667 299.2 29.6V30.4L298.4 31.2H268V0.79999ZM271.2 0.79999V31.2H240.8L240 30.4V29.6C240 25.8667 240.533 22.6666 241.6 20C242.667 16.8 244 14.1333 245.6 12C247.2 9.33332 249.067 7.19999 251.2 5.59998C253.867 4 256.533 2.66666 259.2 1.59998C262.4 0.533327 265.867 0 269.6 0H270.4L271.2 0.79999ZM351.2 378.4L350.4 379.2H349.6C345.867 379.2 342.4 378.667 339.2 377.6C336.533 376.533 333.867 375.2 331.2 373.6C329.067 372 327.2 370.133 325.6 368C324 365.333 322.667 362.667 321.6 360C320.533 356.8 320 353.333 320 349.6V348.8L320.8 348H351.2V378.4ZM348 378.4V348H378.4L379.2 348.8V349.6C379.2 353.333 378.667 356.8 377.6 360C376.533 362.667 375.2 365.333 373.6 368C372 370.133 369.867 372 367.2 373.6C365.067 375.2 362.4 376.533 359.2 377.6C356.533 378.667 353.333 379.2 349.6 379.2H348.8L348 378.4ZM348 320.8L348.8 320H349.6C353.333 320 356.533 320.533 359.2 321.6C362.4 322.667 365.067 324 367.2 325.6C369.867 327.2 372 329.333 373.6 332C375.2 334.133 376.533 336.8 377.6 340C378.667 342.667 379.2 345.867 379.2 349.6V350.4L378.4 351.2H348V320.8ZM351.2 320.8V351.2H320.8L320 350.4V349.6C320 345.867 320.533 342.667 321.6 340C322.667 336.8 324 334.133 325.6 332C327.2 329.333 329.067 327.2 331.2 325.6C333.867 324 336.533 322.667 339.2 321.6C342.4 320.533 345.867 320 349.6 320H350.4L351.2 320.8ZM351.2 138.4L350.4 139.2H349.6C345.867 139.2 342.4 138.667 339.2 137.6C336.533 136.533 333.867 135.2 331.2 133.6C329.067 132 327.2 130.133 325.6 128C324 125.333 322.667 122.667 321.6 120C320.533 116.8 320 113.333 320 109.6V108.8L320.8 108H351.2V138.4ZM348 138.4V108H378.4L379.2 108.8V109.6C379.2 113.333 378.667 116.8 377.6 120C376.533 122.667 375.2 125.333 373.6 128C372 130.133 369.867 132 367.2 133.6C365.067 135.2 362.4 136.533 359.2 137.6C356.533 138.667 353.333 139.2 349.6 139.2H348.8L348 138.4ZM348 80.8L348.8 80H349.6C353.333 80 356.533 80.5333 359.2 81.6C362.4 82.6667 365.067 84 367.2 85.6C369.867 87.2 372 89.3333 373.6 92C375.2 94.1333 376.533 96.8 377.6 100C378.667 102.667 379.2 105.867 379.2 109.6V110.4L378.4 111.2H348V80.8ZM351.2 80.8V111.2H320.8L320 110.4V109.6C320 105.867 320.533 102.667 321.6 100C322.667 96.8 324 94.1333 325.6 92C327.2 89.3333 329.067 87.2 331.2 85.6C333.867 84 336.533 82.6667 339.2 81.6C342.4 80.5333 345.867 80 349.6 80H350.4L351.2 80.8Z" fill="currentColor"/>
<path d="M510.888 458.4L510.087 459.2H509.288C505.554 459.2 502.088 458.667 498.888 457.6C496.221 456.533 493.554 455.2 490.888 453.6C488.754 452 486.888 450.133 485.288 448C483.688 445.333 482.354 442.667 481.288 440C480.221 436.8 479.688 433.333 479.688 429.6V428.8L480.487 428H510.888V458.4ZM507.688 458.4V428H538.088L538.888 428.8V429.6C538.888 433.333 538.354 436.8 537.287 440C536.221 442.667 534.887 445.333 533.287 448C531.687 450.133 529.554 452 526.888 453.6C524.754 455.2 522.088 456.533 518.888 457.6C516.221 458.667 513.021 459.2 509.288 459.2H508.487L507.688 458.4ZM507.688 400.8L508.487 400H509.288C513.021 400 516.221 400.533 518.888 401.6C522.088 402.667 524.754 404 526.888 405.6C529.554 407.2 531.687 409.333 533.287 412C534.887 414.133 536.221 416.8 537.287 420C538.354 422.667 538.888 425.867 538.888 429.6V430.4L538.088 431.2H507.688V400.8ZM510.888 400.8V431.2H480.487L479.688 430.4V429.6C479.688 425.867 480.221 422.667 481.288 420C482.354 416.8 483.688 414.133 485.288 412C486.888 409.333 488.754 407.2 490.888 405.6C493.554 404 496.221 402.667 498.888 401.6C502.088 400.533 505.554 400 509.288 400H510.087L510.888 400.8ZM510.888 378.4L510.087 379.2H509.288C505.554 379.2 502.088 378.667 498.888 377.6C496.221 376.533 493.554 375.2 490.888 373.6C488.754 372 486.888 370.133 485.288 368C483.688 365.333 482.354 362.667 481.288 360C480.221 356.8 479.688 353.333 479.688 349.6V348.8L480.487 348H510.888V378.4ZM507.688 378.4V348H538.088L538.888 348.8V349.6C538.888 353.333 538.354 356.8 537.287 360C536.221 362.667 534.887 365.333 533.287 368C531.687 370.133 529.554 372 526.888 373.6C524.754 375.2 522.088 376.533 518.888 377.6C516.221 378.667 513.021 379.2 509.288 379.2H508.487L507.688 378.4ZM507.688 320.8L508.487 320H509.288C513.021 320 516.221 320.533 518.888 321.6C522.088 322.667 524.754 324 526.888 325.6C529.554 327.2 531.687 329.333 533.287 332C534.887 334.133 536.221 336.8 537.287 340C538.354 342.667 538.888 345.867 538.888 349.6V350.4L538.088 351.2H507.688V320.8ZM510.888 320.8V351.2H480.487L479.688 350.4V349.6C479.688 345.867 480.221 342.667 481.288 340C482.354 336.8 483.688 334.133 485.288 332C486.888 329.333 488.754 327.2 490.888 325.6C493.554 324 496.221 322.667 498.888 321.6C502.088 320.533 505.554 320 509.288 320H510.087L510.888 320.8ZM510.888 298.4L510.087 299.2H509.288C505.554 299.2 502.088 298.667 498.888 297.6C496.221 296.533 493.554 295.2 490.888 293.6C488.754 292 486.888 290.133 485.288 288C483.688 285.333 482.354 282.667 481.288 280C480.221 276.8 479.688 273.333 479.688 269.6V268.8L480.487 268H510.888V298.4ZM507.688 298.4V268H538.088L538.888 268.8V269.6C538.888 273.333 538.354 276.8 537.287 280C536.221 282.667 534.887 285.333 533.287 288C531.687 290.133 529.554 292 526.888 293.6C524.754 295.2 522.088 296.533 518.888 297.6C516.221 298.667 513.021 299.2 509.288 299.2H508.487L507.688 298.4ZM507.688 240.8L508.487 240H509.288C513.021 240 516.221 240.533 518.888 241.6C522.088 242.667 524.754 244 526.888 245.6C529.554 247.2 531.687 249.333 533.287 252C534.887 254.133 536.221 256.8 537.287 260C538.354 262.667 538.888 265.867 538.888 269.6V270.4L538.088 271.2H507.688V240.8ZM510.888 240.8V271.2H480.487L479.688 270.4V269.6C479.688 265.867 480.221 262.667 481.288 260C482.354 256.8 483.688 254.133 485.288 252C486.888 249.333 488.754 247.2 490.888 245.6C493.554 244 496.221 242.667 498.888 241.6C502.088 240.533 505.554 240 509.288 240H510.087L510.888 240.8ZM510.888 218.4L510.087 219.2H509.288C505.554 219.2 502.088 218.667 498.888 217.6C496.221 216.533 493.554 215.2 490.888 213.6C488.754 212 486.888 210.133 485.288 208C483.688 205.333 482.354 202.667 481.288 200C480.221 196.8 479.688 193.333 479.688 189.6V188.8L480.487 188H510.888V218.4ZM507.688 218.4V188H538.088L538.888 188.8V189.6C538.888 193.333 538.354 196.8 537.287 200C536.221 202.667 534.887 205.333 533.287 208C531.687 210.133 529.554 212 526.888 213.6C524.754 215.2 522.088 216.533 518.888 217.6C516.221 218.667 513.021 219.2 509.288 219.2H508.487L507.688 218.4ZM507.688 160.8L508.487 160H509.288C513.021 160 516.221 160.533 518.888 161.6C522.088 162.667 524.754 164 526.888 165.6C529.554 167.2 531.687 169.333 533.287 172C534.887 174.133 536.221 176.8 537.287 180C538.354 182.667 538.888 185.867 538.888 189.6V190.4L538.088 191.2H507.688V160.8ZM510.888 160.8V191.2H480.487L479.688 190.4V189.6C479.688 185.867 480.221 182.667 481.288 180C482.354 176.8 483.688 174.133 485.288 172C486.888 169.333 488.754 167.2 490.888 165.6C493.554 164 496.221 162.667 498.888 161.6C502.088 160.533 505.554 160 509.288 160H510.087L510.888 160.8ZM510.888 138.4L510.087 139.2H509.288C505.554 139.2 502.088 138.667 498.888 137.6C496.221 136.533 493.554 135.2 490.888 133.6C488.754 132 486.888 130.133 485.288 128C483.688 125.333 482.354 122.667 481.288 120C480.221 116.8 479.688 113.333 479.688 109.6V108.8L480.487 108H510.888V138.4ZM507.688 138.4V108H538.088L538.888 108.8V109.6C538.888 113.333 538.354 116.8 537.287 120C536.221 122.667 534.887 125.333 533.287 128C531.687 130.133 529.554 132 526.888 133.6C524.754 135.2 522.088 136.533 518.888 137.6C516.221 138.667 513.021 139.2 509.288 139.2H508.487L507.688 138.4ZM507.688 80.8L508.487 80H509.288C513.021 80 516.221 80.5333 518.888 81.6C522.088 82.6667 524.754 84 526.888 85.6C529.554 87.2 531.687 89.3333 533.287 92C534.887 94.1333 536.221 96.8 537.287 100C538.354 102.667 538.888 105.867 538.888 109.6V110.4L538.088 111.2H507.688V80.8ZM510.888 80.8V111.2H480.487L479.688 110.4V109.6C479.688 105.867 480.221 102.667 481.288 100C482.354 96.8 483.688 94.1333 485.288 92C486.888 89.3333 488.754 87.2 490.888 85.6C493.554 84 496.221 82.6667 498.888 81.6C502.088 80.5333 505.554 80 509.288 80H510.087L510.888 80.8ZM510.888 58.4L510.087 59.2H509.288C505.554 59.2 502.088 58.6667 498.888 57.6C496.221 56.5333 493.554 55.2 490.888 53.6C488.754 52 486.888 50.1333 485.288 48C483.688 45.3333 482.354 42.6667 481.288 40C480.221 36.8 479.688 33.3333 479.688 29.6V28.8L480.487 28H510.888V58.4ZM507.688 58.4V28H538.088L538.888 28.8V29.6C538.888 33.3333 538.354 36.8 537.287 40C536.221 42.6667 534.887 45.3333 533.287 48C531.687 50.1333 529.554 52 526.888 53.6C524.754 55.2 522.088 56.5333 518.888 57.6C516.221 58.6667 513.021 59.2 509.288 59.2H508.487L507.688 58.4ZM507.688 0.79999L508.487 0H509.288C513.021 0 516.221 0.533327 518.888 1.59998C522.088 2.66666 524.754 4 526.888 5.59998C529.554 7.19999 531.687 9.33332 533.287 12C534.887 14.1333 536.221 16.8 537.287 20C538.354 22.6666 538.888 25.8667 538.888 29.6V30.4L538.088 31.2H507.688V0.79999ZM510.888 0.79999V31.2H480.487L479.688 30.4V29.6C479.688 25.8667 480.221 22.6666 481.288 20C482.354 16.8 483.688 14.1333 485.288 12C486.888 9.33332 488.754 7.19999 490.888 5.59998C493.554 4 496.221 2.66666 498.888 1.59998C502.088 0.533327 505.554 0 509.288 0H510.087L510.888 0.79999ZM590.888 458.4L590.088 459.2H589.287C585.554 459.2 582.088 458.667 578.888 457.6C576.221 456.533 573.554 455.2 570.888 453.6C568.754 452 566.887 450.133 565.287 448C563.687 445.333 562.354 442.667 561.287 440C560.221 436.8 559.688 433.333 559.688 429.6V428.8L560.487 428H590.888V458.4ZM587.688 458.4V428H618.088L618.888 428.8V429.6C618.888 433.333 618.354 436.8 617.287 440C616.221 442.667 614.887 445.333 613.287 448C611.687 450.133 609.554 452 606.888 453.6C604.754 455.2 602.088 456.533 598.888 457.6C596.221 458.667 593.021 459.2 589.287 459.2H588.487L587.688 458.4ZM587.688 400.8L588.487 400H589.287C593.021 400 596.221 400.533 598.888 401.6C602.088 402.667 604.754 404 606.888 405.6C609.554 407.2 611.687 409.333 613.287 412C614.887 414.133 616.221 416.8 617.287 420C618.354 422.667 618.888 425.867 618.888 429.6V430.4L618.088 431.2H587.688V400.8ZM590.888 400.8V431.2H560.487L559.688 430.4V429.6C559.688 425.867 560.221 422.667 561.287 420C562.354 416.8 563.687 414.133 565.287 412C566.887 409.333 568.754 407.2 570.888 405.6C573.554 404 576.221 402.667 578.888 401.6C582.088 400.533 585.554 400 589.287 400H590.088L590.888 400.8ZM590.888 378.4L590.088 379.2H589.287C585.554 379.2 582.088 378.667 578.888 377.6C576.221 376.533 573.554 375.2 570.888 373.6C568.754 372 566.887 370.133 565.287 368C563.687 365.333 562.354 362.667 561.287 360C560.221 356.8 559.688 353.333 559.688 349.6V348.8L560.487 348H590.888V378.4ZM587.688 378.4V348H618.088L618.888 348.8V349.6C618.888 353.333 618.354 356.8 617.287 360C616.221 362.667 614.887 365.333 613.287 368C611.687 370.133 609.554 372 606.888 373.6C604.754 375.2 602.088 376.533 598.888 377.6C596.221 378.667 593.021 379.2 589.287 379.2H588.487L587.688 378.4ZM587.688 320.8L588.487 320H589.287C593.021 320 596.221 320.533 598.888 321.6C602.088 322.667 604.754 324 606.888 325.6C609.554 327.2 611.687 329.333 613.287 332C614.887 334.133 616.221 336.8 617.287 340C618.354 342.667 618.888 345.867 618.888 349.6V350.4L618.088 351.2H587.688V320.8ZM590.888 320.8V351.2H560.487L559.688 350.4V349.6C559.688 345.867 560.221 342.667 561.287 340C562.354 336.8 563.687 334.133 565.287 332C566.887 329.333 568.754 327.2 570.888 325.6C573.554 324 576.221 322.667 578.888 321.6C582.088 320.533 585.554 320 589.287 320H590.088L590.888 320.8ZM590.888 298.4L590.088 299.2H589.287C585.554 299.2 582.088 298.667 578.888 297.6C576.221 296.533 573.554 295.2 570.888 293.6C568.754 292 566.887 290.133 565.287 288C563.687 285.333 562.354 282.667 561.287 280C560.221 276.8 559.688 273.333 559.688 269.6V268.8L560.487 268H590.888V298.4ZM587.688 298.4V268H618.088L618.888 268.8V269.6C618.888 273.333 618.354 276.8 617.287 280C616.221 282.667 614.887 285.333 613.287 288C611.687 290.133 609.554 292 606.888 293.6C604.754 295.2 602.088 296.533 598.888 297.6C596.221 298.667 593.021 299.2 589.287 299.2H588.487L587.688 298.4ZM587.688 240.8L588.487 240H589.287C593.021 240 596.221 240.533 598.888 241.6C602.088 242.667 604.754 244 606.888 245.6C609.554 247.2 611.687 249.333 613.287 252C614.887 254.133 616.221 256.8 617.287 260C618.354 262.667 618.888 265.867 618.888 269.6V270.4L618.088 271.2H587.688V240.8ZM590.888 240.8V271.2H560.487L559.688 270.4V269.6C559.688 265.867 560.221 262.667 561.287 260C562.354 256.8 563.687 254.133 565.287 252C566.887 249.333 568.754 247.2 570.888 245.6C573.554 244 576.221 242.667 578.888 241.6C582.088 240.533 585.554 240 589.287 240H590.088L590.888 240.8ZM590.888 218.4L590.088 219.2H589.287C585.554 219.2 582.088 218.667 578.888 217.6C576.221 216.533 573.554 215.2 570.888 213.6C568.754 212 566.887 210.133 565.287 208C563.687 205.333 562.354 202.667 561.287 200C560.221 196.8 559.688 193.333 559.688 189.6V188.8L560.487 188H590.888V218.4ZM587.688 218.4V188H618.088L618.888 188.8V189.6C618.888 193.333 618.354 196.8 617.287 200C616.221 202.667 614.887 205.333 613.287 208C611.687 210.133 609.554 212 606.888 213.6C604.754 215.2 602.088 216.533 598.888 217.6C596.221 218.667 593.021 219.2 589.287 219.2H588.487L587.688 218.4ZM587.688 160.8L588.487 160H589.287C593.021 160 596.221 160.533 598.888 161.6C602.088 162.667 604.754 164 606.888 165.6C609.554 167.2 611.687 169.333 613.287 172C614.887 174.133 616.221 176.8 617.287 180C618.354 182.667 618.888 185.867 618.888 189.6V190.4L618.088 191.2H587.688V160.8ZM590.888 160.8V191.2H560.487L559.688 190.4V189.6C559.688 185.867 560.221 182.667 561.287 180C562.354 176.8 563.687 174.133 565.287 172C566.887 169.333 568.754 167.2 570.888 165.6C573.554 164 576.221 162.667 578.888 161.6C582.088 160.533 585.554 160 589.287 160H590.088L590.888 160.8ZM590.888 138.4L590.088 139.2H589.287C585.554 139.2 582.088 138.667 578.888 137.6C576.221 136.533 573.554 135.2 570.888 133.6C568.754 132 566.887 130.133 565.287 128C563.687 125.333 562.354 122.667 561.287 120C560.221 116.8 559.688 113.333 559.688 109.6V108.8L560.487 108H590.888V138.4ZM587.688 138.4V108H618.088L618.888 108.8V109.6C618.888 113.333 618.354 116.8 617.287 120C616.221 122.667 614.887 125.333 613.287 128C611.687 130.133 609.554 132 606.888 133.6C604.754 135.2 602.088 136.533 598.888 137.6C596.221 138.667 593.021 139.2 589.287 139.2H588.487L587.688 138.4ZM587.688 80.8L588.487 80H589.287C593.021 80 596.221 80.5333 598.888 81.6C602.088 82.6667 604.754 84 606.888 85.6C609.554 87.2 611.687 89.3333 613.287 92C614.887 94.1333 616.221 96.8 617.287 100C618.354 102.667 618.888 105.867 618.888 109.6V110.4L618.088 111.2H587.688V80.8ZM590.888 80.8V111.2H560.487L559.688 110.4V109.6C559.688 105.867 560.221 102.667 561.287 100C562.354 96.8 563.687 94.1333 565.287 92C566.887 89.3333 568.754 87.2 570.888 85.6C573.554 84 576.221 82.6667 578.888 81.6C582.088 80.5333 585.554 80 589.287 80H590.088L590.888 80.8ZM590.888 58.4L590.088 59.2H589.287C585.554 59.2 582.088 58.6667 578.888 57.6C576.221 56.5333 573.554 55.2 570.888 53.6C568.754 52 566.887 50.1333 565.287 48C563.687 45.3333 562.354 42.6667 561.287 40C560.221 36.8 559.688 33.3333 559.688 29.6V28.8L560.487 28H590.888V58.4ZM587.688 58.4V28H618.088L618.888 28.8V29.6C618.888 33.3333 618.354 36.8 617.287 40C616.221 42.6667 614.887 45.3333 613.287 48C611.687 50.1333 609.554 52 606.888 53.6C604.754 55.2 602.088 56.5333 598.888 57.6C596.221 58.6667 593.021 59.2 589.287 59.2H588.487L587.688 58.4ZM587.688 0.79999L588.487 0H589.287C593.021 0 596.221 0.533327 598.888 1.59998C602.088 2.66666 604.754 4 606.888 5.59998C609.554 7.19999 611.687 9.33332 613.287 12C614.887 14.1333 616.221 16.8 617.287 20C618.354 22.6666 618.888 25.8667 618.888 29.6V30.4L618.088 31.2H587.688V0.79999ZM590.888 0.79999V31.2H560.487L559.688 30.4V29.6C559.688 25.8667 560.221 22.6666 561.287 20C562.354 16.8 563.687 14.1333 565.287 12C566.887 9.33332 568.754 7.19999 570.888 5.59998C573.554 4 576.221 2.66666 578.888 1.59998C582.088 0.533327 585.554 0 589.287 0H590.088L590.888 0.79999ZM670.888 458.4L670.088 459.2H669.287C665.554 459.2 662.088 458.667 658.888 457.6C656.221 456.533 653.554 455.2 650.888 453.6C648.754 452 646.888 450.133 645.288 448C643.688 445.333 642.354 442.667 641.287 440C640.221 436.8 639.688 433.333 639.688 429.6V428.8L640.487 428H670.888V458.4ZM667.688 458.4V428H698.088L698.888 428.8V429.6C698.888 433.333 698.354 436.8 697.288 440C696.221 442.667 694.887 445.333 693.287 448C691.687 450.133 689.554 452 686.888 453.6C684.754 455.2 682.088 456.533 678.888 457.6C676.221 458.667 673.021 459.2 669.287 459.2H668.487L667.688 458.4ZM667.688 400.8L668.487 400H669.287C673.021 400 676.221 400.533 678.888 401.6C682.088 402.667 684.754 404 686.888 405.6C689.554 407.2 691.687 409.333 693.287 412C694.887 414.133 696.221 416.8 697.288 420C698.354 422.667 698.888 425.867 698.888 429.6V430.4L698.088 431.2H667.688V400.8ZM670.888 400.8V431.2H640.487L639.688 430.4V429.6C639.688 425.867 640.221 422.667 641.287 420C642.354 416.8 643.688 414.133 645.288 412C646.888 409.333 648.754 407.2 650.888 405.6C653.554 404 656.221 402.667 658.888 401.6C662.088 400.533 665.554 400 669.287 400H670.088L670.888 400.8ZM750.888 458.4L750.088 459.2H749.288C745.554 459.2 742.088 458.667 738.888 457.6C736.221 456.533 733.554 455.2 730.888 453.6C728.754 452 726.888 450.133 725.288 448C723.688 445.333 722.354 442.667 721.288 440C720.221 436.8 719.688 433.333 719.688 429.6V428.8L720.487 428H750.888V458.4ZM747.688 458.4V428H778.088L778.888 428.8V429.6C778.888 433.333 778.354 436.8 777.288 440C776.221 442.667 774.888 445.333 773.288 448C771.688 450.133 769.554 452 766.888 453.6C764.754 455.2 762.088 456.533 758.888 457.6C756.221 458.667 753.021 459.2 749.288 459.2H748.487L747.688 458.4ZM747.688 400.8L748.487 400H749.288C753.021 400 756.221 400.533 758.888 401.6C762.088 402.667 764.754 404 766.888 405.6C769.554 407.2 771.688 409.333 773.288 412C774.888 414.133 776.221 416.8 777.288 420C778.354 422.667 778.888 425.867 778.888 429.6V430.4L778.088 431.2H747.688V400.8ZM750.888 400.8V431.2H720.487L719.688 430.4V429.6C719.688 425.867 720.221 422.667 721.288 420C722.354 416.8 723.688 414.133 725.288 412C726.888 409.333 728.754 407.2 730.888 405.6C733.554 404 736.221 402.667 738.888 401.6C742.088 400.533 745.554 400 749.288 400H750.088L750.888 400.8ZM830.888 458.4L830.088 459.2H829.288C825.554 459.2 822.088 458.667 818.888 457.6C816.221 456.533 813.554 455.2 810.888 453.6C808.754 452 806.888 450.133 805.288 448C803.688 445.333 802.354 442.667 801.288 440C800.221 436.8 799.688 433.333 799.688 429.6V428.8L800.488 428H830.888V458.4ZM827.688 458.4V428H858.088L858.888 428.8V429.6C858.888 433.333 858.354 436.8 857.288 440C856.221 442.667 854.888 445.333 853.288 448C851.688 450.133 849.554 452 846.888 453.6C844.754 455.2 842.088 456.533 838.888 457.6C836.221 458.667 833.021 459.2 829.288 459.2H828.488L827.688 458.4ZM827.688 400.8L828.488 400H829.288C833.021 400 836.221 400.533 838.888 401.6C842.088 402.667 844.754 404 846.888 405.6C849.554 407.2 851.688 409.333 853.288 412C854.888 414.133 856.221 416.8 857.288 420C858.354 422.667 858.888 425.867 858.888 429.6V430.4L858.088 431.2H827.688V400.8ZM830.888 400.8V431.2H800.488L799.688 430.4V429.6C799.688 425.867 800.221 422.667 801.288 420C802.354 416.8 803.688 414.133 805.288 412C806.888 409.333 808.754 407.2 810.888 405.6C813.554 404 816.221 402.667 818.888 401.6C822.088 400.533 825.554 400 829.288 400H830.088L830.888 400.8Z" fill="currentColor"/>
<path d="M990.575 378.4L989.775 379.2H988.975C985.242 379.2 981.775 378.667 978.575 377.6C975.908 376.533 973.242 375.2 970.575 373.6C968.442 372 966.575 370.133 964.975 368C963.375 365.333 962.042 362.667 960.975 360C959.908 356.8 959.375 353.333 959.375 349.6V348.8L960.175 348H990.575V378.4ZM987.375 378.4V348H1017.78L1018.58 348.8V349.6C1018.58 353.333 1018.04 356.8 1016.97 360C1015.91 362.667 1014.57 365.333 1012.97 368C1011.37 370.133 1009.24 372 1006.58 373.6C1004.44 375.2 1001.78 376.533 998.575 377.6C995.908 378.667 992.708 379.2 988.975 379.2H988.175L987.375 378.4ZM987.375 320.8L988.175 320H988.975C992.708 320 995.908 320.533 998.575 321.6C1001.78 322.667 1004.44 324 1006.58 325.6C1009.24 327.2 1011.37 329.333 1012.97 332C1014.57 334.133 1015.91 336.8 1016.97 340C1018.04 342.667 1018.58 345.867 1018.58 349.6V350.4L1017.78 351.2H987.375V320.8ZM990.575 320.8V351.2H960.175L959.375 350.4V349.6C959.375 345.867 959.908 342.667 960.975 340C962.042 336.8 963.375 334.133 964.975 332C966.575 329.333 968.442 327.2 970.575 325.6C973.242 324 975.908 322.667 978.575 321.6C981.775 320.533 985.242 320 988.975 320H989.775L990.575 320.8ZM990.575 298.4L989.775 299.2H988.975C985.242 299.2 981.775 298.667 978.575 297.6C975.908 296.533 973.242 295.2 970.575 293.6C968.442 292 966.575 290.133 964.975 288C963.375 285.333 962.042 282.667 960.975 280C959.908 276.8 959.375 273.333 959.375 269.6V268.8L960.175 268H990.575V298.4ZM987.375 298.4V268H1017.78L1018.58 268.8V269.6C1018.58 273.333 1018.04 276.8 1016.97 280C1015.91 282.667 1014.57 285.333 1012.97 288C1011.37 290.133 1009.24 292 1006.58 293.6C1004.44 295.2 1001.78 296.533 998.575 297.6C995.908 298.667 992.708 299.2 988.975 299.2H988.175L987.375 298.4ZM987.375 240.8L988.175 240H988.975C992.708 240 995.908 240.533 998.575 241.6C1001.78 242.667 1004.44 244 1006.58 245.6C1009.24 247.2 1011.37 249.333 1012.97 252C1014.57 254.133 1015.91 256.8 1016.97 260C1018.04 262.667 1018.58 265.867 1018.58 269.6V270.4L1017.78 271.2H987.375V240.8ZM990.575 240.8V271.2H960.175L959.375 270.4V269.6C959.375 265.867 959.908 262.667 960.975 260C962.042 256.8 963.375 254.133 964.975 252C966.575 249.333 968.442 247.2 970.575 245.6C973.242 244 975.908 242.667 978.575 241.6C981.775 240.533 985.242 240 988.975 240H989.775L990.575 240.8ZM990.575 218.4L989.775 219.2H988.975C985.242 219.2 981.775 218.667 978.575 217.6C975.908 216.533 973.242 215.2 970.575 213.6C968.442 212 966.575 210.133 964.975 208C963.375 205.333 962.042 202.667 960.975 200C959.908 196.8 959.375 193.333 959.375 189.6V188.8L960.175 188H990.575V218.4ZM987.375 218.4V188H1017.78L1018.58 188.8V189.6C1018.58 193.333 1018.04 196.8 1016.97 200C1015.91 202.667 1014.57 205.333 1012.97 208C1011.37 210.133 1009.24 212 1006.58 213.6C1004.44 215.2 1001.78 216.533 998.575 217.6C995.908 218.667 992.708 219.2 988.975 219.2H988.175L987.375 218.4ZM987.375 160.8L988.175 160H988.975C992.708 160 995.908 160.533 998.575 161.6C1001.78 162.667 1004.44 164 1006.58 165.6C1009.24 167.2 1011.37 169.333 1012.97 172C1014.57 174.133 1015.91 176.8 1016.97 180C1018.04 182.667 1018.58 185.867 1018.58 189.6V190.4L1017.78 191.2H987.375V160.8ZM990.575 160.8V191.2H960.175L959.375 190.4V189.6C959.375 185.867 959.908 182.667 960.975 180C962.042 176.8 963.375 174.133 964.975 172C966.575 169.333 968.442 167.2 970.575 165.6C973.242 164 975.908 162.667 978.575 161.6C981.775 160.533 985.242 160 988.975 160H989.775L990.575 160.8ZM990.575 138.4L989.775 139.2H988.975C985.242 139.2 981.775 138.667 978.575 137.6C975.908 136.533 973.242 135.2 970.575 133.6C968.442 132 966.575 130.133 964.975 128C963.375 125.333 962.042 122.667 960.975 120C959.908 116.8 959.375 113.333 959.375 109.6V108.8L960.175 108H990.575V138.4ZM987.375 138.4V108H1017.78L1018.58 108.8V109.6C1018.58 113.333 1018.04 116.8 1016.97 120C1015.91 122.667 1014.57 125.333 1012.97 128C1011.37 130.133 1009.24 132 1006.58 133.6C1004.44 135.2 1001.78 136.533 998.575 137.6C995.908 138.667 992.708 139.2 988.975 139.2H988.175L987.375 138.4ZM987.375 80.8L988.175 80H988.975C992.708 80 995.908 80.5333 998.575 81.6C1001.78 82.6667 1004.44 84 1006.58 85.6C1009.24 87.2 1011.37 89.3333 1012.97 92C1014.57 94.1333 1015.91 96.8 1016.97 100C1018.04 102.667 1018.58 105.867 1018.58 109.6V110.4L1017.78 111.2H987.375V80.8ZM990.575 80.8V111.2H960.175L959.375 110.4V109.6C959.375 105.867 959.908 102.667 960.975 100C962.042 96.8 963.375 94.1333 964.975 92C966.575 89.3333 968.442 87.2 970.575 85.6C973.242 84 975.908 82.6667 978.575 81.6C981.775 80.5333 985.242 80 988.975 80H989.775L990.575 80.8ZM990.575 58.4L989.775 59.2H988.975C985.242 59.2 981.775 58.6667 978.575 57.6C975.908 56.5333 973.242 55.2 970.575 53.6C968.442 52 966.575 50.1333 964.975 48C963.375 45.3333 962.042 42.6667 960.975 40C959.908 36.8 959.375 33.3333 959.375 29.6V28.8L960.175 28H990.575V58.4ZM987.375 58.4V28H1017.78L1018.58 28.8V29.6C1018.58 33.3333 1018.04 36.8 1016.97 40C1015.91 42.6667 1014.57 45.3333 1012.97 48C1011.37 50.1333 1009.24 52 1006.58 53.6C1004.44 55.2 1001.78 56.5333 998.575 57.6C995.908 58.6667 992.708 59.2 988.975 59.2H988.175L987.375 58.4ZM987.375 0.79999L988.175 0H988.975C992.708 0 995.908 0.533327 998.575 1.59998C1001.78 2.66666 1004.44 4 1006.58 5.59998C1009.24 7.19999 1011.37 9.33332 1012.97 12C1014.57 14.1333 1015.91 16.8 1016.97 20C1018.04 22.6666 1018.58 25.8667 1018.58 29.6V30.4L1017.78 31.2H987.375V0.79999ZM990.575 0.79999V31.2H960.175L959.375 30.4V29.6C959.375 25.8667 959.908 22.6666 960.975 20C962.042 16.8 963.375 14.1333 964.975 12C966.575 9.33332 968.442 7.19999 970.575 5.59998C973.242 4 975.908 2.66666 978.575 1.59998C981.775 0.533327 985.242 0 988.975 0H989.775L990.575 0.79999ZM1070.57 458.4L1069.78 459.2H1068.97C1065.24 459.2 1061.77 458.667 1058.57 457.6C1055.91 456.533 1053.24 455.2 1050.57 453.6C1048.44 452 1046.57 450.133 1044.97 448C1043.37 445.333 1042.04 442.667 1040.97 440C1039.91 436.8 1039.38 433.333 1039.38 429.6V428.8L1040.18 428H1070.57V458.4ZM1067.38 458.4V428H1097.78L1098.57 428.8V429.6C1098.57 433.333 1098.04 436.8 1096.97 440C1095.91 442.667 1094.57 445.333 1092.97 448C1091.37 450.133 1089.24 452 1086.57 453.6C1084.44 455.2 1081.77 456.533 1078.57 457.6C1075.91 458.667 1072.71 459.2 1068.97 459.2H1068.18L1067.38 458.4ZM1067.38 400.8L1068.18 400H1068.97C1072.71 400 1075.91 400.533 1078.57 401.6C1081.77 402.667 1084.44 404 1086.57 405.6C1089.24 407.2 1091.37 409.333 1092.97 412C1094.57 414.133 1095.91 416.8 1096.97 420C1098.04 422.667 1098.57 425.867 1098.57 429.6V430.4L1097.78 431.2H1067.38V400.8ZM1070.57 400.8V431.2H1040.18L1039.38 430.4V429.6C1039.38 425.867 1039.91 422.667 1040.97 420C1042.04 416.8 1043.37 414.133 1044.97 412C1046.57 409.333 1048.44 407.2 1050.57 405.6C1053.24 404 1055.91 402.667 1058.57 401.6C1061.77 400.533 1065.24 400 1068.97 400H1069.78L1070.57 400.8ZM1070.57 378.4L1069.78 379.2H1068.97C1065.24 379.2 1061.77 378.667 1058.57 377.6C1055.91 376.533 1053.24 375.2 1050.57 373.6C1048.44 372 1046.57 370.133 1044.97 368C1043.37 365.333 1042.04 362.667 1040.97 360C1039.91 356.8 1039.38 353.333 1039.38 349.6V348.8L1040.18 348H1070.57V378.4ZM1067.38 378.4V348H1097.78L1098.57 348.8V349.6C1098.57 353.333 1098.04 356.8 1096.97 360C1095.91 362.667 1094.57 365.333 1092.97 368C1091.37 370.133 1089.24 372 1086.57 373.6C1084.44 375.2 1081.77 376.533 1078.57 377.6C1075.91 378.667 1072.71 379.2 1068.97 379.2H1068.18L1067.38 378.4ZM1067.38 320.8L1068.18 320H1068.97C1072.71 320 1075.91 320.533 1078.57 321.6C1081.77 322.667 1084.44 324 1086.57 325.6C1089.24 327.2 1091.37 329.333 1092.97 332C1094.57 334.133 1095.91 336.8 1096.97 340C1098.04 342.667 1098.57 345.867 1098.57 349.6V350.4L1097.78 351.2H1067.38V320.8ZM1070.57 320.8V351.2H1040.18L1039.38 350.4V349.6C1039.38 345.867 1039.91 342.667 1040.97 340C1042.04 336.8 1043.37 334.133 1044.97 332C1046.57 329.333 1048.44 327.2 1050.57 325.6C1053.24 324 1055.91 322.667 1058.57 321.6C1061.77 320.533 1065.24 320 1068.97 320H1069.78L1070.57 320.8ZM1070.57 298.4L1069.78 299.2H1068.97C1065.24 299.2 1061.77 298.667 1058.57 297.6C1055.91 296.533 1053.24 295.2 1050.57 293.6C1048.44 292 1046.57 290.133 1044.97 288C1043.37 285.333 1042.04 282.667 1040.97 280C1039.91 276.8 1039.38 273.333 1039.38 269.6V268.8L1040.18 268H1070.57V298.4ZM1067.38 298.4V268H1097.78L1098.57 268.8V269.6C1098.57 273.333 1098.04 276.8 1096.97 280C1095.91 282.667 1094.57 285.333 1092.97 288C1091.37 290.133 1089.24 292 1086.57 293.6C1084.44 295.2 1081.77 296.533 1078.57 297.6C1075.91 298.667 1072.71 299.2 1068.97 299.2H1068.18L1067.38 298.4ZM1067.38 240.8L1068.18 240H1068.97C1072.71 240 1075.91 240.533 1078.57 241.6C1081.77 242.667 1084.44 244 1086.57 245.6C1089.24 247.2 1091.37 249.333 1092.97 252C1094.57 254.133 1095.91 256.8 1096.97 260C1098.04 262.667 1098.57 265.867 1098.57 269.6V270.4L1097.78 271.2H1067.38V240.8ZM1070.57 240.8V271.2H1040.18L1039.38 270.4V269.6C1039.38 265.867 1039.91 262.667 1040.97 260C1042.04 256.8 1043.37 254.133 1044.97 252C1046.57 249.333 1048.44 247.2 1050.57 245.6C1053.24 244 1055.91 242.667 1058.57 241.6C1061.77 240.533 1065.24 240 1068.97 240H1069.78L1070.57 240.8ZM1070.57 218.4L1069.78 219.2H1068.97C1065.24 219.2 1061.77 218.667 1058.57 217.6C1055.91 216.533 1053.24 215.2 1050.57 213.6C1048.44 212 1046.57 210.133 1044.97 208C1043.37 205.333 1042.04 202.667 1040.97 200C1039.91 196.8 1039.38 193.333 1039.38 189.6V188.8L1040.18 188H1070.57V218.4ZM1067.38 218.4V188H1097.78L1098.57 188.8V189.6C1098.57 193.333 1098.04 196.8 1096.97 200C1095.91 202.667 1094.57 205.333 1092.97 208C1091.37 210.133 1089.24 212 1086.57 213.6C1084.44 215.2 1081.77 216.533 1078.57 217.6C1075.91 218.667 1072.71 219.2 1068.97 219.2H1068.18L1067.38 218.4ZM1067.38 160.8L1068.18 160H1068.97C1072.71 160 1075.91 160.533 1078.57 161.6C1081.77 162.667 1084.44 164 1086.57 165.6C1089.24 167.2 1091.37 169.333 1092.97 172C1094.57 174.133 1095.91 176.8 1096.97 180C1098.04 182.667 1098.57 185.867 1098.57 189.6V190.4L1097.78 191.2H1067.38V160.8ZM1070.57 160.8V191.2H1040.18L1039.38 190.4V189.6C1039.38 185.867 1039.91 182.667 1040.97 180C1042.04 176.8 1043.37 174.133 1044.97 172C1046.57 169.333 1048.44 167.2 1050.57 165.6C1053.24 164 1055.91 162.667 1058.57 161.6C1061.77 160.533 1065.24 160 1068.97 160H1069.78L1070.57 160.8ZM1070.57 138.4L1069.78 139.2H1068.97C1065.24 139.2 1061.77 138.667 1058.57 137.6C1055.91 136.533 1053.24 135.2 1050.57 133.6C1048.44 132 1046.57 130.133 1044.97 128C1043.37 125.333 1042.04 122.667 1040.97 120C1039.91 116.8 1039.38 113.333 1039.38 109.6V108.8L1040.18 108H1070.57V138.4ZM1067.38 138.4V108H1097.78L1098.57 108.8V109.6C1098.57 113.333 1098.04 116.8 1096.97 120C1095.91 122.667 1094.57 125.333 1092.97 128C1091.37 130.133 1089.24 132 1086.57 133.6C1084.44 135.2 1081.77 136.533 1078.57 137.6C1075.91 138.667 1072.71 139.2 1068.97 139.2H1068.18L1067.38 138.4ZM1067.38 80.8L1068.18 80H1068.97C1072.71 80 1075.91 80.5333 1078.57 81.6C1081.77 82.6667 1084.44 84 1086.57 85.6C1089.24 87.2 1091.37 89.3333 1092.97 92C1094.57 94.1333 1095.91 96.8 1096.97 100C1098.04 102.667 1098.57 105.867 1098.57 109.6V110.4L1097.78 111.2H1067.38V80.8ZM1070.57 80.8V111.2H1040.18L1039.38 110.4V109.6C1039.38 105.867 1039.91 102.667 1040.97 100C1042.04 96.8 1043.37 94.1333 1044.97 92C1046.57 89.3333 1048.44 87.2 1050.57 85.6C1053.24 84 1055.91 82.6667 1058.57 81.6C1061.77 80.5333 1065.24 80 1068.97 80H1069.78L1070.57 80.8ZM1070.57 58.4L1069.78 59.2H1068.97C1065.24 59.2 1061.77 58.6667 1058.57 57.6C1055.91 56.5333 1053.24 55.2 1050.57 53.6C1048.44 52 1046.57 50.1333 1044.97 48C1043.37 45.3333 1042.04 42.6667 1040.97 40C1039.91 36.8 1039.38 33.3333 1039.38 29.6V28.8L1040.18 28H1070.57V58.4ZM1067.38 58.4V28H1097.78L1098.57 28.8V29.6C1098.57 33.3333 1098.04 36.8 1096.97 40C1095.91 42.6667 1094.57 45.3333 1092.97 48C1091.37 50.1333 1089.24 52 1086.57 53.6C1084.44 55.2 1081.77 56.5333 1078.57 57.6C1075.91 58.6667 1072.71 59.2 1068.97 59.2H1068.18L1067.38 58.4ZM1067.38 0.79999L1068.18 0H1068.97C1072.71 0 1075.91 0.533327 1078.57 1.59998C1081.77 2.66666 1084.44 4 1086.57 5.59998C1089.24 7.19999 1091.37 9.33332 1092.97 12C1094.57 14.1333 1095.91 16.8 1096.97 20C1098.04 22.6666 1098.57 25.8667 1098.57 29.6V30.4L1097.78 31.2H1067.38V0.79999ZM1070.57 0.79999V31.2H1040.18L1039.38 30.4V29.6C1039.38 25.8667 1039.91 22.6666 1040.97 20C1042.04 16.8 1043.37 14.1333 1044.97 12C1046.57 9.33332 1048.44 7.19999 1050.57 5.59998C1053.24 4 1055.91 2.66666 1058.57 1.59998C1061.77 0.533327 1065.24 0 1068.97 0H1069.78L1070.57 0.79999ZM1150.57 458.4L1149.78 459.2H1148.97C1145.24 459.2 1141.78 458.667 1138.58 457.6C1135.91 456.533 1133.24 455.2 1130.57 453.6C1128.44 452 1126.57 450.133 1124.97 448C1123.37 445.333 1122.04 442.667 1120.97 440C1119.91 436.8 1119.38 433.333 1119.38 429.6V428.8L1120.18 428H1150.57V458.4ZM1147.38 458.4V428H1177.78L1178.57 428.8V429.6C1178.57 433.333 1178.04 436.8 1176.97 440C1175.91 442.667 1174.57 445.333 1172.97 448C1171.37 450.133 1169.24 452 1166.57 453.6C1164.44 455.2 1161.78 456.533 1158.58 457.6C1155.91 458.667 1152.71 459.2 1148.97 459.2H1148.18L1147.38 458.4ZM1147.38 400.8L1148.18 400H1148.97C1152.71 400 1155.91 400.533 1158.58 401.6C1161.78 402.667 1164.44 404 1166.57 405.6C1169.24 407.2 1171.37 409.333 1172.97 412C1174.57 414.133 1175.91 416.8 1176.97 420C1178.04 422.667 1178.57 425.867 1178.57 429.6V430.4L1177.78 431.2H1147.38V400.8ZM1150.57 400.8V431.2H1120.18L1119.38 430.4V429.6C1119.38 425.867 1119.91 422.667 1120.97 420C1122.04 416.8 1123.37 414.133 1124.97 412C1126.57 409.333 1128.44 407.2 1130.57 405.6C1133.24 404 1135.91 402.667 1138.58 401.6C1141.78 400.533 1145.24 400 1148.97 400H1149.78L1150.57 400.8ZM1230.58 458.4L1229.78 459.2H1228.97C1225.24 459.2 1221.77 458.667 1218.57 457.6C1215.91 456.533 1213.24 455.2 1210.58 453.6C1208.44 452 1206.57 450.133 1204.97 448C1203.37 445.333 1202.04 442.667 1200.97 440C1199.91 436.8 1199.38 433.333 1199.38 429.6V428.8L1200.18 428H1230.58V458.4ZM1227.38 458.4V428H1257.78L1258.58 428.8V429.6C1258.58 433.333 1258.04 436.8 1256.97 440C1255.91 442.667 1254.57 445.333 1252.97 448C1251.37 450.133 1249.24 452 1246.57 453.6C1244.44 455.2 1241.78 456.533 1238.58 457.6C1235.91 458.667 1232.71 459.2 1228.97 459.2H1228.18L1227.38 458.4ZM1227.38 400.8L1228.18 400H1228.97C1232.71 400 1235.91 400.533 1238.58 401.6C1241.78 402.667 1244.44 404 1246.57 405.6C1249.24 407.2 1251.37 409.333 1252.97 412C1254.57 414.133 1255.91 416.8 1256.97 420C1258.04 422.667 1258.58 425.867 1258.58 429.6V430.4L1257.78 431.2H1227.38V400.8ZM1230.58 400.8V431.2H1200.18L1199.38 430.4V429.6C1199.38 425.867 1199.91 422.667 1200.97 420C1202.04 416.8 1203.37 414.133 1204.97 412C1206.57 409.333 1208.44 407.2 1210.58 405.6C1213.24 404 1215.91 402.667 1218.57 401.6C1221.77 400.533 1225.24 400 1228.97 400H1229.78L1230.58 400.8ZM1310.58 378.4L1309.78 379.2H1308.97C1305.24 379.2 1301.77 378.667 1298.57 377.6C1295.91 376.533 1293.24 375.2 1290.58 373.6C1288.44 372 1286.57 370.133 1284.97 368C1283.37 365.333 1282.04 362.667 1280.97 360C1279.91 356.8 1279.38 353.333 1279.38 349.6V348.8L1280.18 348H1310.58V378.4ZM1307.38 378.4V348H1337.78L1338.58 348.8V349.6C1338.58 353.333 1338.04 356.8 1336.97 360C1335.91 362.667 1334.57 365.333 1332.97 368C1331.37 370.133 1329.24 372 1326.58 373.6C1324.44 375.2 1321.77 376.533 1318.57 377.6C1315.91 378.667 1312.71 379.2 1308.97 379.2H1308.18L1307.38 378.4ZM1307.38 320.8L1308.18 320H1308.97C1312.71 320 1315.91 320.533 1318.57 321.6C1321.77 322.667 1324.44 324 1326.58 325.6C1329.24 327.2 1331.37 329.333 1332.97 332C1334.57 334.133 1335.91 336.8 1336.97 340C1338.04 342.667 1338.58 345.867 1338.58 349.6V350.4L1337.78 351.2H1307.38V320.8ZM1310.58 320.8V351.2H1280.18L1279.38 350.4V349.6C1279.38 345.867 1279.91 342.667 1280.97 340C1282.04 336.8 1283.37 334.133 1284.97 332C1286.57 329.333 1288.44 327.2 1290.58 325.6C1293.24 324 1295.91 322.667 1298.57 321.6C1301.77 320.533 1305.24 320 1308.97 320H1309.78L1310.58 320.8ZM1310.58 298.4L1309.78 299.2H1308.97C1305.24 299.2 1301.77 298.667 1298.57 297.6C1295.91 296.533 1293.24 295.2 1290.58 293.6C1288.44 292 1286.57 290.133 1284.97 288C1283.37 285.333 1282.04 282.667 1280.97 280C1279.91 276.8 1279.38 273.333 1279.38 269.6V268.8L1280.18 268H1310.58V298.4ZM1307.38 298.4V268H1337.78L1338.58 268.8V269.6C1338.58 273.333 1338.04 276.8 1336.97 280C1335.91 282.667 1334.57 285.333 1332.97 288C1331.37 290.133 1329.24 292 1326.58 293.6C1324.44 295.2 1321.77 296.533 1318.57 297.6C1315.91 298.667 1312.71 299.2 1308.97 299.2H1308.18L1307.38 298.4ZM1307.38 240.8L1308.18 240H1308.97C1312.71 240 1315.91 240.533 1318.57 241.6C1321.77 242.667 1324.44 244 1326.58 245.6C1329.24 247.2 1331.37 249.333 1332.97 252C1334.57 254.133 1335.91 256.8 1336.97 260C1338.04 262.667 1338.58 265.867 1338.58 269.6V270.4L1337.78 271.2H1307.38V240.8ZM1310.58 240.8V271.2H1280.18L1279.38 270.4V269.6C1279.38 265.867 1279.91 262.667 1280.97 260C1282.04 256.8 1283.37 254.133 1284.97 252C1286.57 249.333 1288.44 247.2 1290.58 245.6C1293.24 244 1295.91 242.667 1298.57 241.6C1301.77 240.533 1305.24 240 1308.97 240H1309.78L1310.58 240.8ZM1310.58 218.4L1309.78 219.2H1308.97C1305.24 219.2 1301.77 218.667 1298.57 217.6C1295.91 216.533 1293.24 215.2 1290.58 213.6C1288.44 212 1286.57 210.133 1284.97 208C1283.37 205.333 1282.04 202.667 1280.97 200C1279.91 196.8 1279.38 193.333 1279.38 189.6V188.8L1280.18 188H1310.58V218.4ZM1307.38 218.4V188H1337.78L1338.58 188.8V189.6C1338.58 193.333 1338.04 196.8 1336.97 200C1335.91 202.667 1334.57 205.333 1332.97 208C1331.37 210.133 1329.24 212 1326.58 213.6C1324.44 215.2 1321.77 216.533 1318.57 217.6C1315.91 218.667 1312.71 219.2 1308.97 219.2H1308.18L1307.38 218.4ZM1307.38 160.8L1308.18 160H1308.97C1312.71 160 1315.91 160.533 1318.57 161.6C1321.77 162.667 1324.44 164 1326.58 165.6C1329.24 167.2 1331.37 169.333 1332.97 172C1334.57 174.133 1335.91 176.8 1336.97 180C1338.04 182.667 1338.58 185.867 1338.58 189.6V190.4L1337.78 191.2H1307.38V160.8ZM1310.58 160.8V191.2H1280.18L1279.38 190.4V189.6C1279.38 185.867 1279.91 182.667 1280.97 180C1282.04 176.8 1283.37 174.133 1284.97 172C1286.57 169.333 1288.44 167.2 1290.58 165.6C1293.24 164 1295.91 162.667 1298.57 161.6C1301.77 160.533 1305.24 160 1308.97 160H1309.78L1310.58 160.8ZM1310.58 138.4L1309.78 139.2H1308.97C1305.24 139.2 1301.77 138.667 1298.57 137.6C1295.91 136.533 1293.24 135.2 1290.58 133.6C1288.44 132 1286.57 130.133 1284.97 128C1283.37 125.333 1282.04 122.667 1280.97 120C1279.91 116.8 1279.38 113.333 1279.38 109.6V108.8L1280.18 108H1310.58V138.4ZM1307.38 138.4V108H1337.78L1338.58 108.8V109.6C1338.58 113.333 1338.04 116.8 1336.97 120C1335.91 122.667 1334.57 125.333 1332.97 128C1331.37 130.133 1329.24 132 1326.58 133.6C1324.44 135.2 1321.77 136.533 1318.57 137.6C1315.91 138.667 1312.71 139.2 1308.97 139.2H1308.18L1307.38 138.4ZM1307.38 80.8L1308.18 80H1308.97C1312.71 80 1315.91 80.5333 1318.57 81.6C1321.77 82.6667 1324.44 84 1326.58 85.6C1329.24 87.2 1331.37 89.3333 1332.97 92C1334.57 94.1333 1335.91 96.8 1336.97 100C1338.04 102.667 1338.58 105.867 1338.58 109.6V110.4L1337.78 111.2H1307.38V80.8ZM1310.58 80.8V111.2H1280.18L1279.38 110.4V109.6C1279.38 105.867 1279.91 102.667 1280.97 100C1282.04 96.8 1283.37 94.1333 1284.97 92C1286.57 89.3333 1288.44 87.2 1290.58 85.6C1293.24 84 1295.91 82.6667 1298.57 81.6C1301.77 80.5333 1305.24 80 1308.97 80H1309.78L1310.58 80.8ZM1310.58 58.4L1309.78 59.2H1308.97C1305.24 59.2 1301.77 58.6667 1298.57 57.6C1295.91 56.5333 1293.24 55.2 1290.58 53.6C1288.44 52 1286.57 50.1333 1284.97 48C1283.37 45.3333 1282.04 42.6667 1280.97 40C1279.91 36.8 1279.38 33.3333 1279.38 29.6V28.8L1280.18 28H1310.58V58.4ZM1307.38 58.4V28H1337.78L1338.58 28.8V29.6C1338.58 33.3333 1338.04 36.8 1336.97 40C1335.91 42.6667 1334.57 45.3333 1332.97 48C1331.37 50.1333 1329.24 52 1326.58 53.6C1324.44 55.2 1321.77 56.5333 1318.57 57.6C1315.91 58.6667 1312.71 59.2 1308.97 59.2H1308.18L1307.38 58.4ZM1307.38 0.79999L1308.18 0H1308.97C1312.71 0 1315.91 0.533327 1318.57 1.59998C1321.77 2.66666 1324.44 4 1326.58 5.59998C1329.24 7.19999 1331.37 9.33332 1332.97 12C1334.57 14.1333 1335.91 16.8 1336.97 20C1338.04 22.6666 1338.58 25.8667 1338.58 29.6V30.4L1337.78 31.2H1307.38V0.79999ZM1310.58 0.79999V31.2H1280.18L1279.38 30.4V29.6C1279.38 25.8667 1279.91 22.6666 1280.97 20C1282.04 16.8 1283.37 14.1333 1284.97 12C1286.57 9.33332 1288.44 7.19999 1290.58 5.59998C1293.24 4 1295.91 2.66666 1298.57 1.59998C1301.77 0.533327 1305.24 0 1308.97 0H1309.78L1310.58 0.79999Z" fill="currentColor"/>
<path d="M1470.26 458.4L1469.46 459.2H1468.66C1464.93 459.2 1461.46 458.667 1458.26 457.6C1455.6 456.533 1452.93 455.2 1450.26 453.6C1448.13 452 1446.26 450.133 1444.66 448C1443.06 445.333 1441.73 442.667 1440.66 440C1439.6 436.8 1439.06 433.333 1439.06 429.6V428.8L1439.86 428H1470.26V458.4ZM1467.06 458.4V428H1497.46L1498.26 428.8V429.6C1498.26 433.333 1497.73 436.8 1496.66 440C1495.6 442.667 1494.26 445.333 1492.66 448C1491.06 450.133 1488.93 452 1486.26 453.6C1484.13 455.2 1481.46 456.533 1478.26 457.6C1475.6 458.667 1472.4 459.2 1468.66 459.2H1467.86L1467.06 458.4ZM1467.06 400.8L1467.86 400H1468.66C1472.4 400 1475.6 400.533 1478.26 401.6C1481.46 402.667 1484.13 404 1486.26 405.6C1488.93 407.2 1491.06 409.333 1492.66 412C1494.26 414.133 1495.6 416.8 1496.66 420C1497.73 422.667 1498.26 425.867 1498.26 429.6V430.4L1497.46 431.2H1467.06V400.8ZM1470.26 400.8V431.2H1439.86L1439.06 430.4V429.6C1439.06 425.867 1439.6 422.667 1440.66 420C1441.73 416.8 1443.06 414.133 1444.66 412C1446.26 409.333 1448.13 407.2 1450.26 405.6C1452.93 404 1455.6 402.667 1458.26 401.6C1461.46 400.533 1464.93 400 1468.66 400H1469.46L1470.26 400.8ZM1470.26 378.4L1469.46 379.2H1468.66C1464.93 379.2 1461.46 378.667 1458.26 377.6C1455.6 376.533 1452.93 375.2 1450.26 373.6C1448.13 372 1446.26 370.133 1444.66 368C1443.06 365.333 1441.73 362.667 1440.66 360C1439.6 356.8 1439.06 353.333 1439.06 349.6V348.8L1439.86 348H1470.26V378.4ZM1467.06 378.4V348H1497.46L1498.26 348.8V349.6C1498.26 353.333 1497.73 356.8 1496.66 360C1495.6 362.667 1494.26 365.333 1492.66 368C1491.06 370.133 1488.93 372 1486.26 373.6C1484.13 375.2 1481.46 376.533 1478.26 377.6C1475.6 378.667 1472.4 379.2 1468.66 379.2H1467.86L1467.06 378.4ZM1467.06 320.8L1467.86 320H1468.66C1472.4 320 1475.6 320.533 1478.26 321.6C1481.46 322.667 1484.13 324 1486.26 325.6C1488.93 327.2 1491.06 329.333 1492.66 332C1494.26 334.133 1495.6 336.8 1496.66 340C1497.73 342.667 1498.26 345.867 1498.26 349.6V350.4L1497.46 351.2H1467.06V320.8ZM1470.26 320.8V351.2H1439.86L1439.06 350.4V349.6C1439.06 345.867 1439.6 342.667 1440.66 340C1441.73 336.8 1443.06 334.133 1444.66 332C1446.26 329.333 1448.13 327.2 1450.26 325.6C1452.93 324 1455.6 322.667 1458.26 321.6C1461.46 320.533 1464.93 320 1468.66 320H1469.46L1470.26 320.8ZM1470.26 298.4L1469.46 299.2H1468.66C1464.93 299.2 1461.46 298.667 1458.26 297.6C1455.6 296.533 1452.93 295.2 1450.26 293.6C1448.13 292 1446.26 290.133 1444.66 288C1443.06 285.333 1441.73 282.667 1440.66 280C1439.6 276.8 1439.06 273.333 1439.06 269.6V268.8L1439.86 268H1470.26V298.4ZM1467.06 298.4V268H1497.46L1498.26 268.8V269.6C1498.26 273.333 1497.73 276.8 1496.66 280C1495.6 282.667 1494.26 285.333 1492.66 288C1491.06 290.133 1488.93 292 1486.26 293.6C1484.13 295.2 1481.46 296.533 1478.26 297.6C1475.6 298.667 1472.4 299.2 1468.66 299.2H1467.86L1467.06 298.4ZM1467.06 240.8L1467.86 240H1468.66C1472.4 240 1475.6 240.533 1478.26 241.6C1481.46 242.667 1484.13 244 1486.26 245.6C1488.93 247.2 1491.06 249.333 1492.66 252C1494.26 254.133 1495.6 256.8 1496.66 260C1497.73 262.667 1498.26 265.867 1498.26 269.6V270.4L1497.46 271.2H1467.06V240.8ZM1470.26 240.8V271.2H1439.86L1439.06 270.4V269.6C1439.06 265.867 1439.6 262.667 1440.66 260C1441.73 256.8 1443.06 254.133 1444.66 252C1446.26 249.333 1448.13 247.2 1450.26 245.6C1452.93 244 1455.6 242.667 1458.26 241.6C1461.46 240.533 1464.93 240 1468.66 240H1469.46L1470.26 240.8ZM1470.26 218.4L1469.46 219.2H1468.66C1464.93 219.2 1461.46 218.667 1458.26 217.6C1455.6 216.533 1452.93 215.2 1450.26 213.6C1448.13 212 1446.26 210.133 1444.66 208C1443.06 205.333 1441.73 202.667 1440.66 200C1439.6 196.8 1439.06 193.333 1439.06 189.6V188.8L1439.86 188H1470.26V218.4ZM1467.06 218.4V188H1497.46L1498.26 188.8V189.6C1498.26 193.333 1497.73 196.8 1496.66 200C1495.6 202.667 1494.26 205.333 1492.66 208C1491.06 210.133 1488.93 212 1486.26 213.6C1484.13 215.2 1481.46 216.533 1478.26 217.6C1475.6 218.667 1472.4 219.2 1468.66 219.2H1467.86L1467.06 218.4ZM1467.06 160.8L1467.86 160H1468.66C1472.4 160 1475.6 160.533 1478.26 161.6C1481.46 162.667 1484.13 164 1486.26 165.6C1488.93 167.2 1491.06 169.333 1492.66 172C1494.26 174.133 1495.6 176.8 1496.66 180C1497.73 182.667 1498.26 185.867 1498.26 189.6V190.4L1497.46 191.2H1467.06V160.8ZM1470.26 160.8V191.2H1439.86L1439.06 190.4V189.6C1439.06 185.867 1439.6 182.667 1440.66 180C1441.73 176.8 1443.06 174.133 1444.66 172C1446.26 169.333 1448.13 167.2 1450.26 165.6C1452.93 164 1455.6 162.667 1458.26 161.6C1461.46 160.533 1464.93 160 1468.66 160H1469.46L1470.26 160.8ZM1470.26 138.4L1469.46 139.2H1468.66C1464.93 139.2 1461.46 138.667 1458.26 137.6C1455.6 136.533 1452.93 135.2 1450.26 133.6C1448.13 132 1446.26 130.133 1444.66 128C1443.06 125.333 1441.73 122.667 1440.66 120C1439.6 116.8 1439.06 113.333 1439.06 109.6V108.8L1439.86 108H1470.26V138.4ZM1467.06 138.4V108H1497.46L1498.26 108.8V109.6C1498.26 113.333 1497.73 116.8 1496.66 120C1495.6 122.667 1494.26 125.333 1492.66 128C1491.06 130.133 1488.93 132 1486.26 133.6C1484.13 135.2 1481.46 136.533 1478.26 137.6C1475.6 138.667 1472.4 139.2 1468.66 139.2H1467.86L1467.06 138.4ZM1467.06 80.8L1467.86 80H1468.66C1472.4 80 1475.6 80.5333 1478.26 81.6C1481.46 82.6667 1484.13 84 1486.26 85.6C1488.93 87.2 1491.06 89.3333 1492.66 92C1494.26 94.1333 1495.6 96.8 1496.66 100C1497.73 102.667 1498.26 105.867 1498.26 109.6V110.4L1497.46 111.2H1467.06V80.8ZM1470.26 80.8V111.2H1439.86L1439.06 110.4V109.6C1439.06 105.867 1439.6 102.667 1440.66 100C1441.73 96.8 1443.06 94.1333 1444.66 92C1446.26 89.3333 1448.13 87.2 1450.26 85.6C1452.93 84 1455.6 82.6667 1458.26 81.6C1461.46 80.5333 1464.93 80 1468.66 80H1469.46L1470.26 80.8ZM1470.26 58.4L1469.46 59.2H1468.66C1464.93 59.2 1461.46 58.6667 1458.26 57.6C1455.6 56.5333 1452.93 55.2 1450.26 53.6C1448.13 52 1446.26 50.1333 1444.66 48C1443.06 45.3333 1441.73 42.6667 1440.66 40C1439.6 36.8 1439.06 33.3333 1439.06 29.6V28.8L1439.86 28H1470.26V58.4ZM1467.06 58.4V28H1497.46L1498.26 28.8V29.6C1498.26 33.3333 1497.73 36.8 1496.66 40C1495.6 42.6667 1494.26 45.3333 1492.66 48C1491.06 50.1333 1488.93 52 1486.26 53.6C1484.13 55.2 1481.46 56.5333 1478.26 57.6C1475.6 58.6667 1472.4 59.2 1468.66 59.2H1467.86L1467.06 58.4ZM1467.06 0.79999L1467.86 0H1468.66C1472.4 0 1475.6 0.533327 1478.26 1.59998C1481.46 2.66666 1484.13 4 1486.26 5.59998C1488.93 7.19999 1491.06 9.33332 1492.66 12C1494.26 14.1333 1495.6 16.8 1496.66 20C1497.73 22.6666 1498.26 25.8667 1498.26 29.6V30.4L1497.46 31.2H1467.06V0.79999ZM1470.26 0.79999V31.2H1439.86L1439.06 30.4V29.6C1439.06 25.8667 1439.6 22.6666 1440.66 20C1441.73 16.8 1443.06 14.1333 1444.66 12C1446.26 9.33332 1448.13 7.19999 1450.26 5.59998C1452.93 4 1455.6 2.66666 1458.26 1.59998C1461.46 0.533327 1464.93 0 1468.66 0H1469.46L1470.26 0.79999ZM1550.26 458.4L1549.46 459.2H1548.66C1544.93 459.2 1541.46 458.667 1538.26 457.6C1535.6 456.533 1532.93 455.2 1530.26 453.6C1528.13 452 1526.26 450.133 1524.66 448C1523.06 445.333 1521.73 442.667 1520.66 440C1519.6 436.8 1519.06 433.333 1519.06 429.6V428.8L1519.86 428H1550.26V458.4ZM1547.06 458.4V428H1577.46L1578.26 428.8V429.6C1578.26 433.333 1577.73 436.8 1576.66 440C1575.6 442.667 1574.26 445.333 1572.66 448C1571.06 450.133 1568.93 452 1566.26 453.6C1564.13 455.2 1561.46 456.533 1558.26 457.6C1555.6 458.667 1552.4 459.2 1548.66 459.2H1547.86L1547.06 458.4ZM1547.06 400.8L1547.86 400H1548.66C1552.4 400 1555.6 400.533 1558.26 401.6C1561.46 402.667 1564.13 404 1566.26 405.6C1568.93 407.2 1571.06 409.333 1572.66 412C1574.26 414.133 1575.6 416.8 1576.66 420C1577.73 422.667 1578.26 425.867 1578.26 429.6V430.4L1577.46 431.2H1547.06V400.8ZM1550.26 400.8V431.2H1519.86L1519.06 430.4V429.6C1519.06 425.867 1519.6 422.667 1520.66 420C1521.73 416.8 1523.06 414.133 1524.66 412C1526.26 409.333 1528.13 407.2 1530.26 405.6C1532.93 404 1535.6 402.667 1538.26 401.6C1541.46 400.533 1544.93 400 1548.66 400H1549.46L1550.26 400.8ZM1550.26 378.4L1549.46 379.2H1548.66C1544.93 379.2 1541.46 378.667 1538.26 377.6C1535.6 376.533 1532.93 375.2 1530.26 373.6C1528.13 372 1526.26 370.133 1524.66 368C1523.06 365.333 1521.73 362.667 1520.66 360C1519.6 356.8 1519.06 353.333 1519.06 349.6V348.8L1519.86 348H1550.26V378.4ZM1547.06 378.4V348H1577.46L1578.26 348.8V349.6C1578.26 353.333 1577.73 356.8 1576.66 360C1575.6 362.667 1574.26 365.333 1572.66 368C1571.06 370.133 1568.93 372 1566.26 373.6C1564.13 375.2 1561.46 376.533 1558.26 377.6C1555.6 378.667 1552.4 379.2 1548.66 379.2H1547.86L1547.06 378.4ZM1547.06 320.8L1547.86 320H1548.66C1552.4 320 1555.6 320.533 1558.26 321.6C1561.46 322.667 1564.13 324 1566.26 325.6C1568.93 327.2 1571.06 329.333 1572.66 332C1574.26 334.133 1575.6 336.8 1576.66 340C1577.73 342.667 1578.26 345.867 1578.26 349.6V350.4L1577.46 351.2H1547.06V320.8ZM1550.26 320.8V351.2H1519.86L1519.06 350.4V349.6C1519.06 345.867 1519.6 342.667 1520.66 340C1521.73 336.8 1523.06 334.133 1524.66 332C1526.26 329.333 1528.13 327.2 1530.26 325.6C1532.93 324 1535.6 322.667 1538.26 321.6C1541.46 320.533 1544.93 320 1548.66 320H1549.46L1550.26 320.8ZM1550.26 298.4L1549.46 299.2H1548.66C1544.93 299.2 1541.46 298.667 1538.26 297.6C1535.6 296.533 1532.93 295.2 1530.26 293.6C1528.13 292 1526.26 290.133 1524.66 288C1523.06 285.333 1521.73 282.667 1520.66 280C1519.6 276.8 1519.06 273.333 1519.06 269.6V268.8L1519.86 268H1550.26V298.4ZM1547.06 298.4V268H1577.46L1578.26 268.8V269.6C1578.26 273.333 1577.73 276.8 1576.66 280C1575.6 282.667 1574.26 285.333 1572.66 288C1571.06 290.133 1568.93 292 1566.26 293.6C1564.13 295.2 1561.46 296.533 1558.26 297.6C1555.6 298.667 1552.4 299.2 1548.66 299.2H1547.86L1547.06 298.4ZM1547.06 240.8L1547.86 240H1548.66C1552.4 240 1555.6 240.533 1558.26 241.6C1561.46 242.667 1564.13 244 1566.26 245.6C1568.93 247.2 1571.06 249.333 1572.66 252C1574.26 254.133 1575.6 256.8 1576.66 260C1577.73 262.667 1578.26 265.867 1578.26 269.6V270.4L1577.46 271.2H1547.06V240.8ZM1550.26 240.8V271.2H1519.86L1519.06 270.4V269.6C1519.06 265.867 1519.6 262.667 1520.66 260C1521.73 256.8 1523.06 254.133 1524.66 252C1526.26 249.333 1528.13 247.2 1530.26 245.6C1532.93 244 1535.6 242.667 1538.26 241.6C1541.46 240.533 1544.93 240 1548.66 240H1549.46L1550.26 240.8ZM1550.26 218.4L1549.46 219.2H1548.66C1544.93 219.2 1541.46 218.667 1538.26 217.6C1535.6 216.533 1532.93 215.2 1530.26 213.6C1528.13 212 1526.26 210.133 1524.66 208C1523.06 205.333 1521.73 202.667 1520.66 200C1519.6 196.8 1519.06 193.333 1519.06 189.6V188.8L1519.86 188H1550.26V218.4ZM1547.06 218.4V188H1577.46L1578.26 188.8V189.6C1578.26 193.333 1577.73 196.8 1576.66 200C1575.6 202.667 1574.26 205.333 1572.66 208C1571.06 210.133 1568.93 212 1566.26 213.6C1564.13 215.2 1561.46 216.533 1558.26 217.6C1555.6 218.667 1552.4 219.2 1548.66 219.2H1547.86L1547.06 218.4ZM1547.06 160.8L1547.86 160H1548.66C1552.4 160 1555.6 160.533 1558.26 161.6C1561.46 162.667 1564.13 164 1566.26 165.6C1568.93 167.2 1571.06 169.333 1572.66 172C1574.26 174.133 1575.6 176.8 1576.66 180C1577.73 182.667 1578.26 185.867 1578.26 189.6V190.4L1577.46 191.2H1547.06V160.8ZM1550.26 160.8V191.2H1519.86L1519.06 190.4V189.6C1519.06 185.867 1519.6 182.667 1520.66 180C1521.73 176.8 1523.06 174.133 1524.66 172C1526.26 169.333 1528.13 167.2 1530.26 165.6C1532.93 164 1535.6 162.667 1538.26 161.6C1541.46 160.533 1544.93 160 1548.66 160H1549.46L1550.26 160.8ZM1550.26 138.4L1549.46 139.2H1548.66C1544.93 139.2 1541.46 138.667 1538.26 137.6C1535.6 136.533 1532.93 135.2 1530.26 133.6C1528.13 132 1526.26 130.133 1524.66 128C1523.06 125.333 1521.73 122.667 1520.66 120C1519.6 116.8 1519.06 113.333 1519.06 109.6V108.8L1519.86 108H1550.26V138.4ZM1547.06 138.4V108H1577.46L1578.26 108.8V109.6C1578.26 113.333 1577.73 116.8 1576.66 120C1575.6 122.667 1574.26 125.333 1572.66 128C1571.06 130.133 1568.93 132 1566.26 133.6C1564.13 135.2 1561.46 136.533 1558.26 137.6C1555.6 138.667 1552.4 139.2 1548.66 139.2H1547.86L1547.06 138.4ZM1547.06 80.8L1547.86 80H1548.66C1552.4 80 1555.6 80.5333 1558.26 81.6C1561.46 82.6667 1564.13 84 1566.26 85.6C1568.93 87.2 1571.06 89.3333 1572.66 92C1574.26 94.1333 1575.6 96.8 1576.66 100C1577.73 102.667 1578.26 105.867 1578.26 109.6V110.4L1577.46 111.2H1547.06V80.8ZM1550.26 80.8V111.2H1519.86L1519.06 110.4V109.6C1519.06 105.867 1519.6 102.667 1520.66 100C1521.73 96.8 1523.06 94.1333 1524.66 92C1526.26 89.3333 1528.13 87.2 1530.26 85.6C1532.93 84 1535.6 82.6667 1538.26 81.6C1541.46 80.5333 1544.93 80 1548.66 80H1549.46L1550.26 80.8ZM1550.26 58.4L1549.46 59.2H1548.66C1544.93 59.2 1541.46 58.6667 1538.26 57.6C1535.6 56.5333 1532.93 55.2 1530.26 53.6C1528.13 52 1526.26 50.1333 1524.66 48C1523.06 45.3333 1521.73 42.6667 1520.66 40C1519.6 36.8 1519.06 33.3333 1519.06 29.6V28.8L1519.86 28H1550.26V58.4ZM1547.06 58.4V28H1577.46L1578.26 28.8V29.6C1578.26 33.3333 1577.73 36.8 1576.66 40C1575.6 42.6667 1574.26 45.3333 1572.66 48C1571.06 50.1333 1568.93 52 1566.26 53.6C1564.13 55.2 1561.46 56.5333 1558.26 57.6C1555.6 58.6667 1552.4 59.2 1548.66 59.2H1547.86L1547.06 58.4ZM1547.06 0.79999L1547.86 0H1548.66C1552.4 0 1555.6 0.533327 1558.26 1.59998C1561.46 2.66666 1564.13 4 1566.26 5.59998C1568.93 7.19999 1571.06 9.33332 1572.66 12C1574.26 14.1333 1575.6 16.8 1576.66 20C1577.73 22.6666 1578.26 25.8667 1578.26 29.6V30.4L1577.46 31.2H1547.06V0.79999ZM1550.26 0.79999V31.2H1519.86L1519.06 30.4V29.6C1519.06 25.8667 1519.6 22.6666 1520.66 20C1521.73 16.8 1523.06 14.1333 1524.66 12C1526.26 9.33332 1528.13 7.19999 1530.26 5.59998C1532.93 4 1535.6 2.66666 1538.26 1.59998C1541.46 0.533327 1544.93 0 1548.66 0H1549.46L1550.26 0.79999ZM1630.26 458.4L1629.46 459.2H1628.66C1624.93 459.2 1621.46 458.667 1618.26 457.6C1615.6 456.533 1612.93 455.2 1610.26 453.6C1608.13 452 1606.26 450.133 1604.66 448C1603.06 445.333 1601.73 442.667 1600.66 440C1599.6 436.8 1599.06 433.333 1599.06 429.6V428.8L1599.86 428H1630.26V458.4ZM1627.06 458.4V428H1657.46L1658.26 428.8V429.6C1658.26 433.333 1657.73 436.8 1656.66 440C1655.6 442.667 1654.26 445.333 1652.66 448C1651.06 450.133 1648.93 452 1646.26 453.6C1644.13 455.2 1641.46 456.533 1638.26 457.6C1635.6 458.667 1632.4 459.2 1628.66 459.2H1627.86L1627.06 458.4ZM1627.06 400.8L1627.86 400H1628.66C1632.4 400 1635.6 400.533 1638.26 401.6C1641.46 402.667 1644.13 404 1646.26 405.6C1648.93 407.2 1651.06 409.333 1652.66 412C1654.26 414.133 1655.6 416.8 1656.66 420C1657.73 422.667 1658.26 425.867 1658.26 429.6V430.4L1657.46 431.2H1627.06V400.8ZM1630.26 400.8V431.2H1599.86L1599.06 430.4V429.6C1599.06 425.867 1599.6 422.667 1600.66 420C1601.73 416.8 1603.06 414.133 1604.66 412C1606.26 409.333 1608.13 407.2 1610.26 405.6C1612.93 404 1615.6 402.667 1618.26 401.6C1621.46 400.533 1624.93 400 1628.66 400H1629.46L1630.26 400.8ZM1630.26 218.4L1629.46 219.2H1628.66C1624.93 219.2 1621.46 218.667 1618.26 217.6C1615.6 216.533 1612.93 215.2 1610.26 213.6C1608.13 212 1606.26 210.133 1604.66 208C1603.06 205.333 1601.73 202.667 1600.66 200C1599.6 196.8 1599.06 193.333 1599.06 189.6V188.8L1599.86 188H1630.26V218.4ZM1627.06 218.4V188H1657.46L1658.26 188.8V189.6C1658.26 193.333 1657.73 196.8 1656.66 200C1655.6 202.667 1654.26 205.333 1652.66 208C1651.06 210.133 1648.93 212 1646.26 213.6C1644.13 215.2 1641.46 216.533 1638.26 217.6C1635.6 218.667 1632.4 219.2 1628.66 219.2H1627.86L1627.06 218.4ZM1627.06 160.8L1627.86 160H1628.66C1632.4 160 1635.6 160.533 1638.26 161.6C1641.46 162.667 1644.13 164 1646.26 165.6C1648.93 167.2 1651.06 169.333 1652.66 172C1654.26 174.133 1655.6 176.8 1656.66 180C1657.73 182.667 1658.26 185.867 1658.26 189.6V190.4L1657.46 191.2H1627.06V160.8ZM1630.26 160.8V191.2H1599.86L1599.06 190.4V189.6C1599.06 185.867 1599.6 182.667 1600.66 180C1601.73 176.8 1603.06 174.133 1604.66 172C1606.26 169.333 1608.13 167.2 1610.26 165.6C1612.93 164 1615.6 162.667 1618.26 161.6C1621.46 160.533 1624.93 160 1628.66 160H1629.46L1630.26 160.8ZM1630.26 58.4L1629.46 59.2H1628.66C1624.93 59.2 1621.46 58.6667 1618.26 57.6C1615.6 56.5333 1612.93 55.2 1610.26 53.6C1608.13 52 1606.26 50.1333 1604.66 48C1603.06 45.3333 1601.73 42.6667 1600.66 40C1599.6 36.8 1599.06 33.3333 1599.06 29.6V28.8L1599.86 28H1630.26V58.4ZM1627.06 58.4V28H1657.46L1658.26 28.8V29.6C1658.26 33.3333 1657.73 36.8 1656.66 40C1655.6 42.6667 1654.26 45.3333 1652.66 48C1651.06 50.1333 1648.93 52 1646.26 53.6C1644.13 55.2 1641.46 56.5333 1638.26 57.6C1635.6 58.6667 1632.4 59.2 1628.66 59.2H1627.86L1627.06 58.4ZM1627.06 0.79999L1627.86 0H1628.66C1632.4 0 1635.6 0.533327 1638.26 1.59998C1641.46 2.66666 1644.13 4 1646.26 5.59998C1648.93 7.19999 1651.06 9.33332 1652.66 12C1654.26 14.1333 1655.6 16.8 1656.66 20C1657.73 22.6666 1658.26 25.8667 1658.26 29.6V30.4L1657.46 31.2H1627.06V0.79999ZM1630.26 0.79999V31.2H1599.86L1599.06 30.4V29.6C1599.06 25.8667 1599.6 22.6666 1600.66 20C1601.73 16.8 1603.06 14.1333 1604.66 12C1606.26 9.33332 1608.13 7.19999 1610.26 5.59998C1612.93 4 1615.6 2.66666 1618.26 1.59998C1621.46 0.533327 1624.93 0 1628.66 0H1629.46L1630.26 0.79999ZM1710.26 458.4L1709.46 459.2H1708.66C1704.93 459.2 1701.46 458.667 1698.26 457.6C1695.6 456.533 1692.93 455.2 1690.26 453.6C1688.13 452 1686.26 450.133 1684.66 448C1683.06 445.333 1681.73 442.667 1680.66 440C1679.6 436.8 1679.06 433.333 1679.06 429.6V428.8L1679.86 428H1710.26V458.4ZM1707.06 458.4V428H1737.46L1738.26 428.8V429.6C1738.26 433.333 1737.73 436.8 1736.66 440C1735.6 442.667 1734.26 445.333 1732.66 448C1731.06 450.133 1728.93 452 1726.26 453.6C1724.13 455.2 1721.46 456.533 1718.26 457.6C1715.6 458.667 1712.4 459.2 1708.66 459.2H1707.86L1707.06 458.4ZM1707.06 400.8L1707.86 400H1708.66C1712.4 400 1715.6 400.533 1718.26 401.6C1721.46 402.667 1724.13 404 1726.26 405.6C1728.93 407.2 1731.06 409.333 1732.66 412C1734.26 414.133 1735.6 416.8 1736.66 420C1737.73 422.667 1738.26 425.867 1738.26 429.6V430.4L1737.46 431.2H1707.06V400.8ZM1710.26 400.8V431.2H1679.86L1679.06 430.4V429.6C1679.06 425.867 1679.6 422.667 1680.66 420C1681.73 416.8 1683.06 414.133 1684.66 412C1686.26 409.333 1688.13 407.2 1690.26 405.6C1692.93 404 1695.6 402.667 1698.26 401.6C1701.46 400.533 1704.93 400 1708.66 400H1709.46L1710.26 400.8ZM1710.26 298.4L1709.46 299.2H1708.66C1704.93 299.2 1701.46 298.667 1698.26 297.6C1695.6 296.533 1692.93 295.2 1690.26 293.6C1688.13 292 1686.26 290.133 1684.66 288C1683.06 285.333 1681.73 282.667 1680.66 280C1679.6 276.8 1679.06 273.333 1679.06 269.6V268.8L1679.86 268H1710.26V298.4ZM1707.06 298.4V268H1737.46L1738.26 268.8V269.6C1738.26 273.333 1737.73 276.8 1736.66 280C1735.6 282.667 1734.26 285.333 1732.66 288C1731.06 290.133 1728.93 292 1726.26 293.6C1724.13 295.2 1721.46 296.533 1718.26 297.6C1715.6 298.667 1712.4 299.2 1708.66 299.2H1707.86L1707.06 298.4ZM1707.06 240.8L1707.86 240H1708.66C1712.4 240 1715.6 240.533 1718.26 241.6C1721.46 242.667 1724.13 244 1726.26 245.6C1728.93 247.2 1731.06 249.333 1732.66 252C1734.26 254.133 1735.6 256.8 1736.66 260C1737.73 262.667 1738.26 265.867 1738.26 269.6V270.4L1737.46 271.2H1707.06V240.8ZM1710.26 240.8V271.2H1679.86L1679.06 270.4V269.6C1679.06 265.867 1679.6 262.667 1680.66 260C1681.73 256.8 1683.06 254.133 1684.66 252C1686.26 249.333 1688.13 247.2 1690.26 245.6C1692.93 244 1695.6 242.667 1698.26 241.6C1701.46 240.533 1704.93 240 1708.66 240H1709.46L1710.26 240.8ZM1710.26 218.4L1709.46 219.2H1708.66C1704.93 219.2 1701.46 218.667 1698.26 217.6C1695.6 216.533 1692.93 215.2 1690.26 213.6C1688.13 212 1686.26 210.133 1684.66 208C1683.06 205.333 1681.73 202.667 1680.66 200C1679.6 196.8 1679.06 193.333 1679.06 189.6V188.8L1679.86 188H1710.26V218.4ZM1707.06 218.4V188H1737.46L1738.26 188.8V189.6C1738.26 193.333 1737.73 196.8 1736.66 200C1735.6 202.667 1734.26 205.333 1732.66 208C1731.06 210.133 1728.93 212 1726.26 213.6C1724.13 215.2 1721.46 216.533 1718.26 217.6C1715.6 218.667 1712.4 219.2 1708.66 219.2H1707.86L1707.06 218.4ZM1707.06 160.8L1707.86 160H1708.66C1712.4 160 1715.6 160.533 1718.26 161.6C1721.46 162.667 1724.13 164 1726.26 165.6C1728.93 167.2 1731.06 169.333 1732.66 172C1734.26 174.133 1735.6 176.8 1736.66 180C1737.73 182.667 1738.26 185.867 1738.26 189.6V190.4L1737.46 191.2H1707.06V160.8ZM1710.26 160.8V191.2H1679.86L1679.06 190.4V189.6C1679.06 185.867 1679.6 182.667 1680.66 180C1681.73 176.8 1683.06 174.133 1684.66 172C1686.26 169.333 1688.13 167.2 1690.26 165.6C1692.93 164 1695.6 162.667 1698.26 161.6C1701.46 160.533 1704.93 160 1708.66 160H1709.46L1710.26 160.8ZM1710.26 58.4L1709.46 59.2H1708.66C1704.93 59.2 1701.46 58.6667 1698.26 57.6C1695.6 56.5333 1692.93 55.2 1690.26 53.6C1688.13 52 1686.26 50.1333 1684.66 48C1683.06 45.3333 1681.73 42.6667 1680.66 40C1679.6 36.8 1679.06 33.3333 1679.06 29.6V28.8L1679.86 28H1710.26V58.4ZM1707.06 58.4V28H1737.46L1738.26 28.8V29.6C1738.26 33.3333 1737.73 36.8 1736.66 40C1735.6 42.6667 1734.26 45.3333 1732.66 48C1731.06 50.1333 1728.93 52 1726.26 53.6C1724.13 55.2 1721.46 56.5333 1718.26 57.6C1715.6 58.6667 1712.4 59.2 1708.66 59.2H1707.86L1707.06 58.4ZM1707.06 0.79999L1707.86 0H1708.66C1712.4 0 1715.6 0.533327 1718.26 1.59998C1721.46 2.66666 1724.13 4 1726.26 5.59998C1728.93 7.19999 1731.06 9.33332 1732.66 12C1734.26 14.1333 1735.6 16.8 1736.66 20C1737.73 22.6666 1738.26 25.8667 1738.26 29.6V30.4L1737.46 31.2H1707.06V0.79999ZM1710.26 0.79999V31.2H1679.86L1679.06 30.4V29.6C1679.06 25.8667 1679.6 22.6666 1680.66 20C1681.73 16.8 1683.06 14.1333 1684.66 12C1686.26 9.33332 1688.13 7.19999 1690.26 5.59998C1692.93 4 1695.6 2.66666 1698.26 1.59998C1701.46 0.533327 1704.93 0 1708.66 0H1709.46L1710.26 0.79999ZM1790.26 378.4L1789.46 379.2H1788.66C1784.93 379.2 1781.46 378.667 1778.26 377.6C1775.6 376.533 1772.93 375.2 1770.26 373.6C1768.13 372 1766.26 370.133 1764.66 368C1763.06 365.333 1761.73 362.667 1760.66 360C1759.6 356.8 1759.06 353.333 1759.06 349.6V348.8L1759.86 348H1790.26V378.4ZM1787.06 378.4V348H1817.46L1818.26 348.8V349.6C1818.26 353.333 1817.73 356.8 1816.66 360C1815.6 362.667 1814.26 365.333 1812.66 368C1811.06 370.133 1808.93 372 1806.26 373.6C1804.13 375.2 1801.46 376.533 1798.26 377.6C1795.6 378.667 1792.4 379.2 1788.66 379.2H1787.86L1787.06 378.4ZM1787.06 320.8L1787.86 320H1788.66C1792.4 320 1795.6 320.533 1798.26 321.6C1801.46 322.667 1804.13 324 1806.26 325.6C1808.93 327.2 1811.06 329.333 1812.66 332C1814.26 334.133 1815.6 336.8 1816.66 340C1817.73 342.667 1818.26 345.867 1818.26 349.6V350.4L1817.46 351.2H1787.06V320.8ZM1790.26 320.8V351.2H1759.86L1759.06 350.4V349.6C1759.06 345.867 1759.6 342.667 1760.66 340C1761.73 336.8 1763.06 334.133 1764.66 332C1766.26 329.333 1768.13 327.2 1770.26 325.6C1772.93 324 1775.6 322.667 1778.26 321.6C1781.46 320.533 1784.93 320 1788.66 320H1789.46L1790.26 320.8ZM1790.26 298.4L1789.46 299.2H1788.66C1784.93 299.2 1781.46 298.667 1778.26 297.6C1775.6 296.533 1772.93 295.2 1770.26 293.6C1768.13 292 1766.26 290.133 1764.66 288C1763.06 285.333 1761.73 282.667 1760.66 280C1759.6 276.8 1759.06 273.333 1759.06 269.6V268.8L1759.86 268H1790.26V298.4ZM1787.06 298.4V268H1817.46L1818.26 268.8V269.6C1818.26 273.333 1817.73 276.8 1816.66 280C1815.6 282.667 1814.26 285.333 1812.66 288C1811.06 290.133 1808.93 292 1806.26 293.6C1804.13 295.2 1801.46 296.533 1798.26 297.6C1795.6 298.667 1792.4 299.2 1788.66 299.2H1787.86L1787.06 298.4ZM1787.06 240.8L1787.86 240H1788.66C1792.4 240 1795.6 240.533 1798.26 241.6C1801.46 242.667 1804.13 244 1806.26 245.6C1808.93 247.2 1811.06 249.333 1812.66 252C1814.26 254.133 1815.6 256.8 1816.66 260C1817.73 262.667 1818.26 265.867 1818.26 269.6V270.4L1817.46 271.2H1787.06V240.8ZM1790.26 240.8V271.2H1759.86L1759.06 270.4V269.6C1759.06 265.867 1759.6 262.667 1760.66 260C1761.73 256.8 1763.06 254.133 1764.66 252C1766.26 249.333 1768.13 247.2 1770.26 245.6C1772.93 244 1775.6 242.667 1778.26 241.6C1781.46 240.533 1784.93 240 1788.66 240H1789.46L1790.26 240.8ZM1790.26 138.4L1789.46 139.2H1788.66C1784.93 139.2 1781.46 138.667 1778.26 137.6C1775.6 136.533 1772.93 135.2 1770.26 133.6C1768.13 132 1766.26 130.133 1764.66 128C1763.06 125.333 1761.73 122.667 1760.66 120C1759.6 116.8 1759.06 113.333 1759.06 109.6V108.8L1759.86 108H1790.26V138.4ZM1787.06 138.4V108H1817.46L1818.26 108.8V109.6C1818.26 113.333 1817.73 116.8 1816.66 120C1815.6 122.667 1814.26 125.333 1812.66 128C1811.06 130.133 1808.93 132 1806.26 133.6C1804.13 135.2 1801.46 136.533 1798.26 137.6C1795.6 138.667 1792.4 139.2 1788.66 139.2H1787.86L1787.06 138.4ZM1787.06 80.8L1787.86 80H1788.66C1792.4 80 1795.6 80.5333 1798.26 81.6C1801.46 82.6667 1804.13 84 1806.26 85.6C1808.93 87.2 1811.06 89.3333 1812.66 92C1814.26 94.1333 1815.6 96.8 1816.66 100C1817.73 102.667 1818.26 105.867 1818.26 109.6V110.4L1817.46 111.2H1787.06V80.8ZM1790.26 80.8V111.2H1759.86L1759.06 110.4V109.6C1759.06 105.867 1759.6 102.667 1760.66 100C1761.73 96.8 1763.06 94.1333 1764.66 92C1766.26 89.3333 1768.13 87.2 1770.26 85.6C1772.93 84 1775.6 82.6667 1778.26 81.6C1781.46 80.5333 1784.93 80 1788.66 80H1789.46L1790.26 80.8Z" fill="currentColor"/>
    </symbol>
    <pattern id="emLines" x="0" y="0" width="4" height="4" patternUnits="userSpaceOnUse">
      <circle cx="1" cy="1" r="0.4" fill="#141517" fill-opacity="0.035"/>
    </pattern>
  </defs>

  <!-- paper bg -->
  <rect width="1200" height="630" fill="#F7F8FA"/>
  <rect width="1200" height="630" fill="url(#emLines)"/>

  <!-- vertical orange stripe (editorial signature) -->
  <rect x="0" y="0" width="10" height="630" fill="#FF4F18"/>

  <!-- corner brackets in ink · L-shapes 60px arms, 50px inset -->
  <g stroke="#141517" stroke-width="3" fill="none" stroke-linecap="square">
    <path d="M50 110 V50 H110"/>
    <path d="M1090 50 H1150 V110"/>
    <path d="M50 520 V580 H110"/>
    <path d="M1090 580 H1150 V520"/>
  </g>

  <!-- top mono label -->
  <text x="600" y="84" text-anchor="middle"
        font-family="ui-monospace, SFMono-Regular, Menlo, monospace"
        font-size="13" font-weight="700" letter-spacing="6"
        fill="#141517">— PRIVATE PACKAGE REPOSITORY —</text>

  <!-- bottom mono label -->
  <text x="600" y="554" text-anchor="middle"
        font-family="ui-monospace, SFMono-Regular, Menlo, monospace"
        font-size="12" font-weight="700" letter-spacing="6"
        fill="#141517" opacity="0.6">DART · FLUTTER · SELF-HOSTED</text>

  <!-- bicolor MONOGRAM: orange mark + ink wordmark
       logo 200 + gap 36 + wordmark 200x791 = 1027; centered → 86px margin -->
  <g transform="translate(86, 170)">
    <use href="#mark" x="0" y="0" width="200" height="200" color="#FF4F18"/>
    <use href="#wordmark" x="236" y="0" width="791" height="200" color="#141517"/>
  </g>

  <!-- ornamented separator in orange (bridges monogram to tagline) -->
  <line x1="490" y1="418" x2="580" y2="418" stroke="#FF4F18" stroke-width="2" stroke-linecap="round"/>
  <line x1="620" y1="418" x2="710" y2="418" stroke="#FF4F18" stroke-width="2" stroke-linecap="round"/>
  <g transform="translate(600, 418)" stroke="#FF4F18" stroke-width="2" stroke-linecap="round">
    <line x1="0" y1="-9" x2="0" y2="9"/>
    <line x1="-8" y1="-5" x2="8" y2="5"/>
    <line x1="-8" y1="5"  x2="8" y2="-5"/>
  </g>

  <!-- italic serif tagline with orange period — editorial touch -->
  <text x="600" y="490" text-anchor="middle"
        font-family="ui-serif, Georgia, 'Times New Roman', serif"
        font-style="italic"
        font-size="54" font-weight="500" letter-spacing="-1"
        fill="#141517">Your private pub<tspan fill="#FF4F18">.</tspan>dev.</text>
</svg>
