<svg width="2631" height="640" viewBox="0 0 2631 640" fill="none" xmlns="http://www.w3.org/2000/svg">
<path d="M843.6 468.8L842.8 469.6H842C838.267 469.6 834.8 469.067 831.6 468C828.933 466.934 826.267 465.6 823.6 464C821.467 462.4 819.6 460.534 818 458.4C816.4 455.734 815.067 453.067 814 450.4C812.933 447.2 812.4 443.734 812.4 440V439.2L813.2 438.4H843.6V468.8ZM840.4 468.8V438.4H870.8L871.6 439.2V440C871.6 443.734 871.067 447.2 870 450.4C868.933 453.067 867.6 455.734 866 458.4C864.4 460.534 862.267 462.4 859.6 464C857.467 465.6 854.8 466.934 851.6 468C848.933 469.067 845.733 469.6 842 469.6H841.2L840.4 468.8ZM840.4 411.2L841.2 410.4H842C845.733 410.4 848.933 410.934 851.6 412C854.8 413.067 857.467 414.4 859.6 416C862.267 417.6 864.4 419.734 866 422.4C867.6 424.534 868.933 427.2 870 430.4C871.067 433.067 871.6 436.267 871.6 440V440.8L870.8 441.6H840.4V411.2ZM843.6 411.2V441.6H813.2L812.4 440.8V440C812.4 436.267 812.933 433.067 814 430.4C815.067 427.2 816.4 424.534 818 422.4C819.6 419.734 821.467 417.6 823.6 416C826.267 414.4 828.933 413.067 831.6 412C834.8 410.934 838.267 410.4 842 410.4H842.8L843.6 411.2ZM843.6 388.8L842.8 389.6H842C838.267 389.6 834.8 389.067 831.6 388C828.933 386.934 826.267 385.6 823.6 384C821.467 382.4 819.6 380.534 818 378.4C816.4 375.734 815.067 373.067 814 370.4C812.933 367.2 812.4 363.734 812.4 360V359.2L813.2 358.4H843.6V388.8ZM840.4 388.8V358.4H870.8L871.6 359.2V360C871.6 363.734 871.067 367.2 870 370.4C868.933 373.067 867.6 375.734 866 378.4C864.4 380.534 862.267 382.4 859.6 384C857.467 385.6 854.8 386.934 851.6 388C848.933 389.067 845.733 389.6 842 389.6H841.2L840.4 388.8ZM840.4 331.2L841.2 330.4H842C845.733 330.4 848.933 330.934 851.6 332C854.8 333.067 857.467 334.4 859.6 336C862.267 337.6 864.4 339.734 866 342.4C867.6 344.534 868.933 347.2 870 350.4C871.067 353.067 871.6 356.267 871.6 360V360.8L870.8 361.6H840.4V331.2ZM843.6 331.2V361.6H813.2L812.4 360.8V360C812.4 356.267 812.933 353.067 814 350.4C815.067 347.2 816.4 344.534 818 342.4C819.6 339.734 821.467 337.6 823.6 336C826.267 334.4 828.933 333.067 831.6 332C834.8 330.934 838.267 330.4 842 330.4H842.8L843.6 331.2ZM843.6 308.8L842.8 309.6H842C838.267 309.6 834.8 309.067 831.6 308C828.933 306.934 826.267 305.6 823.6 304C821.467 302.4 819.6 300.534 818 298.4C816.4 295.734 815.067 293.067 814 290.4C812.933 287.2 812.4 283.734 812.4 280V279.2L813.2 278.4H843.6V308.8ZM840.4 308.8V278.4H870.8L871.6 279.2V280C871.6 283.734 871.067 287.2 870 290.4C868.933 293.067 867.6 295.734 866 298.4C864.4 300.534 862.267 302.4 859.6 304C857.467 305.6 854.8 306.934 851.6 308C848.933 309.067 845.733 309.6 842 309.6H841.2L840.4 308.8ZM840.4 251.2L841.2 250.4H842C845.733 250.4 848.933 250.934 851.6 252C854.8 253.067 857.467 254.4 859.6 256C862.267 257.6 864.4 259.734 866 262.4C867.6 264.534 868.933 267.2 870 270.4C871.067 273.067 871.6 276.267 871.6 280V280.8L870.8 281.6H840.4V251.2ZM843.6 251.2V281.6H813.2L812.4 280.8V280C812.4 276.267 812.933 273.067 814 270.4C815.067 267.2 816.4 264.534 818 262.4C819.6 259.734 821.467 257.6 823.6 256C826.267 254.4 828.933 253.067 831.6 252C834.8 250.934 838.267 250.4 842 250.4H842.8L843.6 251.2ZM843.6 228.8L842.8 229.6H842C838.267 229.6 834.8 229.067 831.6 228C828.933 226.934 826.267 225.6 823.6 224C821.467 222.4 819.6 220.534 818 218.4C816.4 215.734 815.067 213.067 814 210.4C812.933 207.2 812.4 203.734 812.4 200V199.2L813.2 198.4H843.6V228.8ZM840.4 228.8V198.4H870.8L871.6 199.2V200C871.6 203.734 871.067 207.2 870 210.4C868.933 213.067 867.6 215.734 866 218.4C864.4 220.534 862.267 222.4 859.6 224C857.467 225.6 854.8 226.934 851.6 228C848.933 229.067 845.733 229.6 842 229.6H841.2L840.4 228.8ZM840.4 171.2L841.2 170.4H842C845.733 170.4 848.933 170.934 851.6 172C854.8 173.067 857.467 174.4 859.6 176C862.267 177.6 864.4 179.734 866 182.4C867.6 184.534 868.933 187.2 870 190.4C871.067 193.067 871.6 196.267 871.6 200V200.8L870.8 201.6H840.4V171.2ZM843.6 171.2V201.6H813.2L812.4 200.8V200C812.4 196.267 812.933 193.067 814 190.4C815.067 187.2 816.4 184.534 818 182.4C819.6 179.734 821.467 177.6 823.6 176C826.267 174.4 828.933 173.067 831.6 172C834.8 170.934 838.267 170.4 842 170.4H842.8L843.6 171.2ZM923.6 548.8L922.8 549.6H922C918.267 549.6 914.8 549.067 911.6 548C908.933 546.934 906.267 545.6 903.6 544C901.467 542.4 899.6 540.534 898 538.4C896.4 535.734 895.067 533.067 894 530.4C892.933 527.2 892.4 523.734 892.4 520V519.2L893.2 518.4H923.6V548.8ZM920.4 548.8V518.4H950.8L951.6 519.2V520C951.6 523.734 951.067 527.2 950 530.4C948.933 533.067 947.6 535.734 946 538.4C944.4 540.534 942.267 542.4 939.6 544C937.467 545.6 934.8 546.934 931.6 548C928.933 549.067 925.733 549.6 922 549.6H921.2L920.4 548.8ZM920.4 491.2L921.2 490.4H922C925.733 490.4 928.933 490.934 931.6 492C934.8 493.067 937.467 494.4 939.6 496C942.267 497.6 944.4 499.734 946 502.4C947.6 504.534 948.933 507.2 950 510.4C951.067 513.067 951.6 516.267 951.6 520V520.8L950.8 521.6H920.4V491.2ZM923.6 491.2V521.6H893.2L892.4 520.8V520C892.4 516.267 892.933 513.067 894 510.4C895.067 507.2 896.4 504.534 898 502.4C899.6 499.734 901.467 497.6 903.6 496C906.267 494.4 908.933 493.067 911.6 492C914.8 490.934 918.267 490.4 922 490.4H922.8L923.6 491.2ZM923.6 468.8L922.8 469.6H922C918.267 469.6 914.8 469.067 911.6 468C908.933 466.934 906.267 465.6 903.6 464C901.467 462.4 899.6 460.534 898 458.4C896.4 455.734 895.067 453.067 894 450.4C892.933 447.2 892.4 443.734 892.4 440V439.2L893.2 438.4H923.6V468.8ZM920.4 468.8V438.4H950.8L951.6 439.2V440C951.6 443.734 951.067 447.2 950 450.4C948.933 453.067 947.6 455.734 946 458.4C944.4 460.534 942.267 462.4 939.6 464C937.467 465.6 934.8 466.934 931.6 468C928.933 469.067 925.733 469.6 922 469.6H921.2L920.4 468.8ZM920.4 411.2L921.2 410.4H922C925.733 410.4 928.933 410.934 931.6 412C934.8 413.067 937.467 414.4 939.6 416C942.267 417.6 944.4 419.734 946 422.4C947.6 424.534 948.933 427.2 950 430.4C951.067 433.067 951.6 436.267 951.6 440V440.8L950.8 441.6H920.4V411.2ZM923.6 411.2V441.6H893.2L892.4 440.8V440C892.4 436.267 892.933 433.067 894 430.4C895.067 427.2 896.4 424.534 898 422.4C899.6 419.734 901.467 417.6 903.6 416C906.267 414.4 908.933 413.067 911.6 412C914.8 410.934 918.267 410.4 922 410.4H922.8L923.6 411.2ZM923.6 388.8L922.8 389.6H922C918.267 389.6 914.8 389.067 911.6 388C908.933 386.934 906.267 385.6 903.6 384C901.467 382.4 899.6 380.534 898 378.4C896.4 375.734 895.067 373.067 894 370.4C892.933 367.2 892.4 363.734 892.4 360V359.2L893.2 358.4H923.6V388.8ZM920.4 388.8V358.4H950.8L951.6 359.2V360C951.6 363.734 951.067 367.2 950 370.4C948.933 373.067 947.6 375.734 946 378.4C944.4 380.534 942.267 382.4 939.6 384C937.467 385.6 934.8 386.934 931.6 388C928.933 389.067 925.733 389.6 922 389.6H921.2L920.4 388.8ZM920.4 331.2L921.2 330.4H922C925.733 330.4 928.933 330.934 931.6 332C934.8 333.067 937.467 334.4 939.6 336C942.267 337.6 944.4 339.734 946 342.4C947.6 344.534 948.933 347.2 950 350.4C951.067 353.067 951.6 356.267 951.6 360V360.8L950.8 361.6H920.4V331.2ZM923.6 331.2V361.6H893.2L892.4 360.8V360C892.4 356.267 892.933 353.067 894 350.4C895.067 347.2 896.4 344.534 898 342.4C899.6 339.734 901.467 337.6 903.6 336C906.267 334.4 908.933 333.067 911.6 332C914.8 330.934 918.267 330.4 922 330.4H922.8L923.6 331.2ZM923.6 308.8L922.8 309.6H922C918.267 309.6 914.8 309.067 911.6 308C908.933 306.934 906.267 305.6 903.6 304C901.467 302.4 899.6 300.534 898 298.4C896.4 295.734 895.067 293.067 894 290.4C892.933 287.2 892.4 283.734 892.4 280V279.2L893.2 278.4H923.6V308.8ZM920.4 308.8V278.4H950.8L951.6 279.2V280C951.6 283.734 951.067 287.2 950 290.4C948.933 293.067 947.6 295.734 946 298.4C944.4 300.534 942.267 302.4 939.6 304C937.467 305.6 934.8 306.934 931.6 308C928.933 309.067 925.733 309.6 922 309.6H921.2L920.4 308.8ZM920.4 251.2L921.2 250.4H922C925.733 250.4 928.933 250.934 931.6 252C934.8 253.067 937.467 254.4 939.6 256C942.267 257.6 944.4 259.734 946 262.4C947.6 264.534 948.933 267.2 950 270.4C951.067 273.067 951.6 276.267 951.6 280V280.8L950.8 281.6H920.4V251.2ZM923.6 251.2V281.6H893.2L892.4 280.8V280C892.4 276.267 892.933 273.067 894 270.4C895.067 267.2 896.4 264.534 898 262.4C899.6 259.734 901.467 257.6 903.6 256C906.267 254.4 908.933 253.067 911.6 252C914.8 250.934 918.267 250.4 922 250.4H922.8L923.6 251.2ZM923.6 228.8L922.8 229.6H922C918.267 229.6 914.8 229.067 911.6 228C908.933 226.934 906.267 225.6 903.6 224C901.467 222.4 899.6 220.534 898 218.4C896.4 215.734 895.067 213.067 894 210.4C892.933 207.2 892.4 203.734 892.4 200V199.2L893.2 198.4H923.6V228.8ZM920.4 228.8V198.4H950.8L951.6 199.2V200C951.6 203.734 951.067 207.2 950 210.4C948.933 213.067 947.6 215.734 946 218.4C944.4 220.534 942.267 222.4 939.6 224C937.467 225.6 934.8 226.934 931.6 228C928.933 229.067 925.733 229.6 922 229.6H921.2L920.4 228.8ZM920.4 171.2L921.2 170.4H922C925.733 170.4 928.933 170.934 931.6 172C934.8 173.067 937.467 174.4 939.6 176C942.267 177.6 944.4 179.734 946 182.4C947.6 184.534 948.933 187.2 950 190.4C951.067 193.067 951.6 196.267 951.6 200V200.8L950.8 201.6H920.4V171.2ZM923.6 171.2V201.6H893.2L892.4 200.8V200C892.4 196.267 892.933 193.067 894 190.4C895.067 187.2 896.4 184.534 898 182.4C899.6 179.734 901.467 177.6 903.6 176C906.267 174.4 908.933 173.067 911.6 172C914.8 170.934 918.267 170.4 922 170.4H922.8L923.6 171.2ZM923.6 148.8L922.8 149.6H922C918.267 149.6 914.8 149.067 911.6 148C908.933 146.934 906.267 145.6 903.6 144C901.467 142.4 899.6 140.534 898 138.4C896.4 135.734 895.067 133.067 894 130.4C892.933 127.2 892.4 123.734 892.4 120V119.2L893.2 118.4H923.6V148.8ZM920.4 148.8V118.4H950.8L951.6 119.2V120C951.6 123.734 951.067 127.2 950 130.4C948.933 133.067 947.6 135.734 946 138.4C944.4 140.534 942.267 142.4 939.6 144C937.467 145.6 934.8 146.934 931.6 148C928.933 149.067 925.733 149.6 922 149.6H921.2L920.4 148.8ZM920.4 91.2004L921.2 90.4004H922C925.733 90.4004 928.933 90.9337 931.6 92.0004C934.8 93.0671 937.467 94.4004 939.6 96.0004C942.267 97.6004 944.4 99.7337 946 102.4C947.6 104.534 948.933 107.2 950 110.4C951.067 113.067 951.6 116.267 951.6 120V120.8L950.8 121.6H920.4V91.2004ZM923.6 91.2004V121.6H893.2L892.4 120.8V120C892.4 116.267 892.933 113.067 894 110.4C895.067 107.2 896.4 104.534 898 102.4C899.6 99.7337 901.467 97.6004 903.6 96.0004C906.267 94.4004 908.933 93.0671 911.6 92.0004C914.8 90.9337 918.267 90.4004 922 90.4004H922.8L923.6 91.2004ZM1003.6 548.8L1002.8 549.6H1002C998.267 549.6 994.8 549.067 991.6 548C988.933 546.934 986.267 545.6 983.6 544C981.467 542.4 979.6 540.534 978 538.4C976.4 535.734 975.067 533.067 974 530.4C972.933 527.2 972.4 523.734 972.4 520V519.2L973.2 518.4H1003.6V548.8ZM1000.4 548.8V518.4H1030.8L1031.6 519.2V520C1031.6 523.734 1031.07 527.2 1030 530.4C1028.93 533.067 1027.6 535.734 1026 538.4C1024.4 540.534 1022.27 542.4 1019.6 544C1017.47 545.6 1014.8 546.934 1011.6 548C1008.93 549.067 1005.73 549.6 1002 549.6H1001.2L1000.4 548.8ZM1000.4 491.2L1001.2 490.4H1002C1005.73 490.4 1008.93 490.934 1011.6 492C1014.8 493.067 1017.47 494.4 1019.6 496C1022.27 497.6 1024.4 499.734 1026 502.4C1027.6 504.534 1028.93 507.2 1030 510.4C1031.07 513.067 1031.6 516.267 1031.6 520V520.8L1030.8 521.6H1000.4V491.2ZM1003.6 491.2V521.6H973.2L972.4 520.8V520C972.4 516.267 972.933 513.067 974 510.4C975.067 507.2 976.4 504.534 978 502.4C979.6 499.734 981.467 497.6 983.6 496C986.267 494.4 988.933 493.067 991.6 492C994.8 490.934 998.267 490.4 1002 490.4H1002.8L1003.6 491.2ZM1003.6 148.8L1002.8 149.6H1002C998.267 149.6 994.8 149.067 991.6 148C988.933 146.934 986.267 145.6 983.6 144C981.467 142.4 979.6 140.534 978 138.4C976.4 135.734 975.067 133.067 974 130.4C972.933 127.2 972.4 123.734 972.4 120V119.2L973.2 118.4H1003.6V148.8ZM1000.4 148.8V118.4H1030.8L1031.6 119.2V120C1031.6 123.734 1031.07 127.2 1030 130.4C1028.93 133.067 1027.6 135.734 1026 138.4C1024.4 140.534 1022.27 142.4 1019.6 144C1017.47 145.6 1014.8 146.934 1011.6 148C1008.93 149.067 1005.73 149.6 1002 149.6H1001.2L1000.4 148.8ZM1000.4 91.2004L1001.2 90.4004H1002C1005.73 90.4004 1008.93 90.9337 1011.6 92.0004C1014.8 93.0671 1017.47 94.4004 1019.6 96.0004C1022.27 97.6004 1024.4 99.7337 1026 102.4C1027.6 104.534 1028.93 107.2 1030 110.4C1031.07 113.067 1031.6 116.267 1031.6 120V120.8L1030.8 121.6H1000.4V91.2004ZM1003.6 91.2004V121.6H973.2L972.4 120.8V120C972.4 116.267 972.933 113.067 974 110.4C975.067 107.2 976.4 104.534 978 102.4C979.6 99.7337 981.467 97.6004 983.6 96.0004C986.267 94.4004 988.933 93.0671 991.6 92.0004C994.8 90.9337 998.267 90.4004 1002 90.4004H1002.8L1003.6 91.2004ZM1083.6 548.8L1082.8 549.6H1082C1078.27 549.6 1074.8 549.067 1071.6 548C1068.93 546.934 1066.27 545.6 1063.6 544C1061.47 542.4 1059.6 540.534 1058 538.4C1056.4 535.734 1055.07 533.067 1054 530.4C1052.93 527.2 1052.4 523.734 1052.4 520V519.2L1053.2 518.4H1083.6V548.8ZM1080.4 548.8V518.4H1110.8L1111.6 519.2V520C1111.6 523.734 1111.07 527.2 1110 530.4C1108.93 533.067 1107.6 535.734 1106 538.4C1104.4 540.534 1102.27 542.4 1099.6 544C1097.47 545.6 1094.8 546.934 1091.6 548C1088.93 549.067 1085.73 549.6 1082 549.6H1081.2L1080.4 548.8ZM1080.4 491.2L1081.2 490.4H1082C1085.73 490.4 1088.93 490.934 1091.6 492C1094.8 493.067 1097.47 494.4 1099.6 496C1102.27 497.6 1104.4 499.734 1106 502.4C1107.6 504.534 1108.93 507.2 1110 510.4C1111.07 513.067 1111.6 516.267 1111.6 520V520.8L1110.8 521.6H1080.4V491.2ZM1083.6 491.2V521.6H1053.2L1052.4 520.8V520C1052.4 516.267 1052.93 513.067 1054 510.4C1055.07 507.2 1056.4 504.534 1058 502.4C1059.6 499.734 1061.47 497.6 1063.6 496C1066.27 494.4 1068.93 493.067 1071.6 492C1074.8 490.934 1078.27 490.4 1082 490.4H1082.8L1083.6 491.2ZM1083.6 148.8L1082.8 149.6H1082C1078.27 149.6 1074.8 149.067 1071.6 148C1068.93 146.934 1066.27 145.6 1063.6 144C1061.47 142.4 1059.6 140.534 1058 138.4C1056.4 135.734 1055.07 133.067 1054 130.4C1052.93 127.2 1052.4 123.734 1052.4 120V119.2L1053.2 118.4H1083.6V148.8ZM1080.4 148.8V118.4H1110.8L1111.6 119.2V120C1111.6 123.734 1111.07 127.2 1110 130.4C1108.93 133.067 1107.6 135.734 1106 138.4C1104.4 140.534 1102.27 142.4 1099.6 144C1097.47 145.6 1094.8 146.934 1091.6 148C1088.93 149.067 1085.73 149.6 1082 149.6H1081.2L1080.4 148.8ZM1080.4 91.2004L1081.2 90.4004H1082C1085.73 90.4004 1088.93 90.9337 1091.6 92.0004C1094.8 93.0671 1097.47 94.4004 1099.6 96.0004C1102.27 97.6004 1104.4 99.7337 1106 102.4C1107.6 104.534 1108.93 107.2 1110 110.4C1111.07 113.067 1111.6 116.267 1111.6 120V120.8L1110.8 121.6H1080.4V91.2004ZM1083.6 91.2004V121.6H1053.2L1052.4 120.8V120C1052.4 116.267 1052.93 113.067 1054 110.4C1055.07 107.2 1056.4 104.534 1058 102.4C1059.6 99.7337 1061.47 97.6004 1063.6 96.0004C1066.27 94.4004 1068.93 93.0671 1071.6 92.0004C1074.8 90.9337 1078.27 90.4004 1082 90.4004H1082.8L1083.6 91.2004ZM1163.6 468.8L1162.8 469.6H1162C1158.27 469.6 1154.8 469.067 1151.6 468C1148.93 466.934 1146.27 465.6 1143.6 464C1141.47 462.4 1139.6 460.534 1138 458.4C1136.4 455.734 1135.07 453.067 1134 450.4C1132.93 447.2 1132.4 443.734 1132.4 440V439.2L1133.2 438.4H1163.6V468.8ZM1160.4 468.8V438.4H1190.8L1191.6 439.2V440C1191.6 443.734 1191.07 447.2 1190 450.4C1188.93 453.067 1187.6 455.734 1186 458.4C1184.4 460.534 1182.27 462.4 1179.6 464C1177.47 465.6 1174.8 466.934 1171.6 468C1168.93 469.067 1165.73 469.6 1162 469.6H1161.2L1160.4 468.8ZM1160.4 411.2L1161.2 410.4H1162C1165.73 410.4 1168.93 410.934 1171.6 412C1174.8 413.067 1177.47 414.4 1179.6 416C1182.27 417.6 1184.4 419.734 1186 422.4C1187.6 424.534 1188.93 427.2 1190 430.4C1191.07 433.067 1191.6 436.267 1191.6 440V440.8L1190.8 441.6H1160.4V411.2ZM1163.6 411.2V441.6H1133.2L1132.4 440.8V440C1132.4 436.267 1132.93 433.067 1134 430.4C1135.07 427.2 1136.4 424.534 1138 422.4C1139.6 419.734 1141.47 417.6 1143.6 416C1146.27 414.4 1148.93 413.067 1151.6 412C1154.8 410.934 1158.27 410.4 1162 410.4H1162.8L1163.6 411.2ZM1163.6 228.8L1162.8 229.6H1162C1158.27 229.6 1154.8 229.067 1151.6 228C1148.93 226.934 1146.27 225.6 1143.6 224C1141.47 222.4 1139.6 220.534 1138 218.4C1136.4 215.734 1135.07 213.067 1134 210.4C1132.93 207.2 1132.4 203.734 1132.4 200V199.2L1133.2 198.4H1163.6V228.8ZM1160.4 228.8V198.4H1190.8L1191.6 199.2V200C1191.6 203.734 1191.07 207.2 1190 210.4C1188.93 213.067 1187.6 215.734 1186 218.4C1184.4 220.534 1182.27 222.4 1179.6 224C1177.47 225.6 1174.8 226.934 1171.6 228C1168.93 229.067 1165.73 229.6 1162 229.6H1161.2L1160.4 228.8ZM1160.4 171.2L1161.2 170.4H1162C1165.73 170.4 1168.93 170.934 1171.6 172C1174.8 173.067 1177.47 174.4 1179.6 176C1182.27 177.6 1184.4 179.734 1186 182.4C1187.6 184.534 1188.93 187.2 1190 190.4C1191.07 193.067 1191.6 196.267 1191.6 200V200.8L1190.8 201.6H1160.4V171.2ZM1163.6 171.2V201.6H1133.2L1132.4 200.8V200C1132.4 196.267 1132.93 193.067 1134 190.4C1135.07 187.2 1136.4 184.534 1138 182.4C1139.6 179.734 1141.47 177.6 1143.6 176C1146.27 174.4 1148.93 173.067 1151.6 172C1154.8 170.934 1158.27 170.4 1162 170.4H1162.8L1163.6 171.2Z" fill="#FE4F17"/>
<path d="M1323.29 548.8L1322.49 549.6H1321.69C1317.95 549.6 1314.49 549.067 1311.29 548C1308.62 546.934 1305.95 545.6 1303.29 544C1301.15 542.4 1299.29 540.534 1297.69 538.4C1296.09 535.734 1294.75 533.067 1293.69 530.4C1292.62 527.2 1292.09 523.734 1292.09 520V519.2L1292.89 518.4H1323.29V548.8ZM1320.09 548.8V518.4H1350.49L1351.29 519.2V520C1351.29 523.734 1350.75 527.2 1349.69 530.4C1348.62 533.067 1347.29 535.734 1345.69 538.4C1344.09 540.534 1341.95 542.4 1339.29 544C1337.15 545.6 1334.49 546.934 1331.29 548C1328.62 549.067 1325.42 549.6 1321.69 549.6H1320.89L1320.09 548.8ZM1320.09 491.2L1320.89 490.4H1321.69C1325.42 490.4 1328.62 490.934 1331.29 492C1334.49 493.067 1337.15 494.4 1339.29 496C1341.95 497.6 1344.09 499.734 1345.69 502.4C1347.29 504.534 1348.62 507.2 1349.69 510.4C1350.75 513.067 1351.29 516.267 1351.29 520V520.8L1350.49 521.6H1320.09V491.2ZM1323.29 491.2V521.6H1292.89L1292.09 520.8V520C1292.09 516.267 1292.62 513.067 1293.69 510.4C1294.75 507.2 1296.09 504.534 1297.69 502.4C1299.29 499.734 1301.15 497.6 1303.29 496C1305.95 494.4 1308.62 493.067 1311.29 492C1314.49 490.934 1317.95 490.4 1321.69 490.4H1322.49L1323.29 491.2ZM1323.29 468.8L1322.49 469.6H1321.69C1317.95 469.6 1314.49 469.067 1311.29 468C1308.62 466.934 1305.95 465.6 1303.29 464C1301.15 462.4 1299.29 460.534 1297.69 458.4C1296.09 455.734 1294.75 453.067 1293.69 450.4C1292.62 447.2 1292.09 443.734 1292.09 440V439.2L1292.89 438.4H1323.29V468.8ZM1320.09 468.8V438.4H1350.49L1351.29 439.2V440C1351.29 443.734 1350.75 447.2 1349.69 450.4C1348.62 453.067 1347.29 455.734 1345.69 458.4C1344.09 460.534 1341.95 462.4 1339.29 464C1337.15 465.6 1334.49 466.934 1331.29 468C1328.62 469.067 1325.42 469.6 1321.69 469.6H1320.89L1320.09 468.8ZM1320.09 411.2L1320.89 410.4H1321.69C1325.42 410.4 1328.62 410.934 1331.29 412C1334.49 413.067 1337.15 414.4 1339.29 416C1341.95 417.6 1344.09 419.734 1345.69 422.4C1347.29 424.534 1348.62 427.2 1349.69 430.4C1350.75 433.067 1351.29 436.267 1351.29 440V440.8L1350.49 441.6H1320.09V411.2ZM1323.29 411.2V441.6H1292.89L1292.09 440.8V440C1292.09 436.267 1292.62 433.067 1293.69 430.4C1294.75 427.2 1296.09 424.534 1297.69 422.4C1299.29 419.734 1301.15 417.6 1303.29 416C1305.95 414.4 1308.62 413.067 1311.29 412C1314.49 410.934 1317.95 410.4 1321.69 410.4H1322.49L1323.29 411.2ZM1323.29 388.8L1322.49 389.6H1321.69C1317.95 389.6 1314.49 389.067 1311.29 388C1308.62 386.934 1305.95 385.6 1303.29 384C1301.15 382.4 1299.29 380.534 1297.69 378.4C1296.09 375.734 1294.75 373.067 1293.69 370.4C1292.62 367.2 1292.09 363.734 1292.09 360V359.2L1292.89 358.4H1323.29V388.8ZM1320.09 388.8V358.4H1350.49L1351.29 359.2V360C1351.29 363.734 1350.75 367.2 1349.69 370.4C1348.62 373.067 1347.29 375.734 1345.69 378.4C1344.09 380.534 1341.95 382.4 1339.29 384C1337.15 385.6 1334.49 386.934 1331.29 388C1328.62 389.067 1325.42 389.6 1321.69 389.6H1320.89L1320.09 388.8ZM1320.09 331.2L1320.89 330.4H1321.69C1325.42 330.4 1328.62 330.934 1331.29 332C1334.49 333.067 1337.15 334.4 1339.29 336C1341.95 337.6 1344.09 339.734 1345.69 342.4C1347.29 344.534 1348.62 347.2 1349.69 350.4C1350.75 353.067 1351.29 356.267 1351.29 360V360.8L1350.49 361.6H1320.09V331.2ZM1323.29 331.2V361.6H1292.89L1292.09 360.8V360C1292.09 356.267 1292.62 353.067 1293.69 350.4C1294.75 347.2 1296.09 344.534 1297.69 342.4C1299.29 339.734 1301.15 337.6 1303.29 336C1305.95 334.4 1308.62 333.067 1311.29 332C1314.49 330.934 1317.95 330.4 1321.69 330.4H1322.49L1323.29 331.2ZM1323.29 308.8L1322.49 309.6H1321.69C1317.95 309.6 1314.49 309.067 1311.29 308C1308.62 306.934 1305.95 305.6 1303.29 304C1301.15 302.4 1299.29 300.534 1297.69 298.4C1296.09 295.734 1294.75 293.067 1293.69 290.4C1292.62 287.2 1292.09 283.734 1292.09 280V279.2L1292.89 278.4H1323.29V308.8ZM1320.09 308.8V278.4H1350.49L1351.29 279.2V280C1351.29 283.734 1350.75 287.2 1349.69 290.4C1348.62 293.067 1347.29 295.734 1345.69 298.4C1344.09 300.534 1341.95 302.4 1339.29 304C1337.15 305.6 1334.49 306.934 1331.29 308C1328.62 309.067 1325.42 309.6 1321.69 309.6H1320.89L1320.09 308.8ZM1320.09 251.2L1320.89 250.4H1321.69C1325.42 250.4 1328.62 250.934 1331.29 252C1334.49 253.067 1337.15 254.4 1339.29 256C1341.95 257.6 1344.09 259.734 1345.69 262.4C1347.29 264.534 1348.62 267.2 1349.69 270.4C1350.75 273.067 1351.29 276.267 1351.29 280V280.8L1350.49 281.6H1320.09V251.2ZM1323.29 251.2V281.6H1292.89L1292.09 280.8V280C1292.09 276.267 1292.62 273.067 1293.69 270.4C1294.75 267.2 1296.09 264.534 1297.69 262.4C1299.29 259.734 1301.15 257.6 1303.29 256C1305.95 254.4 1308.62 253.067 1311.29 252C1314.49 250.934 1317.95 250.4 1321.69 250.4H1322.49L1323.29 251.2ZM1323.29 228.8L1322.49 229.6H1321.69C1317.95 229.6 1314.49 229.067 1311.29 228C1308.62 226.934 1305.95 225.6 1303.29 224C1301.15 222.4 1299.29 220.534 1297.69 218.4C1296.09 215.734 1294.75 213.067 1293.69 210.4C1292.62 207.2 1292.09 203.734 1292.09 200V199.2L1292.89 198.4H1323.29V228.8ZM1320.09 228.8V198.4H1350.49L1351.29 199.2V200C1351.29 203.734 1350.75 207.2 1349.69 210.4C1348.62 213.067 1347.29 215.734 1345.69 218.4C1344.09 220.534 1341.95 222.4 1339.29 224C1337.15 225.6 1334.49 226.934 1331.29 228C1328.62 229.067 1325.42 229.6 1321.69 229.6H1320.89L1320.09 228.8ZM1320.09 171.2L1320.89 170.4H1321.69C1325.42 170.4 1328.62 170.934 1331.29 172C1334.49 173.067 1337.15 174.4 1339.29 176C1341.95 177.6 1344.09 179.734 1345.69 182.4C1347.29 184.534 1348.62 187.2 1349.69 190.4C1350.75 193.067 1351.29 196.267 1351.29 200V200.8L1350.49 201.6H1320.09V171.2ZM1323.29 171.2V201.6H1292.89L1292.09 200.8V200C1292.09 196.267 1292.62 193.067 1293.69 190.4C1294.75 187.2 1296.09 184.534 1297.69 182.4C1299.29 179.734 1301.15 177.6 1303.29 176C1305.95 174.4 1308.62 173.067 1311.29 172C1314.49 170.934 1317.95 170.4 1321.69 170.4H1322.49L1323.29 171.2ZM1323.29 148.8L1322.49 149.6H1321.69C1317.95 149.6 1314.49 149.067 1311.29 148C1308.62 146.934 1305.95 145.6 1303.29 144C1301.15 142.4 1299.29 140.534 1297.69 138.4C1296.09 135.734 1294.75 133.067 1293.69 130.4C1292.62 127.2 1292.09 123.734 1292.09 120V119.2L1292.89 118.4H1323.29V148.8ZM1320.09 148.8V118.4H1350.49L1351.29 119.2V120C1351.29 123.734 1350.75 127.2 1349.69 130.4C1348.62 133.067 1347.29 135.734 1345.69 138.4C1344.09 140.534 1341.95 142.4 1339.29 144C1337.15 145.6 1334.49 146.934 1331.29 148C1328.62 149.067 1325.42 149.6 1321.69 149.6H1320.89L1320.09 148.8ZM1320.09 91.2004L1320.89 90.4004H1321.69C1325.42 90.4004 1328.62 90.9337 1331.29 92.0004C1334.49 93.0671 1337.15 94.4004 1339.29 96.0004C1341.95 97.6004 1344.09 99.7337 1345.69 102.4C1347.29 104.534 1348.62 107.2 1349.69 110.4C1350.75 113.067 1351.29 116.267 1351.29 120V120.8L1350.49 121.6H1320.09V91.2004ZM1323.29 91.2004V121.6H1292.89L1292.09 120.8V120C1292.09 116.267 1292.62 113.067 1293.69 110.4C1294.75 107.2 1296.09 104.534 1297.69 102.4C1299.29 99.7337 1301.15 97.6004 1303.29 96.0004C1305.95 94.4004 1308.62 93.0671 1311.29 92.0004C1314.49 90.9337 1317.95 90.4004 1321.69 90.4004H1322.49L1323.29 91.2004ZM1403.29 548.8L1402.49 549.6H1401.69C1397.95 549.6 1394.49 549.067 1391.29 548C1388.62 546.934 1385.95 545.6 1383.29 544C1381.15 542.4 1379.29 540.534 1377.69 538.4C1376.09 535.734 1374.75 533.067 1373.69 530.4C1372.62 527.2 1372.09 523.734 1372.09 520V519.2L1372.89 518.4H1403.29V548.8ZM1400.09 548.8V518.4H1430.49L1431.29 519.2V520C1431.29 523.734 1430.75 527.2 1429.69 530.4C1428.62 533.067 1427.29 535.734 1425.69 538.4C1424.09 540.534 1421.95 542.4 1419.29 544C1417.15 545.6 1414.49 546.934 1411.29 548C1408.62 549.067 1405.42 549.6 1401.69 549.6H1400.89L1400.09 548.8ZM1400.09 491.2L1400.89 490.4H1401.69C1405.42 490.4 1408.62 490.934 1411.29 492C1414.49 493.067 1417.15 494.4 1419.29 496C1421.95 497.6 1424.09 499.734 1425.69 502.4C1427.29 504.534 1428.62 507.2 1429.69 510.4C1430.75 513.067 1431.29 516.267 1431.29 520V520.8L1430.49 521.6H1400.09V491.2ZM1403.29 491.2V521.6H1372.89L1372.09 520.8V520C1372.09 516.267 1372.62 513.067 1373.69 510.4C1374.75 507.2 1376.09 504.534 1377.69 502.4C1379.29 499.734 1381.15 497.6 1383.29 496C1385.95 494.4 1388.62 493.067 1391.29 492C1394.49 490.934 1397.95 490.4 1401.69 490.4H1402.49L1403.29 491.2ZM1403.29 468.8L1402.49 469.6H1401.69C1397.95 469.6 1394.49 469.067 1391.29 468C1388.62 466.934 1385.95 465.6 1383.29 464C1381.15 462.4 1379.29 460.534 1377.69 458.4C1376.09 455.734 1374.75 453.067 1373.69 450.4C1372.62 447.2 1372.09 443.734 1372.09 440V439.2L1372.89 438.4H1403.29V468.8ZM1400.09 468.8V438.4H1430.49L1431.29 439.2V440C1431.29 443.734 1430.75 447.2 1429.69 450.4C1428.62 453.067 1427.29 455.734 1425.69 458.4C1424.09 460.534 1421.95 462.4 1419.29 464C1417.15 465.6 1414.49 466.934 1411.29 468C1408.62 469.067 1405.42 469.6 1401.69 469.6H1400.89L1400.09 468.8ZM1400.09 411.2L1400.89 410.4H1401.69C1405.42 410.4 1408.62 410.934 1411.29 412C1414.49 413.067 1417.15 414.4 1419.29 416C1421.95 417.6 1424.09 419.734 1425.69 422.4C1427.29 424.534 1428.62 427.2 1429.69 430.4C1430.75 433.067 1431.29 436.267 1431.29 440V440.8L1430.49 441.6H1400.09V411.2ZM1403.29 411.2V441.6H1372.89L1372.09 440.8V440C1372.09 436.267 1372.62 433.067 1373.69 430.4C1374.75 427.2 1376.09 424.534 1377.69 422.4C1379.29 419.734 1381.15 417.6 1383.29 416C1385.95 414.4 1388.62 413.067 1391.29 412C1394.49 410.934 1397.95 410.4 1401.69 410.4H1402.49L1403.29 411.2ZM1403.29 388.8L1402.49 389.6H1401.69C1397.95 389.6 1394.49 389.067 1391.29 388C1388.62 386.934 1385.95 385.6 1383.29 384C1381.15 382.4 1379.29 380.534 1377.69 378.4C1376.09 375.734 1374.75 373.067 1373.69 370.4C1372.62 367.2 1372.09 363.734 1372.09 360V359.2L1372.89 358.4H1403.29V388.8ZM1400.09 388.8V358.4H1430.49L1431.29 359.2V360C1431.29 363.734 1430.75 367.2 1429.69 370.4C1428.62 373.067 1427.29 375.734 1425.69 378.4C1424.09 380.534 1421.95 382.4 1419.29 384C1417.15 385.6 1414.49 386.934 1411.29 388C1408.62 389.067 1405.42 389.6 1401.69 389.6H1400.89L1400.09 388.8ZM1400.09 331.2L1400.89 330.4H1401.69C1405.42 330.4 1408.62 330.934 1411.29 332C1414.49 333.067 1417.15 334.4 1419.29 336C1421.95 337.6 1424.09 339.734 1425.69 342.4C1427.29 344.534 1428.62 347.2 1429.69 350.4C1430.75 353.067 1431.29 356.267 1431.29 360V360.8L1430.49 361.6H1400.09V331.2ZM1403.29 331.2V361.6H1372.89L1372.09 360.8V360C1372.09 356.267 1372.62 353.067 1373.69 350.4C1374.75 347.2 1376.09 344.534 1377.69 342.4C1379.29 339.734 1381.15 337.6 1383.29 336C1385.95 334.4 1388.62 333.067 1391.29 332C1394.49 330.934 1397.95 330.4 1401.69 330.4H1402.49L1403.29 331.2ZM1403.29 308.8L1402.49 309.6H1401.69C1397.95 309.6 1394.49 309.067 1391.29 308C1388.62 306.934 1385.95 305.6 1383.29 304C1381.15 302.4 1379.29 300.534 1377.69 298.4C1376.09 295.734 1374.75 293.067 1373.69 290.4C1372.62 287.2 1372.09 283.734 1372.09 280V279.2L1372.89 278.4H1403.29V308.8ZM1400.09 308.8V278.4H1430.49L1431.29 279.2V280C1431.29 283.734 1430.75 287.2 1429.69 290.4C1428.62 293.067 1427.29 295.734 1425.69 298.4C1424.09 300.534 1421.95 302.4 1419.29 304C1417.15 305.6 1414.49 306.934 1411.29 308C1408.62 309.067 1405.42 309.6 1401.69 309.6H1400.89L1400.09 308.8ZM1400.09 251.2L1400.89 250.4H1401.69C1405.42 250.4 1408.62 250.934 1411.29 252C1414.49 253.067 1417.15 254.4 1419.29 256C1421.95 257.6 1424.09 259.734 1425.69 262.4C1427.29 264.534 1428.62 267.2 1429.69 270.4C1430.75 273.067 1431.29 276.267 1431.29 280V280.8L1430.49 281.6H1400.09V251.2ZM1403.29 251.2V281.6H1372.89L1372.09 280.8V280C1372.09 276.267 1372.62 273.067 1373.69 270.4C1374.75 267.2 1376.09 264.534 1377.69 262.4C1379.29 259.734 1381.15 257.6 1383.29 256C1385.95 254.4 1388.62 253.067 1391.29 252C1394.49 250.934 1397.95 250.4 1401.69 250.4H1402.49L1403.29 251.2ZM1403.29 228.8L1402.49 229.6H1401.69C1397.95 229.6 1394.49 229.067 1391.29 228C1388.62 226.934 1385.95 225.6 1383.29 224C1381.15 222.4 1379.29 220.534 1377.69 218.4C1376.09 215.734 1374.75 213.067 1373.69 210.4C1372.62 207.2 1372.09 203.734 1372.09 200V199.2L1372.89 198.4H1403.29V228.8ZM1400.09 228.8V198.4H1430.49L1431.29 199.2V200C1431.29 203.734 1430.75 207.2 1429.69 210.4C1428.62 213.067 1427.29 215.734 1425.69 218.4C1424.09 220.534 1421.95 222.4 1419.29 224C1417.15 225.6 1414.49 226.934 1411.29 228C1408.62 229.067 1405.42 229.6 1401.69 229.6H1400.89L1400.09 228.8ZM1400.09 171.2L1400.89 170.4H1401.69C1405.42 170.4 1408.62 170.934 1411.29 172C1414.49 173.067 1417.15 174.4 1419.29 176C1421.95 177.6 1424.09 179.734 1425.69 182.4C1427.29 184.534 1428.62 187.2 1429.69 190.4C1430.75 193.067 1431.29 196.267 1431.29 200V200.8L1430.49 201.6H1400.09V171.2ZM1403.29 171.2V201.6H1372.89L1372.09 200.8V200C1372.09 196.267 1372.62 193.067 1373.69 190.4C1374.75 187.2 1376.09 184.534 1377.69 182.4C1379.29 179.734 1381.15 177.6 1383.29 176C1385.95 174.4 1388.62 173.067 1391.29 172C1394.49 170.934 1397.95 170.4 1401.69 170.4H1402.49L1403.29 171.2ZM1403.29 148.8L1402.49 149.6H1401.69C1397.95 149.6 1394.49 149.067 1391.29 148C1388.62 146.934 1385.95 145.6 1383.29 144C1381.15 142.4 1379.29 140.534 1377.69 138.4C1376.09 135.734 1374.75 133.067 1373.69 130.4C1372.62 127.2 1372.09 123.734 1372.09 120V119.2L1372.89 118.4H1403.29V148.8ZM1400.09 148.8V118.4H1430.49L1431.29 119.2V120C1431.29 123.734 1430.75 127.2 1429.69 130.4C1428.62 133.067 1427.29 135.734 1425.69 138.4C1424.09 140.534 1421.95 142.4 1419.29 144C1417.15 145.6 1414.49 146.934 1411.29 148C1408.62 149.067 1405.42 149.6 1401.69 149.6H1400.89L1400.09 148.8ZM1400.09 91.2004L1400.89 90.4004H1401.69C1405.42 90.4004 1408.62 90.9337 1411.29 92.0004C1414.49 93.0671 1417.15 94.4004 1419.29 96.0004C1421.95 97.6004 1424.09 99.7337 1425.69 102.4C1427.29 104.534 1428.62 107.2 1429.69 110.4C1430.75 113.067 1431.29 116.267 1431.29 120V120.8L1430.49 121.6H1400.09V91.2004ZM1403.29 91.2004V121.6H1372.89L1372.09 120.8V120C1372.09 116.267 1372.62 113.067 1373.69 110.4C1374.75 107.2 1376.09 104.534 1377.69 102.4C1379.29 99.7337 1381.15 97.6004 1383.29 96.0004C1385.95 94.4004 1388.62 93.0671 1391.29 92.0004C1394.49 90.9337 1397.95 90.4004 1401.69 90.4004H1402.49L1403.29 91.2004ZM1483.29 548.8L1482.49 549.6H1481.69C1477.95 549.6 1474.49 549.067 1471.29 548C1468.62 546.934 1465.95 545.6 1463.29 544C1461.15 542.4 1459.29 540.534 1457.69 538.4C1456.09 535.734 1454.75 533.067 1453.69 530.4C1452.62 527.2 1452.09 523.734 1452.09 520V519.2L1452.89 518.4H1483.29V548.8ZM1480.09 548.8V518.4H1510.49L1511.29 519.2V520C1511.29 523.734 1510.75 527.2 1509.69 530.4C1508.62 533.067 1507.29 535.734 1505.69 538.4C1504.09 540.534 1501.95 542.4 1499.29 544C1497.15 545.6 1494.49 546.934 1491.29 548C1488.62 549.067 1485.42 549.6 1481.69 549.6H1480.89L1480.09 548.8ZM1480.09 491.2L1480.89 490.4H1481.69C1485.42 490.4 1488.62 490.934 1491.29 492C1494.49 493.067 1497.15 494.4 1499.29 496C1501.95 497.6 1504.09 499.734 1505.69 502.4C1507.29 504.534 1508.62 507.2 1509.69 510.4C1510.75 513.067 1511.29 516.267 1511.29 520V520.8L1510.49 521.6H1480.09V491.2ZM1483.29 491.2V521.6H1452.89L1452.09 520.8V520C1452.09 516.267 1452.62 513.067 1453.69 510.4C1454.75 507.2 1456.09 504.534 1457.69 502.4C1459.29 499.734 1461.15 497.6 1463.29 496C1465.95 494.4 1468.62 493.067 1471.29 492C1474.49 490.934 1477.95 490.4 1481.69 490.4H1482.49L1483.29 491.2ZM1563.29 548.8L1562.49 549.6H1561.69C1557.95 549.6 1554.49 549.067 1551.29 548C1548.62 546.934 1545.95 545.6 1543.29 544C1541.15 542.4 1539.29 540.534 1537.69 538.4C1536.09 535.734 1534.75 533.067 1533.69 530.4C1532.62 527.2 1532.09 523.734 1532.09 520V519.2L1532.89 518.4H1563.29V548.8ZM1560.09 548.8V518.4H1590.49L1591.29 519.2V520C1591.29 523.734 1590.75 527.2 1589.69 530.4C1588.62 533.067 1587.29 535.734 1585.69 538.4C1584.09 540.534 1581.95 542.4 1579.29 544C1577.15 545.6 1574.49 546.934 1571.29 548C1568.62 549.067 1565.42 549.6 1561.69 549.6H1560.89L1560.09 548.8ZM1560.09 491.2L1560.89 490.4H1561.69C1565.42 490.4 1568.62 490.934 1571.29 492C1574.49 493.067 1577.15 494.4 1579.29 496C1581.95 497.6 1584.09 499.734 1585.69 502.4C1587.29 504.534 1588.62 507.2 1589.69 510.4C1590.75 513.067 1591.29 516.267 1591.29 520V520.8L1590.49 521.6H1560.09V491.2ZM1563.29 491.2V521.6H1532.89L1532.09 520.8V520C1532.09 516.267 1532.62 513.067 1533.69 510.4C1534.75 507.2 1536.09 504.534 1537.69 502.4C1539.29 499.734 1541.15 497.6 1543.29 496C1545.95 494.4 1548.62 493.067 1551.29 492C1554.49 490.934 1557.95 490.4 1561.69 490.4H1562.49L1563.29 491.2ZM1643.29 548.8L1642.49 549.6H1641.69C1637.95 549.6 1634.49 549.067 1631.29 548C1628.62 546.934 1625.95 545.6 1623.29 544C1621.15 542.4 1619.29 540.534 1617.69 538.4C1616.09 535.734 1614.75 533.067 1613.69 530.4C1612.62 527.2 1612.09 523.734 1612.09 520V519.2L1612.89 518.4H1643.29V548.8ZM1640.09 548.8V518.4H1670.49L1671.29 519.2V520C1671.29 523.734 1670.75 527.2 1669.69 530.4C1668.62 533.067 1667.29 535.734 1665.69 538.4C1664.09 540.534 1661.95 542.4 1659.29 544C1657.15 545.6 1654.49 546.934 1651.29 548C1648.62 549.067 1645.42 549.6 1641.69 549.6H1640.89L1640.09 548.8ZM1640.09 491.2L1640.89 490.4H1641.69C1645.42 490.4 1648.62 490.934 1651.29 492C1654.49 493.067 1657.15 494.4 1659.29 496C1661.95 497.6 1664.09 499.734 1665.69 502.4C1667.29 504.534 1668.62 507.2 1669.69 510.4C1670.75 513.067 1671.29 516.267 1671.29 520V520.8L1670.49 521.6H1640.09V491.2ZM1643.29 491.2V521.6H1612.89L1612.09 520.8V520C1612.09 516.267 1612.62 513.067 1613.69 510.4C1614.75 507.2 1616.09 504.534 1617.69 502.4C1619.29 499.734 1621.15 497.6 1623.29 496C1625.95 494.4 1628.62 493.067 1631.29 492C1634.49 490.934 1637.95 490.4 1641.69 490.4H1642.49L1643.29 491.2Z" fill="#FE4F17"/>
<path d="M1802.97 468.8L1802.17 469.6H1801.37C1797.64 469.6 1794.17 469.067 1790.97 468C1788.31 466.934 1785.64 465.6 1782.97 464C1780.84 462.4 1778.97 460.534 1777.37 458.4C1775.77 455.734 1774.44 453.067 1773.37 450.4C1772.31 447.2 1771.77 443.734 1771.77 440V439.2L1772.57 438.4H1802.97V468.8ZM1799.77 468.8V438.4H1830.17L1830.97 439.2V440C1830.97 443.734 1830.44 447.2 1829.37 450.4C1828.31 453.067 1826.97 455.734 1825.37 458.4C1823.77 460.534 1821.64 462.4 1818.97 464C1816.84 465.6 1814.17 466.934 1810.97 468C1808.31 469.067 1805.11 469.6 1801.37 469.6H1800.57L1799.77 468.8ZM1799.77 411.2L1800.57 410.4H1801.37C1805.11 410.4 1808.31 410.934 1810.97 412C1814.17 413.067 1816.84 414.4 1818.97 416C1821.64 417.6 1823.77 419.734 1825.37 422.4C1826.97 424.534 1828.31 427.2 1829.37 430.4C1830.44 433.067 1830.97 436.267 1830.97 440V440.8L1830.17 441.6H1799.77V411.2ZM1802.97 411.2V441.6H1772.57L1771.77 440.8V440C1771.77 436.267 1772.31 433.067 1773.37 430.4C1774.44 427.2 1775.77 424.534 1777.37 422.4C1778.97 419.734 1780.84 417.6 1782.97 416C1785.64 414.4 1788.31 413.067 1790.97 412C1794.17 410.934 1797.64 410.4 1801.37 410.4H1802.17L1802.97 411.2ZM1802.97 388.8L1802.17 389.6H1801.37C1797.64 389.6 1794.17 389.067 1790.97 388C1788.31 386.934 1785.64 385.6 1782.97 384C1780.84 382.4 1778.97 380.534 1777.37 378.4C1775.77 375.734 1774.44 373.067 1773.37 370.4C1772.31 367.2 1771.77 363.734 1771.77 360V359.2L1772.57 358.4H1802.97V388.8ZM1799.77 388.8V358.4H1830.17L1830.97 359.2V360C1830.97 363.734 1830.44 367.2 1829.37 370.4C1828.31 373.067 1826.97 375.734 1825.37 378.4C1823.77 380.534 1821.64 382.4 1818.97 384C1816.84 385.6 1814.17 386.934 1810.97 388C1808.31 389.067 1805.11 389.6 1801.37 389.6H1800.57L1799.77 388.8ZM1799.77 331.2L1800.57 330.4H1801.37C1805.11 330.4 1808.31 330.934 1810.97 332C1814.17 333.067 1816.84 334.4 1818.97 336C1821.64 337.6 1823.77 339.734 1825.37 342.4C1826.97 344.534 1828.31 347.2 1829.37 350.4C1830.44 353.067 1830.97 356.267 1830.97 360V360.8L1830.17 361.6H1799.77V331.2ZM1802.97 331.2V361.6H1772.57L1771.77 360.8V360C1771.77 356.267 1772.31 353.067 1773.37 350.4C1774.44 347.2 1775.77 344.534 1777.37 342.4C1778.97 339.734 1780.84 337.6 1782.97 336C1785.64 334.4 1788.31 333.067 1790.97 332C1794.17 330.934 1797.64 330.4 1801.37 330.4H1802.17L1802.97 331.2ZM1802.97 308.8L1802.17 309.6H1801.37C1797.64 309.6 1794.17 309.067 1790.97 308C1788.31 306.934 1785.64 305.6 1782.97 304C1780.84 302.4 1778.97 300.534 1777.37 298.4C1775.77 295.734 1774.44 293.067 1773.37 290.4C1772.31 287.2 1771.77 283.734 1771.77 280V279.2L1772.57 278.4H1802.97V308.8ZM1799.77 308.8V278.4H1830.17L1830.97 279.2V280C1830.97 283.734 1830.44 287.2 1829.37 290.4C1828.31 293.067 1826.97 295.734 1825.37 298.4C1823.77 300.534 1821.64 302.4 1818.97 304C1816.84 305.6 1814.17 306.934 1810.97 308C1808.31 309.067 1805.11 309.6 1801.37 309.6H1800.57L1799.77 308.8ZM1799.77 251.2L1800.57 250.4H1801.37C1805.11 250.4 1808.31 250.934 1810.97 252C1814.17 253.067 1816.84 254.4 1818.97 256C1821.64 257.6 1823.77 259.734 1825.37 262.4C1826.97 264.534 1828.31 267.2 1829.37 270.4C1830.44 273.067 1830.97 276.267 1830.97 280V280.8L1830.17 281.6H1799.77V251.2ZM1802.97 251.2V281.6H1772.57L1771.77 280.8V280C1771.77 276.267 1772.31 273.067 1773.37 270.4C1774.44 267.2 1775.77 264.534 1777.37 262.4C1778.97 259.734 1780.84 257.6 1782.97 256C1785.64 254.4 1788.31 253.067 1790.97 252C1794.17 250.934 1797.64 250.4 1801.37 250.4H1802.17L1802.97 251.2ZM1802.97 228.8L1802.17 229.6H1801.37C1797.64 229.6 1794.17 229.067 1790.97 228C1788.31 226.934 1785.64 225.6 1782.97 224C1780.84 222.4 1778.97 220.534 1777.37 218.4C1775.77 215.734 1774.44 213.067 1773.37 210.4C1772.31 207.2 1771.77 203.734 1771.77 200V199.2L1772.57 198.4H1802.97V228.8ZM1799.77 228.8V198.4H1830.17L1830.97 199.2V200C1830.97 203.734 1830.44 207.2 1829.37 210.4C1828.31 213.067 1826.97 215.734 1825.37 218.4C1823.77 220.534 1821.64 222.4 1818.97 224C1816.84 225.6 1814.17 226.934 1810.97 228C1808.31 229.067 1805.11 229.6 1801.37 229.6H1800.57L1799.77 228.8ZM1799.77 171.2L1800.57 170.4H1801.37C1805.11 170.4 1808.31 170.934 1810.97 172C1814.17 173.067 1816.84 174.4 1818.97 176C1821.64 177.6 1823.77 179.734 1825.37 182.4C1826.97 184.534 1828.31 187.2 1829.37 190.4C1830.44 193.067 1830.97 196.267 1830.97 200V200.8L1830.17 201.6H1799.77V171.2ZM1802.97 171.2V201.6H1772.57L1771.77 200.8V200C1771.77 196.267 1772.31 193.067 1773.37 190.4C1774.44 187.2 1775.77 184.534 1777.37 182.4C1778.97 179.734 1780.84 177.6 1782.97 176C1785.64 174.4 1788.31 173.067 1790.97 172C1794.17 170.934 1797.64 170.4 1801.37 170.4H1802.17L1802.97 171.2ZM1802.97 148.8L1802.17 149.6H1801.37C1797.64 149.6 1794.17 149.067 1790.97 148C1788.31 146.934 1785.64 145.6 1782.97 144C1780.84 142.4 1778.97 140.534 1777.37 138.4C1775.77 135.734 1774.44 133.067 1773.37 130.4C1772.31 127.2 1771.77 123.734 1771.77 120V119.2L1772.57 118.4H1802.97V148.8ZM1799.77 148.8V118.4H1830.17L1830.97 119.2V120C1830.97 123.734 1830.44 127.2 1829.37 130.4C1828.31 133.067 1826.97 135.734 1825.37 138.4C1823.77 140.534 1821.64 142.4 1818.97 144C1816.84 145.6 1814.17 146.934 1810.97 148C1808.31 149.067 1805.11 149.6 1801.37 149.6H1800.57L1799.77 148.8ZM1799.77 91.2004L1800.57 90.4004H1801.37C1805.11 90.4004 1808.31 90.9337 1810.97 92.0004C1814.17 93.0671 1816.84 94.4004 1818.97 96.0004C1821.64 97.6004 1823.77 99.7337 1825.37 102.4C1826.97 104.534 1828.31 107.2 1829.37 110.4C1830.44 113.067 1830.97 116.267 1830.97 120V120.8L1830.17 121.6H1799.77V91.2004ZM1802.97 91.2004V121.6H1772.57L1771.77 120.8V120C1771.77 116.267 1772.31 113.067 1773.37 110.4C1774.44 107.2 1775.77 104.534 1777.37 102.4C1778.97 99.7337 1780.84 97.6004 1782.97 96.0004C1785.64 94.4004 1788.31 93.0671 1790.97 92.0004C1794.17 90.9337 1797.64 90.4004 1801.37 90.4004H1802.17L1802.97 91.2004ZM1882.97 548.8L1882.17 549.6H1881.37C1877.64 549.6 1874.17 549.067 1870.97 548C1868.31 546.934 1865.64 545.6 1862.97 544C1860.84 542.4 1858.97 540.534 1857.37 538.4C1855.77 535.734 1854.44 533.067 1853.37 530.4C1852.31 527.2 1851.77 523.734 1851.77 520V519.2L1852.57 518.4H1882.97V548.8ZM1879.77 548.8V518.4H1910.17L1910.97 519.2V520C1910.97 523.734 1910.44 527.2 1909.37 530.4C1908.31 533.067 1906.97 535.734 1905.37 538.4C1903.77 540.534 1901.64 542.4 1898.97 544C1896.84 545.6 1894.17 546.934 1890.97 548C1888.31 549.067 1885.11 549.6 1881.37 549.6H1880.57L1879.77 548.8ZM1879.77 491.2L1880.57 490.4H1881.37C1885.11 490.4 1888.31 490.934 1890.97 492C1894.17 493.067 1896.84 494.4 1898.97 496C1901.64 497.6 1903.77 499.734 1905.37 502.4C1906.97 504.534 1908.31 507.2 1909.37 510.4C1910.44 513.067 1910.97 516.267 1910.97 520V520.8L1910.17 521.6H1879.77V491.2ZM1882.97 491.2V521.6H1852.57L1851.77 520.8V520C1851.77 516.267 1852.31 513.067 1853.37 510.4C1854.44 507.2 1855.77 504.534 1857.37 502.4C1858.97 499.734 1860.84 497.6 1862.97 496C1865.64 494.4 1868.31 493.067 1870.97 492C1874.17 490.934 1877.64 490.4 1881.37 490.4H1882.17L1882.97 491.2ZM1882.97 468.8L1882.17 469.6H1881.37C1877.64 469.6 1874.17 469.067 1870.97 468C1868.31 466.934 1865.64 465.6 1862.97 464C1860.84 462.4 1858.97 460.534 1857.37 458.4C1855.77 455.734 1854.44 453.067 1853.37 450.4C1852.31 447.2 1851.77 443.734 1851.77 440V439.2L1852.57 438.4H1882.97V468.8ZM1879.77 468.8V438.4H1910.17L1910.97 439.2V440C1910.97 443.734 1910.44 447.2 1909.37 450.4C1908.31 453.067 1906.97 455.734 1905.37 458.4C1903.77 460.534 1901.64 462.4 1898.97 464C1896.84 465.6 1894.17 466.934 1890.97 468C1888.31 469.067 1885.11 469.6 1881.37 469.6H1880.57L1879.77 468.8ZM1879.77 411.2L1880.57 410.4H1881.37C1885.11 410.4 1888.31 410.934 1890.97 412C1894.17 413.067 1896.84 414.4 1898.97 416C1901.64 417.6 1903.77 419.734 1905.37 422.4C1906.97 424.534 1908.31 427.2 1909.37 430.4C1910.44 433.067 1910.97 436.267 1910.97 440V440.8L1910.17 441.6H1879.77V411.2ZM1882.97 411.2V441.6H1852.57L1851.77 440.8V440C1851.77 436.267 1852.31 433.067 1853.37 430.4C1854.44 427.2 1855.77 424.534 1857.37 422.4C1858.97 419.734 1860.84 417.6 1862.97 416C1865.64 414.4 1868.31 413.067 1870.97 412C1874.17 410.934 1877.64 410.4 1881.37 410.4H1882.17L1882.97 411.2ZM1882.97 388.8L1882.17 389.6H1881.37C1877.64 389.6 1874.17 389.067 1870.97 388C1868.31 386.934 1865.64 385.6 1862.97 384C1860.84 382.4 1858.97 380.534 1857.37 378.4C1855.77 375.734 1854.44 373.067 1853.37 370.4C1852.31 367.2 1851.77 363.734 1851.77 360V359.2L1852.57 358.4H1882.97V388.8ZM1879.77 388.8V358.4H1910.17L1910.97 359.2V360C1910.97 363.734 1910.44 367.2 1909.37 370.4C1908.31 373.067 1906.97 375.734 1905.37 378.4C1903.77 380.534 1901.64 382.4 1898.97 384C1896.84 385.6 1894.17 386.934 1890.97 388C1888.31 389.067 1885.11 389.6 1881.37 389.6H1880.57L1879.77 388.8ZM1879.77 331.2L1880.57 330.4H1881.37C1885.11 330.4 1888.31 330.934 1890.97 332C1894.17 333.067 1896.84 334.4 1898.97 336C1901.64 337.6 1903.77 339.734 1905.37 342.4C1906.97 344.534 1908.31 347.2 1909.37 350.4C1910.44 353.067 1910.97 356.267 1910.97 360V360.8L1910.17 361.6H1879.77V331.2ZM1882.97 331.2V361.6H1852.57L1851.77 360.8V360C1851.77 356.267 1852.31 353.067 1853.37 350.4C1854.44 347.2 1855.77 344.534 1857.37 342.4C1858.97 339.734 1860.84 337.6 1862.97 336C1865.64 334.4 1868.31 333.067 1870.97 332C1874.17 330.934 1877.64 330.4 1881.37 330.4H1882.17L1882.97 331.2ZM1882.97 308.8L1882.17 309.6H1881.37C1877.64 309.6 1874.17 309.067 1870.97 308C1868.31 306.934 1865.64 305.6 1862.97 304C1860.84 302.4 1858.97 300.534 1857.37 298.4C1855.77 295.734 1854.44 293.067 1853.37 290.4C1852.31 287.2 1851.77 283.734 1851.77 280V279.2L1852.57 278.4H1882.97V308.8ZM1879.77 308.8V278.4H1910.17L1910.97 279.2V280C1910.97 283.734 1910.44 287.2 1909.37 290.4C1908.31 293.067 1906.97 295.734 1905.37 298.4C1903.77 300.534 1901.64 302.4 1898.97 304C1896.84 305.6 1894.17 306.934 1890.97 308C1888.31 309.067 1885.11 309.6 1881.37 309.6H1880.57L1879.77 308.8ZM1879.77 251.2L1880.57 250.4H1881.37C1885.11 250.4 1888.31 250.934 1890.97 252C1894.17 253.067 1896.84 254.4 1898.97 256C1901.64 257.6 1903.77 259.734 1905.37 262.4C1906.97 264.534 1908.31 267.2 1909.37 270.4C1910.44 273.067 1910.97 276.267 1910.97 280V280.8L1910.17 281.6H1879.77V251.2ZM1882.97 251.2V281.6H1852.57L1851.77 280.8V280C1851.77 276.267 1852.31 273.067 1853.37 270.4C1854.44 267.2 1855.77 264.534 1857.37 262.4C1858.97 259.734 1860.84 257.6 1862.97 256C1865.64 254.4 1868.31 253.067 1870.97 252C1874.17 250.934 1877.64 250.4 1881.37 250.4H1882.17L1882.97 251.2ZM1882.97 228.8L1882.17 229.6H1881.37C1877.64 229.6 1874.17 229.067 1870.97 228C1868.31 226.934 1865.64 225.6 1862.97 224C1860.84 222.4 1858.97 220.534 1857.37 218.4C1855.77 215.734 1854.44 213.067 1853.37 210.4C1852.31 207.2 1851.77 203.734 1851.77 200V199.2L1852.57 198.4H1882.97V228.8ZM1879.77 228.8V198.4H1910.17L1910.97 199.2V200C1910.97 203.734 1910.44 207.2 1909.37 210.4C1908.31 213.067 1906.97 215.734 1905.37 218.4C1903.77 220.534 1901.64 222.4 1898.97 224C1896.84 225.6 1894.17 226.934 1890.97 228C1888.31 229.067 1885.11 229.6 1881.37 229.6H1880.57L1879.77 228.8ZM1879.77 171.2L1880.57 170.4H1881.37C1885.11 170.4 1888.31 170.934 1890.97 172C1894.17 173.067 1896.84 174.4 1898.97 176C1901.64 177.6 1903.77 179.734 1905.37 182.4C1906.97 184.534 1908.31 187.2 1909.37 190.4C1910.44 193.067 1910.97 196.267 1910.97 200V200.8L1910.17 201.6H1879.77V171.2ZM1882.97 171.2V201.6H1852.57L1851.77 200.8V200C1851.77 196.267 1852.31 193.067 1853.37 190.4C1854.44 187.2 1855.77 184.534 1857.37 182.4C1858.97 179.734 1860.84 177.6 1862.97 176C1865.64 174.4 1868.31 173.067 1870.97 172C1874.17 170.934 1877.64 170.4 1881.37 170.4H1882.17L1882.97 171.2ZM1882.97 148.8L1882.17 149.6H1881.37C1877.64 149.6 1874.17 149.067 1870.97 148C1868.31 146.934 1865.64 145.6 1862.97 144C1860.84 142.4 1858.97 140.534 1857.37 138.4C1855.77 135.734 1854.44 133.067 1853.37 130.4C1852.31 127.2 1851.77 123.734 1851.77 120V119.2L1852.57 118.4H1882.97V148.8ZM1879.77 148.8V118.4H1910.17L1910.97 119.2V120C1910.97 123.734 1910.44 127.2 1909.37 130.4C1908.31 133.067 1906.97 135.734 1905.37 138.4C1903.77 140.534 1901.64 142.4 1898.97 144C1896.84 145.6 1894.17 146.934 1890.97 148C1888.31 149.067 1885.11 149.6 1881.37 149.6H1880.57L1879.77 148.8ZM1879.77 91.2004L1880.57 90.4004H1881.37C1885.11 90.4004 1888.31 90.9337 1890.97 92.0004C1894.17 93.0671 1896.84 94.4004 1898.97 96.0004C1901.64 97.6004 1903.77 99.7337 1905.37 102.4C1906.97 104.534 1908.31 107.2 1909.37 110.4C1910.44 113.067 1910.97 116.267 1910.97 120V120.8L1910.17 121.6H1879.77V91.2004ZM1882.97 91.2004V121.6H1852.57L1851.77 120.8V120C1851.77 116.267 1852.31 113.067 1853.37 110.4C1854.44 107.2 1855.77 104.534 1857.37 102.4C1858.97 99.7337 1860.84 97.6004 1862.97 96.0004C1865.64 94.4004 1868.31 93.0671 1870.97 92.0004C1874.17 90.9337 1877.64 90.4004 1881.37 90.4004H1882.17L1882.97 91.2004ZM1962.97 548.8L1962.17 549.6H1961.37C1957.64 549.6 1954.17 549.067 1950.97 548C1948.31 546.934 1945.64 545.6 1942.97 544C1940.84 542.4 1938.97 540.534 1937.37 538.4C1935.77 535.734 1934.44 533.067 1933.37 530.4C1932.31 527.2 1931.77 523.734 1931.77 520V519.2L1932.57 518.4H1962.97V548.8ZM1959.77 548.8V518.4H1990.17L1990.97 519.2V520C1990.97 523.734 1990.44 527.2 1989.37 530.4C1988.31 533.067 1986.97 535.734 1985.37 538.4C1983.77 540.534 1981.64 542.4 1978.97 544C1976.84 545.6 1974.17 546.934 1970.97 548C1968.31 549.067 1965.11 549.6 1961.37 549.6H1960.57L1959.77 548.8ZM1959.77 491.2L1960.57 490.4H1961.37C1965.11 490.4 1968.31 490.934 1970.97 492C1974.17 493.067 1976.84 494.4 1978.97 496C1981.64 497.6 1983.77 499.734 1985.37 502.4C1986.97 504.534 1988.31 507.2 1989.37 510.4C1990.44 513.067 1990.97 516.267 1990.97 520V520.8L1990.17 521.6H1959.77V491.2ZM1962.97 491.2V521.6H1932.57L1931.77 520.8V520C1931.77 516.267 1932.31 513.067 1933.37 510.4C1934.44 507.2 1935.77 504.534 1937.37 502.4C1938.97 499.734 1940.84 497.6 1942.97 496C1945.64 494.4 1948.31 493.067 1950.97 492C1954.17 490.934 1957.64 490.4 1961.37 490.4H1962.17L1962.97 491.2ZM2042.97 548.8L2042.17 549.6H2041.37C2037.64 549.6 2034.17 549.067 2030.97 548C2028.31 546.934 2025.64 545.6 2022.97 544C2020.84 542.4 2018.97 540.534 2017.37 538.4C2015.77 535.734 2014.44 533.067 2013.37 530.4C2012.31 527.2 2011.77 523.734 2011.77 520V519.2L2012.57 518.4H2042.97V548.8ZM2039.77 548.8V518.4H2070.17L2070.97 519.2V520C2070.97 523.734 2070.44 527.2 2069.37 530.4C2068.31 533.067 2066.97 535.734 2065.37 538.4C2063.77 540.534 2061.64 542.4 2058.97 544C2056.84 545.6 2054.17 546.934 2050.97 548C2048.31 549.067 2045.11 549.6 2041.37 549.6H2040.57L2039.77 548.8ZM2039.77 491.2L2040.57 490.4H2041.37C2045.11 490.4 2048.31 490.934 2050.97 492C2054.17 493.067 2056.84 494.4 2058.97 496C2061.64 497.6 2063.77 499.734 2065.37 502.4C2066.97 504.534 2068.31 507.2 2069.37 510.4C2070.44 513.067 2070.97 516.267 2070.97 520V520.8L2070.17 521.6H2039.77V491.2ZM2042.97 491.2V521.6H2012.57L2011.77 520.8V520C2011.77 516.267 2012.31 513.067 2013.37 510.4C2014.44 507.2 2015.77 504.534 2017.37 502.4C2018.97 499.734 2020.84 497.6 2022.97 496C2025.64 494.4 2028.31 493.067 2030.97 492C2034.17 490.934 2037.64 490.4 2041.37 490.4H2042.17L2042.97 491.2ZM2122.97 468.8L2122.17 469.6H2121.37C2117.64 469.6 2114.17 469.067 2110.97 468C2108.31 466.934 2105.64 465.6 2102.97 464C2100.84 462.4 2098.97 460.534 2097.37 458.4C2095.77 455.734 2094.44 453.067 2093.37 450.4C2092.31 447.2 2091.77 443.734 2091.77 440V439.2L2092.57 438.4H2122.97V468.8ZM2119.77 468.8V438.4H2150.17L2150.97 439.2V440C2150.97 443.734 2150.44 447.2 2149.37 450.4C2148.31 453.067 2146.97 455.734 2145.37 458.4C2143.77 460.534 2141.64 462.4 2138.97 464C2136.84 465.6 2134.17 466.934 2130.97 468C2128.31 469.067 2125.11 469.6 2121.37 469.6H2120.57L2119.77 468.8ZM2119.77 411.2L2120.57 410.4H2121.37C2125.11 410.4 2128.31 410.934 2130.97 412C2134.17 413.067 2136.84 414.4 2138.97 416C2141.64 417.6 2143.77 419.734 2145.37 422.4C2146.97 424.534 2148.31 427.2 2149.37 430.4C2150.44 433.067 2150.97 436.267 2150.97 440V440.8L2150.17 441.6H2119.77V411.2ZM2122.97 411.2V441.6H2092.57L2091.77 440.8V440C2091.77 436.267 2092.31 433.067 2093.37 430.4C2094.44 427.2 2095.77 424.534 2097.37 422.4C2098.97 419.734 2100.84 417.6 2102.97 416C2105.64 414.4 2108.31 413.067 2110.97 412C2114.17 410.934 2117.64 410.4 2121.37 410.4H2122.17L2122.97 411.2ZM2122.97 388.8L2122.17 389.6H2121.37C2117.64 389.6 2114.17 389.067 2110.97 388C2108.31 386.934 2105.64 385.6 2102.97 384C2100.84 382.4 2098.97 380.534 2097.37 378.4C2095.77 375.734 2094.44 373.067 2093.37 370.4C2092.31 367.2 2091.77 363.734 2091.77 360V359.2L2092.57 358.4H2122.97V388.8ZM2119.77 388.8V358.4H2150.17L2150.97 359.2V360C2150.97 363.734 2150.44 367.2 2149.37 370.4C2148.31 373.067 2146.97 375.734 2145.37 378.4C2143.77 380.534 2141.64 382.4 2138.97 384C2136.84 385.6 2134.17 386.934 2130.97 388C2128.31 389.067 2125.11 389.6 2121.37 389.6H2120.57L2119.77 388.8ZM2119.77 331.2L2120.57 330.4H2121.37C2125.11 330.4 2128.31 330.934 2130.97 332C2134.17 333.067 2136.84 334.4 2138.97 336C2141.64 337.6 2143.77 339.734 2145.37 342.4C2146.97 344.534 2148.31 347.2 2149.37 350.4C2150.44 353.067 2150.97 356.267 2150.97 360V360.8L2150.17 361.6H2119.77V331.2ZM2122.97 331.2V361.6H2092.57L2091.77 360.8V360C2091.77 356.267 2092.31 353.067 2093.37 350.4C2094.44 347.2 2095.77 344.534 2097.37 342.4C2098.97 339.734 2100.84 337.6 2102.97 336C2105.64 334.4 2108.31 333.067 2110.97 332C2114.17 330.934 2117.64 330.4 2121.37 330.4H2122.17L2122.97 331.2ZM2122.97 308.8L2122.17 309.6H2121.37C2117.64 309.6 2114.17 309.067 2110.97 308C2108.31 306.934 2105.64 305.6 2102.97 304C2100.84 302.4 2098.97 300.534 2097.37 298.4C2095.77 295.734 2094.44 293.067 2093.37 290.4C2092.31 287.2 2091.77 283.734 2091.77 280V279.2L2092.57 278.4H2122.97V308.8ZM2119.77 308.8V278.4H2150.17L2150.97 279.2V280C2150.97 283.734 2150.44 287.2 2149.37 290.4C2148.31 293.067 2146.97 295.734 2145.37 298.4C2143.77 300.534 2141.64 302.4 2138.97 304C2136.84 305.6 2134.17 306.934 2130.97 308C2128.31 309.067 2125.11 309.6 2121.37 309.6H2120.57L2119.77 308.8ZM2119.77 251.2L2120.57 250.4H2121.37C2125.11 250.4 2128.31 250.934 2130.97 252C2134.17 253.067 2136.84 254.4 2138.97 256C2141.64 257.6 2143.77 259.734 2145.37 262.4C2146.97 264.534 2148.31 267.2 2149.37 270.4C2150.44 273.067 2150.97 276.267 2150.97 280V280.8L2150.17 281.6H2119.77V251.2ZM2122.97 251.2V281.6H2092.57L2091.77 280.8V280C2091.77 276.267 2092.31 273.067 2093.37 270.4C2094.44 267.2 2095.77 264.534 2097.37 262.4C2098.97 259.734 2100.84 257.6 2102.97 256C2105.64 254.4 2108.31 253.067 2110.97 252C2114.17 250.934 2117.64 250.4 2121.37 250.4H2122.17L2122.97 251.2ZM2122.97 228.8L2122.17 229.6H2121.37C2117.64 229.6 2114.17 229.067 2110.97 228C2108.31 226.934 2105.64 225.6 2102.97 224C2100.84 222.4 2098.97 220.534 2097.37 218.4C2095.77 215.734 2094.44 213.067 2093.37 210.4C2092.31 207.2 2091.77 203.734 2091.77 200V199.2L2092.57 198.4H2122.97V228.8ZM2119.77 228.8V198.4H2150.17L2150.97 199.2V200C2150.97 203.734 2150.44 207.2 2149.37 210.4C2148.31 213.067 2146.97 215.734 2145.37 218.4C2143.77 220.534 2141.64 222.4 2138.97 224C2136.84 225.6 2134.17 226.934 2130.97 228C2128.31 229.067 2125.11 229.6 2121.37 229.6H2120.57L2119.77 228.8ZM2119.77 171.2L2120.57 170.4H2121.37C2125.11 170.4 2128.31 170.934 2130.97 172C2134.17 173.067 2136.84 174.4 2138.97 176C2141.64 177.6 2143.77 179.734 2145.37 182.4C2146.97 184.534 2148.31 187.2 2149.37 190.4C2150.44 193.067 2150.97 196.267 2150.97 200V200.8L2150.17 201.6H2119.77V171.2ZM2122.97 171.2V201.6H2092.57L2091.77 200.8V200C2091.77 196.267 2092.31 193.067 2093.37 190.4C2094.44 187.2 2095.77 184.534 2097.37 182.4C2098.97 179.734 2100.84 177.6 2102.97 176C2105.64 174.4 2108.31 173.067 2110.97 172C2114.17 170.934 2117.64 170.4 2121.37 170.4H2122.17L2122.97 171.2ZM2122.97 148.8L2122.17 149.6H2121.37C2117.64 149.6 2114.17 149.067 2110.97 148C2108.31 146.934 2105.64 145.6 2102.97 144C2100.84 142.4 2098.97 140.534 2097.37 138.4C2095.77 135.734 2094.44 133.067 2093.37 130.4C2092.31 127.2 2091.77 123.734 2091.77 120V119.2L2092.57 118.4H2122.97V148.8ZM2119.77 148.8V118.4H2150.17L2150.97 119.2V120C2150.97 123.734 2150.44 127.2 2149.37 130.4C2148.31 133.067 2146.97 135.734 2145.37 138.4C2143.77 140.534 2141.64 142.4 2138.97 144C2136.84 145.6 2134.17 146.934 2130.97 148C2128.31 149.067 2125.11 149.6 2121.37 149.6H2120.57L2119.77 148.8ZM2119.77 91.2004L2120.57 90.4004H2121.37C2125.11 90.4004 2128.31 90.9337 2130.97 92.0004C2134.17 93.0671 2136.84 94.4004 2138.97 96.0004C2141.64 97.6004 2143.77 99.7337 2145.37 102.4C2146.97 104.534 2148.31 107.2 2149.37 110.4C2150.44 113.067 2150.97 116.267 2150.97 120V120.8L2150.17 121.6H2119.77V91.2004ZM2122.97 91.2004V121.6H2092.57L2091.77 120.8V120C2091.77 116.267 2092.31 113.067 2093.37 110.4C2094.44 107.2 2095.77 104.534 2097.37 102.4C2098.97 99.7337 2100.84 97.6004 2102.97 96.0004C2105.64 94.4004 2108.31 93.0671 2110.97 92.0004C2114.17 90.9337 2117.64 90.4004 2121.37 90.4004H2122.17L2122.97 91.2004Z" fill="#FE4F17"/>
<path d="M2282.66 548.8L2281.86 549.6H2281.06C2277.33 549.6 2273.86 549.067 2270.66 548C2268 546.934 2265.33 545.6 2262.66 544C2260.53 542.4 2258.66 540.534 2257.06 538.4C2255.46 535.734 2254.13 533.067 2253.06 530.4C2252 527.2 2251.46 523.734 2251.46 520V519.2L2252.26 518.4H2282.66V548.8ZM2279.46 548.8V518.4H2309.86L2310.66 519.2V520C2310.66 523.734 2310.13 527.2 2309.06 530.4C2308 533.067 2306.66 535.734 2305.06 538.4C2303.46 540.534 2301.33 542.4 2298.66 544C2296.53 545.6 2293.86 546.934 2290.66 548C2288 549.067 2284.8 549.6 2281.06 549.6H2280.26L2279.46 548.8ZM2279.46 491.2L2280.26 490.4H2281.06C2284.8 490.4 2288 490.934 2290.66 492C2293.86 493.067 2296.53 494.4 2298.66 496C2301.33 497.6 2303.46 499.734 2305.06 502.4C2306.66 504.534 2308 507.2 2309.06 510.4C2310.13 513.067 2310.66 516.267 2310.66 520V520.8L2309.86 521.6H2279.46V491.2ZM2282.66 491.2V521.6H2252.26L2251.46 520.8V520C2251.46 516.267 2252 513.067 2253.06 510.4C2254.13 507.2 2255.46 504.534 2257.06 502.4C2258.66 499.734 2260.53 497.6 2262.66 496C2265.33 494.4 2268 493.067 2270.66 492C2273.86 490.934 2277.33 490.4 2281.06 490.4H2281.86L2282.66 491.2ZM2282.66 468.8L2281.86 469.6H2281.06C2277.33 469.6 2273.86 469.067 2270.66 468C2268 466.934 2265.33 465.6 2262.66 464C2260.53 462.4 2258.66 460.534 2257.06 458.4C2255.46 455.734 2254.13 453.067 2253.06 450.4C2252 447.2 2251.46 443.734 2251.46 440V439.2L2252.26 438.4H2282.66V468.8ZM2279.46 468.8V438.4H2309.86L2310.66 439.2V440C2310.66 443.734 2310.13 447.2 2309.06 450.4C2308 453.067 2306.66 455.734 2305.06 458.4C2303.46 460.534 2301.33 462.4 2298.66 464C2296.53 465.6 2293.86 466.934 2290.66 468C2288 469.067 2284.8 469.6 2281.06 469.6H2280.26L2279.46 468.8ZM2279.46 411.2L2280.26 410.4H2281.06C2284.8 410.4 2288 410.934 2290.66 412C2293.86 413.067 2296.53 414.4 2298.66 416C2301.33 417.6 2303.46 419.734 2305.06 422.4C2306.66 424.534 2308 427.2 2309.06 430.4C2310.13 433.067 2310.66 436.267 2310.66 440V440.8L2309.86 441.6H2279.46V411.2ZM2282.66 411.2V441.6H2252.26L2251.46 440.8V440C2251.46 436.267 2252 433.067 2253.06 430.4C2254.13 427.2 2255.46 424.534 2257.06 422.4C2258.66 419.734 2260.53 417.6 2262.66 416C2265.33 414.4 2268 413.067 2270.66 412C2273.86 410.934 2277.33 410.4 2281.06 410.4H2281.86L2282.66 411.2ZM2282.66 388.8L2281.86 389.6H2281.06C2277.33 389.6 2273.86 389.067 2270.66 388C2268 386.934 2265.33 385.6 2262.66 384C2260.53 382.4 2258.66 380.534 2257.06 378.4C2255.46 375.734 2254.13 373.067 2253.06 370.4C2252 367.2 2251.46 363.734 2251.46 360V359.2L2252.26 358.4H2282.66V388.8ZM2279.46 388.8V358.4H2309.86L2310.66 359.2V360C2310.66 363.734 2310.13 367.2 2309.06 370.4C2308 373.067 2306.66 375.734 2305.06 378.4C2303.46 380.534 2301.33 382.4 2298.66 384C2296.53 385.6 2293.86 386.934 2290.66 388C2288 389.067 2284.8 389.6 2281.06 389.6H2280.26L2279.46 388.8ZM2279.46 331.2L2280.26 330.4H2281.06C2284.8 330.4 2288 330.934 2290.66 332C2293.86 333.067 2296.53 334.4 2298.66 336C2301.33 337.6 2303.46 339.734 2305.06 342.4C2306.66 344.534 2308 347.2 2309.06 350.4C2310.13 353.067 2310.66 356.267 2310.66 360V360.8L2309.86 361.6H2279.46V331.2ZM2282.66 331.2V361.6H2252.26L2251.46 360.8V360C2251.46 356.267 2252 353.067 2253.06 350.4C2254.13 347.2 2255.46 344.534 2257.06 342.4C2258.66 339.734 2260.53 337.6 2262.66 336C2265.33 334.4 2268 333.067 2270.66 332C2273.86 330.934 2277.33 330.4 2281.06 330.4H2281.86L2282.66 331.2ZM2282.66 308.8L2281.86 309.6H2281.06C2277.33 309.6 2273.86 309.067 2270.66 308C2268 306.934 2265.33 305.6 2262.66 304C2260.53 302.4 2258.66 300.534 2257.06 298.4C2255.46 295.734 2254.13 293.067 2253.06 290.4C2252 287.2 2251.46 283.734 2251.46 280V279.2L2252.26 278.4H2282.66V308.8ZM2279.46 308.8V278.4H2309.86L2310.66 279.2V280C2310.66 283.734 2310.13 287.2 2309.06 290.4C2308 293.067 2306.66 295.734 2305.06 298.4C2303.46 300.534 2301.33 302.4 2298.66 304C2296.53 305.6 2293.86 306.934 2290.66 308C2288 309.067 2284.8 309.6 2281.06 309.6H2280.26L2279.46 308.8ZM2279.46 251.2L2280.26 250.4H2281.06C2284.8 250.4 2288 250.934 2290.66 252C2293.86 253.067 2296.53 254.4 2298.66 256C2301.33 257.6 2303.46 259.734 2305.06 262.4C2306.66 264.534 2308 267.2 2309.06 270.4C2310.13 273.067 2310.66 276.267 2310.66 280V280.8L2309.86 281.6H2279.46V251.2ZM2282.66 251.2V281.6H2252.26L2251.46 280.8V280C2251.46 276.267 2252 273.067 2253.06 270.4C2254.13 267.2 2255.46 264.534 2257.06 262.4C2258.66 259.734 2260.53 257.6 2262.66 256C2265.33 254.4 2268 253.067 2270.66 252C2273.86 250.934 2277.33 250.4 2281.06 250.4H2281.86L2282.66 251.2ZM2282.66 228.8L2281.86 229.6H2281.06C2277.33 229.6 2273.86 229.067 2270.66 228C2268 226.934 2265.33 225.6 2262.66 224C2260.53 222.4 2258.66 220.534 2257.06 218.4C2255.46 215.734 2254.13 213.067 2253.06 210.4C2252 207.2 2251.46 203.734 2251.46 200V199.2L2252.26 198.4H2282.66V228.8ZM2279.46 228.8V198.4H2309.86L2310.66 199.2V200C2310.66 203.734 2310.13 207.2 2309.06 210.4C2308 213.067 2306.66 215.734 2305.06 218.4C2303.46 220.534 2301.33 222.4 2298.66 224C2296.53 225.6 2293.86 226.934 2290.66 228C2288 229.067 2284.8 229.6 2281.06 229.6H2280.26L2279.46 228.8ZM2279.46 171.2L2280.26 170.4H2281.06C2284.8 170.4 2288 170.934 2290.66 172C2293.86 173.067 2296.53 174.4 2298.66 176C2301.33 177.6 2303.46 179.734 2305.06 182.4C2306.66 184.534 2308 187.2 2309.06 190.4C2310.13 193.067 2310.66 196.267 2310.66 200V200.8L2309.86 201.6H2279.46V171.2ZM2282.66 171.2V201.6H2252.26L2251.46 200.8V200C2251.46 196.267 2252 193.067 2253.06 190.4C2254.13 187.2 2255.46 184.534 2257.06 182.4C2258.66 179.734 2260.53 177.6 2262.66 176C2265.33 174.4 2268 173.067 2270.66 172C2273.86 170.934 2277.33 170.4 2281.06 170.4H2281.86L2282.66 171.2ZM2282.66 148.8L2281.86 149.6H2281.06C2277.33 149.6 2273.86 149.067 2270.66 148C2268 146.934 2265.33 145.6 2262.66 144C2260.53 142.4 2258.66 140.534 2257.06 138.4C2255.46 135.734 2254.13 133.067 2253.06 130.4C2252 127.2 2251.46 123.734 2251.46 120V119.2L2252.26 118.4H2282.66V148.8ZM2279.46 148.8V118.4H2309.86L2310.66 119.2V120C2310.66 123.734 2310.13 127.2 2309.06 130.4C2308 133.067 2306.66 135.734 2305.06 138.4C2303.46 140.534 2301.33 142.4 2298.66 144C2296.53 145.6 2293.86 146.934 2290.66 148C2288 149.067 2284.8 149.6 2281.06 149.6H2280.26L2279.46 148.8ZM2279.46 91.2004L2280.26 90.4004H2281.06C2284.8 90.4004 2288 90.9337 2290.66 92.0004C2293.86 93.0671 2296.53 94.4004 2298.66 96.0004C2301.33 97.6004 2303.46 99.7337 2305.06 102.4C2306.66 104.534 2308 107.2 2309.06 110.4C2310.13 113.067 2310.66 116.267 2310.66 120V120.8L2309.86 121.6H2279.46V91.2004ZM2282.66 91.2004V121.6H2252.26L2251.46 120.8V120C2251.46 116.267 2252 113.067 2253.06 110.4C2254.13 107.2 2255.46 104.534 2257.06 102.4C2258.66 99.7337 2260.53 97.6004 2262.66 96.0004C2265.33 94.4004 2268 93.0671 2270.66 92.0004C2273.86 90.9337 2277.33 90.4004 2281.06 90.4004H2281.86L2282.66 91.2004ZM2362.66 548.8L2361.86 549.6H2361.06C2357.33 549.6 2353.86 549.067 2350.66 548C2348 546.934 2345.33 545.6 2342.66 544C2340.53 542.4 2338.66 540.534 2337.06 538.4C2335.46 535.734 2334.13 533.067 2333.06 530.4C2332 527.2 2331.46 523.734 2331.46 520V519.2L2332.26 518.4H2362.66V548.8ZM2359.46 548.8V518.4H2389.86L2390.66 519.2V520C2390.66 523.734 2390.13 527.2 2389.06 530.4C2388 533.067 2386.66 535.734 2385.06 538.4C2383.46 540.534 2381.33 542.4 2378.66 544C2376.53 545.6 2373.86 546.934 2370.66 548C2368 549.067 2364.8 549.6 2361.06 549.6H2360.26L2359.46 548.8ZM2359.46 491.2L2360.26 490.4H2361.06C2364.8 490.4 2368 490.934 2370.66 492C2373.86 493.067 2376.53 494.4 2378.66 496C2381.33 497.6 2383.46 499.734 2385.06 502.4C2386.66 504.534 2388 507.2 2389.06 510.4C2390.13 513.067 2390.66 516.267 2390.66 520V520.8L2389.86 521.6H2359.46V491.2ZM2362.66 491.2V521.6H2332.26L2331.46 520.8V520C2331.46 516.267 2332 513.067 2333.06 510.4C2334.13 507.2 2335.46 504.534 2337.06 502.4C2338.66 499.734 2340.53 497.6 2342.66 496C2345.33 494.4 2348 493.067 2350.66 492C2353.86 490.934 2357.33 490.4 2361.06 490.4H2361.86L2362.66 491.2ZM2362.66 468.8L2361.86 469.6H2361.06C2357.33 469.6 2353.86 469.067 2350.66 468C2348 466.934 2345.33 465.6 2342.66 464C2340.53 462.4 2338.66 460.534 2337.06 458.4C2335.46 455.734 2334.13 453.067 2333.06 450.4C2332 447.2 2331.46 443.734 2331.46 440V439.2L2332.26 438.4H2362.66V468.8ZM2359.46 468.8V438.4H2389.86L2390.66 439.2V440C2390.66 443.734 2390.13 447.2 2389.06 450.4C2388 453.067 2386.66 455.734 2385.06 458.4C2383.46 460.534 2381.33 462.4 2378.66 464C2376.53 465.6 2373.86 466.934 2370.66 468C2368 469.067 2364.8 469.6 2361.06 469.6H2360.26L2359.46 468.8ZM2359.46 411.2L2360.26 410.4H2361.06C2364.8 410.4 2368 410.934 2370.66 412C2373.86 413.067 2376.53 414.4 2378.66 416C2381.33 417.6 2383.46 419.734 2385.06 422.4C2386.66 424.534 2388 427.2 2389.06 430.4C2390.13 433.067 2390.66 436.267 2390.66 440V440.8L2389.86 441.6H2359.46V411.2ZM2362.66 411.2V441.6H2332.26L2331.46 440.8V440C2331.46 436.267 2332 433.067 2333.06 430.4C2334.13 427.2 2335.46 424.534 2337.06 422.4C2338.66 419.734 2340.53 417.6 2342.66 416C2345.33 414.4 2348 413.067 2350.66 412C2353.86 410.934 2357.33 410.4 2361.06 410.4H2361.86L2362.66 411.2ZM2362.66 388.8L2361.86 389.6H2361.06C2357.33 389.6 2353.86 389.067 2350.66 388C2348 386.934 2345.33 385.6 2342.66 384C2340.53 382.4 2338.66 380.534 2337.06 378.4C2335.46 375.734 2334.13 373.067 2333.06 370.4C2332 367.2 2331.46 363.734 2331.46 360V359.2L2332.26 358.4H2362.66V388.8ZM2359.46 388.8V358.4H2389.86L2390.66 359.2V360C2390.66 363.734 2390.13 367.2 2389.06 370.4C2388 373.067 2386.66 375.734 2385.06 378.4C2383.46 380.534 2381.33 382.4 2378.66 384C2376.53 385.6 2373.86 386.934 2370.66 388C2368 389.067 2364.8 389.6 2361.06 389.6H2360.26L2359.46 388.8ZM2359.46 331.2L2360.26 330.4H2361.06C2364.8 330.4 2368 330.934 2370.66 332C2373.86 333.067 2376.53 334.4 2378.66 336C2381.33 337.6 2383.46 339.734 2385.06 342.4C2386.66 344.534 2388 347.2 2389.06 350.4C2390.13 353.067 2390.66 356.267 2390.66 360V360.8L2389.86 361.6H2359.46V331.2ZM2362.66 331.2V361.6H2332.26L2331.46 360.8V360C2331.46 356.267 2332 353.067 2333.06 350.4C2334.13 347.2 2335.46 344.534 2337.06 342.4C2338.66 339.734 2340.53 337.6 2342.66 336C2345.33 334.4 2348 333.067 2350.66 332C2353.86 330.934 2357.33 330.4 2361.06 330.4H2361.86L2362.66 331.2ZM2362.66 308.8L2361.86 309.6H2361.06C2357.33 309.6 2353.86 309.067 2350.66 308C2348 306.934 2345.33 305.6 2342.66 304C2340.53 302.4 2338.66 300.534 2337.06 298.4C2335.46 295.734 2334.13 293.067 2333.06 290.4C2332 287.2 2331.46 283.734 2331.46 280V279.2L2332.26 278.4H2362.66V308.8ZM2359.46 308.8V278.4H2389.86L2390.66 279.2V280C2390.66 283.734 2390.13 287.2 2389.06 290.4C2388 293.067 2386.66 295.734 2385.06 298.4C2383.46 300.534 2381.33 302.4 2378.66 304C2376.53 305.6 2373.86 306.934 2370.66 308C2368 309.067 2364.8 309.6 2361.06 309.6H2360.26L2359.46 308.8ZM2359.46 251.2L2360.26 250.4H2361.06C2364.8 250.4 2368 250.934 2370.66 252C2373.86 253.067 2376.53 254.4 2378.66 256C2381.33 257.6 2383.46 259.734 2385.06 262.4C2386.66 264.534 2388 267.2 2389.06 270.4C2390.13 273.067 2390.66 276.267 2390.66 280V280.8L2389.86 281.6H2359.46V251.2ZM2362.66 251.2V281.6H2332.26L2331.46 280.8V280C2331.46 276.267 2332 273.067 2333.06 270.4C2334.13 267.2 2335.46 264.534 2337.06 262.4C2338.66 259.734 2340.53 257.6 2342.66 256C2345.33 254.4 2348 253.067 2350.66 252C2353.86 250.934 2357.33 250.4 2361.06 250.4H2361.86L2362.66 251.2ZM2362.66 228.8L2361.86 229.6H2361.06C2357.33 229.6 2353.86 229.067 2350.66 228C2348 226.934 2345.33 225.6 2342.66 224C2340.53 222.4 2338.66 220.534 2337.06 218.4C2335.46 215.734 2334.13 213.067 2333.06 210.4C2332 207.2 2331.46 203.734 2331.46 200V199.2L2332.26 198.4H2362.66V228.8ZM2359.46 228.8V198.4H2389.86L2390.66 199.2V200C2390.66 203.734 2390.13 207.2 2389.06 210.4C2388 213.067 2386.66 215.734 2385.06 218.4C2383.46 220.534 2381.33 222.4 2378.66 224C2376.53 225.6 2373.86 226.934 2370.66 228C2368 229.067 2364.8 229.6 2361.06 229.6H2360.26L2359.46 228.8ZM2359.46 171.2L2360.26 170.4H2361.06C2364.8 170.4 2368 170.934 2370.66 172C2373.86 173.067 2376.53 174.4 2378.66 176C2381.33 177.6 2383.46 179.734 2385.06 182.4C2386.66 184.534 2388 187.2 2389.06 190.4C2390.13 193.067 2390.66 196.267 2390.66 200V200.8L2389.86 201.6H2359.46V171.2ZM2362.66 171.2V201.6H2332.26L2331.46 200.8V200C2331.46 196.267 2332 193.067 2333.06 190.4C2334.13 187.2 2335.46 184.534 2337.06 182.4C2338.66 179.734 2340.53 177.6 2342.66 176C2345.33 174.4 2348 173.067 2350.66 172C2353.86 170.934 2357.33 170.4 2361.06 170.4H2361.86L2362.66 171.2ZM2362.66 148.8L2361.86 149.6H2361.06C2357.33 149.6 2353.86 149.067 2350.66 148C2348 146.934 2345.33 145.6 2342.66 144C2340.53 142.4 2338.66 140.534 2337.06 138.4C2335.46 135.734 2334.13 133.067 2333.06 130.4C2332 127.2 2331.46 123.734 2331.46 120V119.2L2332.26 118.4H2362.66V148.8ZM2359.46 148.8V118.4H2389.86L2390.66 119.2V120C2390.66 123.734 2390.13 127.2 2389.06 130.4C2388 133.067 2386.66 135.734 2385.06 138.4C2383.46 140.534 2381.33 142.4 2378.66 144C2376.53 145.6 2373.86 146.934 2370.66 148C2368 149.067 2364.8 149.6 2361.06 149.6H2360.26L2359.46 148.8ZM2359.46 91.2004L2360.26 90.4004H2361.06C2364.8 90.4004 2368 90.9337 2370.66 92.0004C2373.86 93.0671 2376.53 94.4004 2378.66 96.0004C2381.33 97.6004 2383.46 99.7337 2385.06 102.4C2386.66 104.534 2388 107.2 2389.06 110.4C2390.13 113.067 2390.66 116.267 2390.66 120V120.8L2389.86 121.6H2359.46V91.2004ZM2362.66 91.2004V121.6H2332.26L2331.46 120.8V120C2331.46 116.267 2332 113.067 2333.06 110.4C2334.13 107.2 2335.46 104.534 2337.06 102.4C2338.66 99.7337 2340.53 97.6004 2342.66 96.0004C2345.33 94.4004 2348 93.0671 2350.66 92.0004C2353.86 90.9337 2357.33 90.4004 2361.06 90.4004H2361.86L2362.66 91.2004ZM2442.66 548.8L2441.86 549.6H2441.06C2437.33 549.6 2433.86 549.067 2430.66 548C2428 546.934 2425.33 545.6 2422.66 544C2420.53 542.4 2418.66 540.534 2417.06 538.4C2415.46 535.734 2414.13 533.067 2413.06 530.4C2412 527.2 2411.46 523.734 2411.46 520V519.2L2412.26 518.4H2442.66V548.8ZM2439.46 548.8V518.4H2469.86L2470.66 519.2V520C2470.66 523.734 2470.13 527.2 2469.06 530.4C2468 533.067 2466.66 535.734 2465.06 538.4C2463.46 540.534 2461.33 542.4 2458.66 544C2456.53 545.6 2453.86 546.934 2450.66 548C2448 549.067 2444.8 549.6 2441.06 549.6H2440.26L2439.46 548.8ZM2439.46 491.2L2440.26 490.4H2441.06C2444.8 490.4 2448 490.934 2450.66 492C2453.86 493.067 2456.53 494.4 2458.66 496C2461.33 497.6 2463.46 499.734 2465.06 502.4C2466.66 504.534 2468 507.2 2469.06 510.4C2470.13 513.067 2470.66 516.267 2470.66 520V520.8L2469.86 521.6H2439.46V491.2ZM2442.66 491.2V521.6H2412.26L2411.46 520.8V520C2411.46 516.267 2412 513.067 2413.06 510.4C2414.13 507.2 2415.46 504.534 2417.06 502.4C2418.66 499.734 2420.53 497.6 2422.66 496C2425.33 494.4 2428 493.067 2430.66 492C2433.86 490.934 2437.33 490.4 2441.06 490.4H2441.86L2442.66 491.2ZM2442.66 308.8L2441.86 309.6H2441.06C2437.33 309.6 2433.86 309.067 2430.66 308C2428 306.934 2425.33 305.6 2422.66 304C2420.53 302.4 2418.66 300.534 2417.06 298.4C2415.46 295.734 2414.13 293.067 2413.06 290.4C2412 287.2 2411.46 283.734 2411.46 280V279.2L2412.26 278.4H2442.66V308.8ZM2439.46 308.8V278.4H2469.86L2470.66 279.2V280C2470.66 283.734 2470.13 287.2 2469.06 290.4C2468 293.067 2466.66 295.734 2465.06 298.4C2463.46 300.534 2461.33 302.4 2458.66 304C2456.53 305.6 2453.86 306.934 2450.66 308C2448 309.067 2444.8 309.6 2441.06 309.6H2440.26L2439.46 308.8ZM2439.46 251.2L2440.26 250.4H2441.06C2444.8 250.4 2448 250.934 2450.66 252C2453.86 253.067 2456.53 254.4 2458.66 256C2461.33 257.6 2463.46 259.734 2465.06 262.4C2466.66 264.534 2468 267.2 2469.06 270.4C2470.13 273.067 2470.66 276.267 2470.66 280V280.8L2469.86 281.6H2439.46V251.2ZM2442.66 251.2V281.6H2412.26L2411.46 280.8V280C2411.46 276.267 2412 273.067 2413.06 270.4C2414.13 267.2 2415.46 264.534 2417.06 262.4C2418.66 259.734 2420.53 257.6 2422.66 256C2425.33 254.4 2428 253.067 2430.66 252C2433.86 250.934 2437.33 250.4 2441.06 250.4H2441.86L2442.66 251.2ZM2442.66 148.8L2441.86 149.6H2441.06C2437.33 149.6 2433.86 149.067 2430.66 148C2428 146.934 2425.33 145.6 2422.66 144C2420.53 142.4 2418.66 140.534 2417.06 138.4C2415.46 135.734 2414.13 133.067 2413.06 130.4C2412 127.2 2411.46 123.734 2411.46 120V119.2L2412.26 118.4H2442.66V148.8ZM2439.46 148.8V118.4H2469.86L2470.66 119.2V120C2470.66 123.734 2470.13 127.2 2469.06 130.4C2468 133.067 2466.66 135.734 2465.06 138.4C2463.46 140.534 2461.33 142.4 2458.66 144C2456.53 145.6 2453.86 146.934 2450.66 148C2448 149.067 2444.8 149.6 2441.06 149.6H2440.26L2439.46 148.8ZM2439.46 91.2004L2440.26 90.4004H2441.06C2444.8 90.4004 2448 90.9337 2450.66 92.0004C2453.86 93.0671 2456.53 94.4004 2458.66 96.0004C2461.33 97.6004 2463.46 99.7337 2465.06 102.4C2466.66 104.534 2468 107.2 2469.06 110.4C2470.13 113.067 2470.66 116.267 2470.66 120V120.8L2469.86 121.6H2439.46V91.2004ZM2442.66 91.2004V121.6H2412.26L2411.46 120.8V120C2411.46 116.267 2412 113.067 2413.06 110.4C2414.13 107.2 2415.46 104.534 2417.06 102.4C2418.66 99.7337 2420.53 97.6004 2422.66 96.0004C2425.33 94.4004 2428 93.0671 2430.66 92.0004C2433.86 90.9337 2437.33 90.4004 2441.06 90.4004H2441.86L2442.66 91.2004ZM2522.66 548.8L2521.86 549.6H2521.06C2517.33 549.6 2513.86 549.067 2510.66 548C2508 546.934 2505.33 545.6 2502.66 544C2500.53 542.4 2498.66 540.534 2497.06 538.4C2495.46 535.734 2494.13 533.067 2493.06 530.4C2492 527.2 2491.46 523.734 2491.46 520V519.2L2492.26 518.4H2522.66V548.8ZM2519.46 548.8V518.4H2549.86L2550.66 519.2V520C2550.66 523.734 2550.13 527.2 2549.06 530.4C2548 533.067 2546.66 535.734 2545.06 538.4C2543.46 540.534 2541.33 542.4 2538.66 544C2536.53 545.6 2533.86 546.934 2530.66 548C2528 549.067 2524.8 549.6 2521.06 549.6H2520.26L2519.46 548.8ZM2519.46 491.2L2520.26 490.4H2521.06C2524.8 490.4 2528 490.934 2530.66 492C2533.86 493.067 2536.53 494.4 2538.66 496C2541.33 497.6 2543.46 499.734 2545.06 502.4C2546.66 504.534 2548 507.2 2549.06 510.4C2550.13 513.067 2550.66 516.267 2550.66 520V520.8L2549.86 521.6H2519.46V491.2ZM2522.66 491.2V521.6H2492.26L2491.46 520.8V520C2491.46 516.267 2492 513.067 2493.06 510.4C2494.13 507.2 2495.46 504.534 2497.06 502.4C2498.66 499.734 2500.53 497.6 2502.66 496C2505.33 494.4 2508 493.067 2510.66 492C2513.86 490.934 2517.33 490.4 2521.06 490.4H2521.86L2522.66 491.2ZM2522.66 388.8L2521.86 389.6H2521.06C2517.33 389.6 2513.86 389.067 2510.66 388C2508 386.934 2505.33 385.6 2502.66 384C2500.53 382.4 2498.66 380.534 2497.06 378.4C2495.46 375.734 2494.13 373.067 2493.06 370.4C2492 367.2 2491.46 363.734 2491.46 360V359.2L2492.26 358.4H2522.66V388.8ZM2519.46 388.8V358.4H2549.86L2550.66 359.2V360C2550.66 363.734 2550.13 367.2 2549.06 370.4C2548 373.067 2546.66 375.734 2545.06 378.4C2543.46 380.534 2541.33 382.4 2538.66 384C2536.53 385.6 2533.86 386.934 2530.66 388C2528 389.067 2524.8 389.6 2521.06 389.6H2520.26L2519.46 388.8ZM2519.46 331.2L2520.26 330.4H2521.06C2524.8 330.4 2528 330.934 2530.66 332C2533.86 333.067 2536.53 334.4 2538.66 336C2541.33 337.6 2543.46 339.734 2545.06 342.4C2546.66 344.534 2548 347.2 2549.06 350.4C2550.13 353.067 2550.66 356.267 2550.66 360V360.8L2549.86 361.6H2519.46V331.2ZM2522.66 331.2V361.6H2492.26L2491.46 360.8V360C2491.46 356.267 2492 353.067 2493.06 350.4C2494.13 347.2 2495.46 344.534 2497.06 342.4C2498.66 339.734 2500.53 337.6 2502.66 336C2505.33 334.4 2508 333.067 2510.66 332C2513.86 330.934 2517.33 330.4 2521.06 330.4H2521.86L2522.66 331.2ZM2522.66 308.8L2521.86 309.6H2521.06C2517.33 309.6 2513.86 309.067 2510.66 308C2508 306.934 2505.33 305.6 2502.66 304C2500.53 302.4 2498.66 300.534 2497.06 298.4C2495.46 295.734 2494.13 293.067 2493.06 290.4C2492 287.2 2491.46 283.734 2491.46 280V279.2L2492.26 278.4H2522.66V308.8ZM2519.46 308.8V278.4H2549.86L2550.66 279.2V280C2550.66 283.734 2550.13 287.2 2549.06 290.4C2548 293.067 2546.66 295.734 2545.06 298.4C2543.46 300.534 2541.33 302.4 2538.66 304C2536.53 305.6 2533.86 306.934 2530.66 308C2528 309.067 2524.8 309.6 2521.06 309.6H2520.26L2519.46 308.8ZM2519.46 251.2L2520.26 250.4H2521.06C2524.8 250.4 2528 250.934 2530.66 252C2533.86 253.067 2536.53 254.4 2538.66 256C2541.33 257.6 2543.46 259.734 2545.06 262.4C2546.66 264.534 2548 267.2 2549.06 270.4C2550.13 273.067 2550.66 276.267 2550.66 280V280.8L2549.86 281.6H2519.46V251.2ZM2522.66 251.2V281.6H2492.26L2491.46 280.8V280C2491.46 276.267 2492 273.067 2493.06 270.4C2494.13 267.2 2495.46 264.534 2497.06 262.4C2498.66 259.734 2500.53 257.6 2502.66 256C2505.33 254.4 2508 253.067 2510.66 252C2513.86 250.934 2517.33 250.4 2521.06 250.4H2521.86L2522.66 251.2ZM2522.66 148.8L2521.86 149.6H2521.06C2517.33 149.6 2513.86 149.067 2510.66 148C2508 146.934 2505.33 145.6 2502.66 144C2500.53 142.4 2498.66 140.534 2497.06 138.4C2495.46 135.734 2494.13 133.067 2493.06 130.4C2492 127.2 2491.46 123.734 2491.46 120V119.2L2492.26 118.4H2522.66V148.8ZM2519.46 148.8V118.4H2549.86L2550.66 119.2V120C2550.66 123.734 2550.13 127.2 2549.06 130.4C2548 133.067 2546.66 135.734 2545.06 138.4C2543.46 140.534 2541.33 142.4 2538.66 144C2536.53 145.6 2533.86 146.934 2530.66 148C2528 149.067 2524.8 149.6 2521.06 149.6H2520.26L2519.46 148.8ZM2519.46 91.2004L2520.26 90.4004H2521.06C2524.8 90.4004 2528 90.9337 2530.66 92.0004C2533.86 93.0671 2536.53 94.4004 2538.66 96.0004C2541.33 97.6004 2543.46 99.7337 2545.06 102.4C2546.66 104.534 2548 107.2 2549.06 110.4C2550.13 113.067 2550.66 116.267 2550.66 120V120.8L2549.86 121.6H2519.46V91.2004ZM2522.66 91.2004V121.6H2492.26L2491.46 120.8V120C2491.46 116.267 2492 113.067 2493.06 110.4C2494.13 107.2 2495.46 104.534 2497.06 102.4C2498.66 99.7337 2500.53 97.6004 2502.66 96.0004C2505.33 94.4004 2508 93.0671 2510.66 92.0004C2513.86 90.9337 2517.33 90.4004 2521.06 90.4004H2521.86L2522.66 91.2004ZM2602.66 468.8L2601.86 469.6H2601.06C2597.33 469.6 2593.86 469.067 2590.66 468C2588 466.934 2585.33 465.6 2582.66 464C2580.53 462.4 2578.66 460.534 2577.06 458.4C2575.46 455.734 2574.13 453.067 2573.06 450.4C2572 447.2 2571.46 443.734 2571.46 440V439.2L2572.26 438.4H2602.66V468.8ZM2599.46 468.8V438.4H2629.86L2630.66 439.2V440C2630.66 443.734 2630.13 447.2 2629.06 450.4C2628 453.067 2626.66 455.734 2625.06 458.4C2623.46 460.534 2621.33 462.4 2618.66 464C2616.53 465.6 2613.86 466.934 2610.66 468C2608 469.067 2604.8 469.6 2601.06 469.6H2600.26L2599.46 468.8ZM2599.46 411.2L2600.26 410.4H2601.06C2604.8 410.4 2608 410.934 2610.66 412C2613.86 413.067 2616.53 414.4 2618.66 416C2621.33 417.6 2623.46 419.734 2625.06 422.4C2626.66 424.534 2628 427.2 2629.06 430.4C2630.13 433.067 2630.66 436.267 2630.66 440V440.8L2629.86 441.6H2599.46V411.2ZM2602.66 411.2V441.6H2572.26L2571.46 440.8V440C2571.46 436.267 2572 433.067 2573.06 430.4C2574.13 427.2 2575.46 424.534 2577.06 422.4C2578.66 419.734 2580.53 417.6 2582.66 416C2585.33 414.4 2588 413.067 2590.66 412C2593.86 410.934 2597.33 410.4 2601.06 410.4H2601.86L2602.66 411.2ZM2602.66 388.8L2601.86 389.6H2601.06C2597.33 389.6 2593.86 389.067 2590.66 388C2588 386.934 2585.33 385.6 2582.66 384C2580.53 382.4 2578.66 380.534 2577.06 378.4C2575.46 375.734 2574.13 373.067 2573.06 370.4C2572 367.2 2571.46 363.734 2571.46 360V359.2L2572.26 358.4H2602.66V388.8ZM2599.46 388.8V358.4H2629.86L2630.66 359.2V360C2630.66 363.734 2630.13 367.2 2629.06 370.4C2628 373.067 2626.66 375.734 2625.06 378.4C2623.46 380.534 2621.33 382.4 2618.66 384C2616.53 385.6 2613.86 386.934 2610.66 388C2608 389.067 2604.8 389.6 2601.06 389.6H2600.26L2599.46 388.8ZM2599.46 331.2L2600.26 330.4H2601.06C2604.8 330.4 2608 330.934 2610.66 332C2613.86 333.067 2616.53 334.4 2618.66 336C2621.33 337.6 2623.46 339.734 2625.06 342.4C2626.66 344.534 2628 347.2 2629.06 350.4C2630.13 353.067 2630.66 356.267 2630.66 360V360.8L2629.86 361.6H2599.46V331.2ZM2602.66 331.2V361.6H2572.26L2571.46 360.8V360C2571.46 356.267 2572 353.067 2573.06 350.4C2574.13 347.2 2575.46 344.534 2577.06 342.4C2578.66 339.734 2580.53 337.6 2582.66 336C2585.33 334.4 2588 333.067 2590.66 332C2593.86 330.934 2597.33 330.4 2601.06 330.4H2601.86L2602.66 331.2ZM2602.66 228.8L2601.86 229.6H2601.06C2597.33 229.6 2593.86 229.067 2590.66 228C2588 226.934 2585.33 225.6 2582.66 224C2580.53 222.4 2578.66 220.534 2577.06 218.4C2575.46 215.734 2574.13 213.067 2573.06 210.4C2572 207.2 2571.46 203.734 2571.46 200V199.2L2572.26 198.4H2602.66V228.8ZM2599.46 228.8V198.4H2629.86L2630.66 199.2V200C2630.66 203.734 2630.13 207.2 2629.06 210.4C2628 213.067 2626.66 215.734 2625.06 218.4C2623.46 220.534 2621.33 222.4 2618.66 224C2616.53 225.6 2613.86 226.934 2610.66 228C2608 229.067 2604.8 229.6 2601.06 229.6H2600.26L2599.46 228.8ZM2599.46 171.2L2600.26 170.4H2601.06C2604.8 170.4 2608 170.934 2610.66 172C2613.86 173.067 2616.53 174.4 2618.66 176C2621.33 177.6 2623.46 179.734 2625.06 182.4C2626.66 184.534 2628 187.2 2629.06 190.4C2630.13 193.067 2630.66 196.267 2630.66 200V200.8L2629.86 201.6H2599.46V171.2ZM2602.66 171.2V201.6H2572.26L2571.46 200.8V200C2571.46 196.267 2572 193.067 2573.06 190.4C2574.13 187.2 2575.46 184.534 2577.06 182.4C2578.66 179.734 2580.53 177.6 2582.66 176C2585.33 174.4 2588 173.067 2590.66 172C2593.86 170.934 2597.33 170.4 2601.06 170.4H2601.86L2602.66 171.2Z" fill="#FE4F17"/>
<path fill-rule="evenodd" clip-rule="evenodd" d="M320 0C496.731 0 640 143.269 640 320C640 496.731 496.731 640 320 640C143.269 640 0 496.731 0 320C0 143.269 143.269 0 320 0ZM319.952 131.401C303.946 131.401 288.246 135.791 274.562 144.094C260.878 152.397 249.734 164.295 242.342 178.492C234.95 192.689 231.593 208.642 232.638 224.613C233.683 240.585 239.09 255.965 248.269 269.078C231.961 263.934 214.504 263.684 198.055 268.357C181.607 273.03 166.889 282.421 155.722 295.37C144.555 308.319 137.428 324.258 135.223 341.214C133.018 358.171 135.831 375.402 143.316 390.776C150.8 406.151 162.626 418.995 177.332 427.719C192.038 436.443 208.979 440.665 226.059 439.864C243.14 439.062 259.611 433.271 273.435 423.208C287.26 413.144 297.831 399.249 303.843 383.242C303.91 440.835 300.215 479.135 245.579 508.062H394.334C339.697 479.127 336.003 440.818 336.07 383.242C343.264 402.44 356.97 418.505 374.797 428.629C392.626 438.754 413.444 442.295 433.617 438.638C453.79 434.98 472.039 424.356 485.177 408.617C498.316 392.878 505.512 373.025 505.507 352.523C505.501 338.776 502.256 325.223 496.037 312.963C489.817 300.703 480.799 290.079 469.71 281.953C458.622 273.828 445.775 268.428 432.211 266.191C418.647 263.954 404.746 264.943 391.635 269.078C400.814 255.965 406.221 240.585 407.266 224.613C408.311 208.642 404.954 192.689 397.562 178.492C390.17 164.295 379.026 152.397 365.342 144.094C351.658 135.791 335.958 131.401 319.952 131.401Z" fill="#FE4F17"/>
</svg>
